<svg xmlns="http://www.w3.org/2000/svg" xmlns:xlink="http://www.w3.org/1999/xlink" width="20" height="20" viewBox="0 0 20 20"><defs><clipPath id="a"><rect width="20" height="20" transform="translate(59.324)" fill="#282846"/></clipPath></defs><g transform="translate(-59.324)" clip-path="url(#a)"><g transform="translate(60.809 0)"><path d="M5.881,10.325a1.111,1.111,0,0,1,1.571,0l5.881,5.881,5.881-5.881A1.111,1.111,0,1,1,20.786,11.9l-6.667,6.667a1.111,1.111,0,0,1-1.571,0L5.881,11.9A1.111,1.111,0,0,1,5.881,10.325Z" transform="translate(-5.556 -3.333)" fill="#282846" fill-rule="evenodd"/><path d="M13.333,3.333a1.111,1.111,0,0,1,1.111,1.111V17.778a1.111,1.111,0,1,1-2.222,0V4.444A1.111,1.111,0,0,1,13.333,3.333Z" transform="translate(-5.556 -3.333)" fill="#282846" fill-rule="evenodd"/><path d="M5.556,22.222a1.111,1.111,0,0,1,1.111-1.111H20a1.111,1.111,0,1,1,0,2.222H6.667A1.111,1.111,0,0,1,5.556,22.222Z" transform="translate(-5.556 -3.333)" fill="#282846" fill-rule="evenodd"/></g></g></svg>