<svg xmlns="http://www.w3.org/2000/svg" xmlns:xlink="http://www.w3.org/1999/xlink" width="20" height="20" viewBox="0 0 20 20">
  <defs>
    <clipPath id="clip-path">
      <rect id="Rectangle_2650" data-name="Rectangle 2650" width="20" height="20" transform="translate(59.324)" fill="#fff"/>
    </clipPath>
  </defs>
  <g id="Mask_Group_65" data-name="Mask Group 65" transform="translate(-59.324)" clip-path="url(#clip-path)">
    <g id="reshot-icon-download-6CWHK4RJU2" transform="translate(60.809 0)">
      <path id="Path_2039" data-name="Path 2039" d="M5.881,10.325a1.111,1.111,0,0,1,1.571,0l5.881,5.881,5.881-5.881A1.111,1.111,0,1,1,20.786,11.9l-6.667,6.667a1.111,1.111,0,0,1-1.571,0L5.881,11.9A1.111,1.111,0,0,1,5.881,10.325Z" transform="translate(-5.556 -3.333)" fill="#fff" fill-rule="evenodd"/>
      <path id="Path_2040" data-name="Path 2040" d="M13.333,3.333a1.111,1.111,0,0,1,1.111,1.111V17.778a1.111,1.111,0,1,1-2.222,0V4.444A1.111,1.111,0,0,1,13.333,3.333Z" transform="translate(-5.556 -3.333)" fill="#fff" fill-rule="evenodd"/>
      <path id="Path_2041" data-name="Path 2041" d="M5.556,22.222a1.111,1.111,0,0,1,1.111-1.111H20a1.111,1.111,0,1,1,0,2.222H6.667A1.111,1.111,0,0,1,5.556,22.222Z" transform="translate(-5.556 -3.333)" fill="#fff" fill-rule="evenodd"/>
    </g>
  </g>
</svg>
