<svg xmlns="http://www.w3.org/2000/svg" xmlns:xlink="http://www.w3.org/1999/xlink" width="20" height="20" viewBox="0 0 20 20"><defs><clipPath id="a"><rect width="20" height="20" transform="translate(151.06 1.5)" fill="#007580"/></clipPath></defs><g transform="translate(-151.06 -1.5)" clip-path="url(#a)"><g transform="translate(151.06 1.5)"><path d="M10,18.75A8.75,8.75,0,1,0,1.25,10,8.75,8.75,0,0,0,10,18.75ZM10,20A10,10,0,1,0,0,10,10,10,0,0,0,10,20Z" fill="#007580" fill-rule="evenodd"/><path d="M5.25,6.666H6.9a1.6,1.6,0,0,1,1.7-1.73A1.452,1.452,0,0,1,10.241,6.4c0,.794-.468,1.159-1.206,1.714a2.848,2.848,0,0,0-1.46,2.484l.009.579H9.218v-.444c0-.9.341-1.159,1.262-1.858A3.051,3.051,0,0,0,12.035,6.3c0-1.889-1.6-2.8-3.341-2.8-1.658,0-3.483.809-3.443,3.166Zm1.952,6.9A1.177,1.177,0,0,0,8.465,14.72a1.172,1.172,0,1,0,0-2.334A1.175,1.175,0,0,0,7.2,13.561Z" transform="translate(1.313 0.875)" fill="#007580"/></g></g></svg>