<svg id="Component_36_84" data-name="Component 36 – 84" xmlns="http://www.w3.org/2000/svg" xmlns:xlink="http://www.w3.org/1999/xlink" width="50" height="50" viewBox="0 0 50 50">
  <defs>
    <clipPath id="clip-path">
      <rect id="Rectangle_2665" data-name="Rectangle 2665" width="50" height="50" fill="#282846"/>
    </clipPath>
  </defs>
  <g id="Mask_Group_69" data-name="Mask Group 69" clip-path="url(#clip-path)">
    <path id="stroked" d="M28.755,51.795a1.563,1.563,0,0,1-.953-.328C19.113,44.716,13.128,38.9,8.94,33.167,3.6,25.838,2.376,19.071,5.314,13.054c2.094-4.3,8.111-7.814,15.143-5.767a15.424,15.424,0,0,1,8.3,5.892,15.424,15.424,0,0,1,8.3-5.892C44.07,5.272,50.1,8.757,52.2,13.054c2.938,6.017,1.719,12.783-3.626,20.113C44.383,38.9,38.4,44.716,29.709,51.467A1.563,1.563,0,0,1,28.755,51.795Zm-12.3-41.96a9.22,9.22,0,0,0-8.329,4.579C5.7,19.383,6.8,24.915,11.471,31.307a89.28,89.28,0,0,0,17.284,16.94A89.28,89.28,0,0,0,46.039,31.323c4.688-6.407,5.767-11.939,3.344-16.893-1.563-3.126-6.251-5.61-11.471-4.141a12.5,12.5,0,0,0-7.72,6.564,1.563,1.563,0,0,1-2.891,0,12.393,12.393,0,0,0-7.72-6.564,11.424,11.424,0,0,0-3.126-.453Z" transform="translate(-3.755 -4.242)" fill="#282846"/>
  </g>
</svg>
