<svg xmlns="http://www.w3.org/2000/svg" xmlns:xlink="http://www.w3.org/1999/xlink" width="20" height="20" viewBox="0 0 20 20">
  <defs>
    <clipPath id="clip-path">
      <rect id="Rectangle_2650" data-name="Rectangle 2650" width="20" height="20" transform="translate(116.866)" fill="#fff"/>
    </clipPath>
  </defs>
  <g id="Mask_Group_60" data-name="Mask Group 60" transform="translate(-116.866)" clip-path="url(#clip-path)">
    <g id="__TEMP__SVG__" transform="translate(113.533 -3.333)">
      <path id="Path_2030" data-name="Path 2030" d="M13.333,16.667A3.333,3.333,0,1,0,10,13.333,3.333,3.333,0,0,0,13.333,16.667Z" fill="#fff"/>
      <path id="Path_2031" data-name="Path 2031" d="M13.333,3.333a1.111,1.111,0,0,1,1.111,1.111V5.633a7.782,7.782,0,0,1,6.589,6.589h1.189a1.111,1.111,0,0,1,0,2.222H21.033a7.782,7.782,0,0,1-6.589,6.589v1.189a1.111,1.111,0,0,1-2.222,0V21.033a7.782,7.782,0,0,1-6.589-6.589H4.444a1.111,1.111,0,0,1,0-2.222H5.633a7.784,7.784,0,0,1,6.589-6.589V4.444A1.111,1.111,0,0,1,13.333,3.333Zm-5.556,10a5.556,5.556,0,1,1,5.556,5.556,5.556,5.556,0,0,1-5.556-5.556Z" fill="#fff" fill-rule="evenodd"/>
    </g>
  </g>
</svg>
