<svg xmlns="http://www.w3.org/2000/svg" xmlns:xlink="http://www.w3.org/1999/xlink" width="16" height="16" viewBox="0 0 16 16"><defs><clipPath id="a"><rect width="16" height="16" transform="translate(7.898 8)" fill="#7f7faa"/></clipPath></defs><g transform="translate(-7.898 -8)" clip-path="url(#a)"><g transform="translate(9.041 8)"><path d="M6,6H7.143v6.977H6Z" transform="translate(-1.429 -0.186)" fill="#7f7faa"/><path d="M9,6h1.143v6.977H9Z" transform="translate(-1 -0.186)" fill="#7f7faa"/><path d="M2,3V4.163H3.143V15.791a1.153,1.153,0,0,0,1.143,1.163h9.143a1.153,1.153,0,0,0,1.143-1.163V4.163h1.143V3ZM4.286,15.791V4.163h9.143V15.791Z" transform="translate(-2 -0.674)" fill="#7f7faa"/><path d="M6,1h4.571V2.163H6Z" transform="translate(-1.429 -1)" fill="#7f7faa"/></g></g></svg>