<svg xmlns="http://www.w3.org/2000/svg" xmlns:xlink="http://www.w3.org/1999/xlink" width="20" height="20" viewBox="0 0 20 20">
  <defs>
    <clipPath id="clip-path">
      <rect id="Rectangle_2564" data-name="Rectangle 2564" width="20" height="20" transform="translate(117.814)" fill="#2a52be"/>
    </clipPath>
  </defs>
  <g id="Mask_Group_32" data-name="Mask Group 32" transform="translate(-117.814)" clip-path="url(#clip-path)">
    <g id="pen" transform="translate(119.62 1.774)">
      <path id="Path_1959" data-name="Path 1959" d="M6.917,16.491a1.168,1.168,0,0,1-.456.282l-3.5,1.168a1.168,1.168,0,0,1-1.479-1.477l1.168-3.5a1.168,1.168,0,0,1,.282-.457l9.1-9.1a2.336,2.336,0,0,1,3.3,0l.685.685a2.336,2.336,0,0,1,0,3.3l-9.1,9.1ZM3.755,13.329l9.1-9.1a1.168,1.168,0,0,1,1.651,0l.685.685a1.168,1.168,0,0,1,0,1.651l-9.1,9.1-3.5,1.168Z" transform="translate(-1.419 -1.55)" fill="#2a52be" fill-rule="evenodd"/>
      <path id="Path_1960" data-name="Path 1960" d="M12.768,3.346a.584.584,0,0,0-.827,0L8.1,7.195a.585.585,0,1,1-.827-.827l3.847-3.846a1.752,1.752,0,0,1,2.478,0l.342.341a.584.584,0,0,1-.826.827l-.342-.342Z" transform="translate(-2.426 -1.424)" fill="#2a52be" fill-rule="evenodd"/>
      <path id="Path_1961" data-name="Path 1961" d="M18.548,1.64a1.168,1.168,0,0,1,1.651,0l.035.035a1.168,1.168,0,0,1,.035,1.615L18.79,4.9,17.038,3.15Z" transform="translate(-4.19 -1.298)" fill="#2a52be"/>
    </g>
  </g>
</svg>
