<svg xmlns="http://www.w3.org/2000/svg" xmlns:xlink="http://www.w3.org/1999/xlink" width="52" height="52" viewBox="0 0 52 52">
  <defs>
    <clipPath id="clip-path">
      <rect id="Rectangle_2504" data-name="Rectangle 2504" width="28" height="28" transform="translate(0)" fill="#282846"/>
    </clipPath>
  </defs>
  <g id="Group_4127" data-name="Group 4127" transform="translate(-85.448)">
    <rect id="Rectangle_2503" data-name="Rectangle 2503" width="52" height="52" rx="10" transform="translate(85.448)" fill="#f7f7fd"/>
    <g id="Group_4799" data-name="Group 4799" transform="translate(97.449 12)">
      <g id="Mask_Group_45" data-name="Mask Group 45" clip-path="url(#clip-path)">
        <g id="__TEMP__SVG__" transform="translate(1.477 0.225)">
          <path id="Path_2008" data-name="Path 2008" d="M5.455,5.8A1.252,1.252,0,0,1,6.707,4.545H19.229a1.252,1.252,0,0,1,0,2.5H6.707A1.252,1.252,0,0,1,5.455,5.8Z" transform="translate(-0.446 0.464)" fill="#282846"/>
          <path id="Path_2009" data-name="Path 2009" d="M5.455,9.434A1.252,1.252,0,0,1,6.707,8.182H19.229a1.252,1.252,0,0,1,0,2.5H6.707A1.252,1.252,0,0,1,5.455,9.434Z" transform="translate(-0.446 1.836)" fill="#282846"/>
          <path id="Path_2010" data-name="Path 2010" d="M6.707,11.818a1.252,1.252,0,0,0,0,2.5H19.229a1.252,1.252,0,0,0,0-2.5Z" transform="translate(-0.446 3.209)" fill="#282846"/>
          <path id="Path_2011" data-name="Path 2011" d="M5.455,16.707a1.252,1.252,0,0,1,1.252-1.252h5.009a1.252,1.252,0,1,1,0,2.5H6.707A1.252,1.252,0,0,1,5.455,16.707Z" transform="translate(-0.446 4.581)" fill="#282846"/>
          <path id="Path_2012" data-name="Path 2012" d="M1.818,4.666A3.757,3.757,0,0,1,5.575.909H23.106a3.757,3.757,0,0,1,3.757,3.757V24.7a3.757,3.757,0,0,1-3.757,3.757H5.575A3.757,3.757,0,0,1,1.818,24.7ZM5.575,3.414H23.106a1.252,1.252,0,0,1,1.252,1.252V24.7a1.252,1.252,0,0,1-1.252,1.252H5.575A1.252,1.252,0,0,1,4.323,24.7V4.666A1.252,1.252,0,0,1,5.575,3.414Z" transform="translate(-1.818 -0.909)" fill="#282846" fill-rule="evenodd"/>
        </g>
      </g>
    </g>
  </g>
</svg>
