<svg id="Group_4301" data-name="Group 4301" xmlns="http://www.w3.org/2000/svg" xmlns:xlink="http://www.w3.org/1999/xlink" width="250" height="157.796" viewBox="0 0 250 157.796">
  <defs>
    <clipPath id="clip-path">
      <rect id="Rectangle_2535" data-name="Rectangle 2535" width="250" height="157.796" fill="none"/>
    </clipPath>
  </defs>
  <g id="Group_4300" data-name="Group 4300" clip-path="url(#clip-path)">
    <path id="Rectangle_2529" data-name="Rectangle 2529" d="M6.989,0H108.337a6.988,6.988,0,0,1,6.988,6.988v143.82a6.988,6.988,0,0,1-6.988,6.988H6.988A6.988,6.988,0,0,1,0,150.808V6.989A6.989,6.989,0,0,1,6.989,0Z" transform="translate(0)" fill="#bdbde0"/>
    <path id="Path_1797" data-name="Path 1797" d="M106.765,155.163H7.874a5.928,5.928,0,0,1-5.927-5.927V7.874A5.928,5.928,0,0,1,7.874,1.947h98.89a5.928,5.928,0,0,1,5.927,5.927V149.235a5.928,5.928,0,0,1-5.927,5.927" transform="translate(0.342 0.342)" fill="#e5e5f5"/>
    <path id="Path_1798" data-name="Path 1798" d="M26.529,46.8c0-17.571,9.255-27.61,26.2-27.61s26.2,10.039,26.2,27.61v57.1c0,17.571-9.256,27.61-26.2,27.61s-26.2-10.039-26.2-27.61ZM43.786,105c0,7.844,3.451,10.825,8.942,10.825s8.941-2.981,8.941-10.825V45.7c0-7.844-3.451-10.825-8.941-10.825S43.786,37.854,43.786,45.7Z" transform="translate(4.665 3.374)" fill="#fff"/>
    <rect id="Rectangle_2530" data-name="Rectangle 2530" width="110.745" height="5.955" transform="translate(2.291 75.92)" fill="#dadaef"/>
    <rect id="Rectangle_2531" data-name="Rectangle 2531" width="110.745" height="2.595" transform="translate(2.291 79.279)" fill="#bdbde0"/>
    <path id="Rectangle_2532" data-name="Rectangle 2532" d="M6.989,0H108.336a6.989,6.989,0,0,1,6.989,6.989V150.808a6.988,6.988,0,0,1-6.988,6.988H6.989A6.989,6.989,0,0,1,0,150.807V6.989A6.989,6.989,0,0,1,6.989,0Z" transform="translate(134.675)" fill="#bdbde0"/>
    <path id="Path_1799" data-name="Path 1799" d="M221.3,155.163h-98.89a5.928,5.928,0,0,1-5.927-5.927V7.874a5.928,5.928,0,0,1,5.927-5.927H221.3a5.928,5.928,0,0,1,5.927,5.927V149.235a5.928,5.928,0,0,1-5.927,5.927" transform="translate(20.483 0.342)" fill="#e5e5f5"/>
    <path id="Path_1800" data-name="Path 1800" d="M1.948,48.206v44.43h4.58A2.143,2.143,0,0,0,8.67,90.492V50.348a2.143,2.143,0,0,0-2.142-2.142Z" transform="translate(0.343 8.477)" fill="#dadaef"/>
    <path id="Path_1801" data-name="Path 1801" d="M6.174,48.206H3.96A2.143,2.143,0,0,1,6.1,50.348V90.492A2.143,2.143,0,0,1,3.96,92.636H6.174a2.143,2.143,0,0,0,2.142-2.144V50.348a2.143,2.143,0,0,0-2.142-2.142" transform="translate(0.696 8.477)" fill="#bdbde0"/>
    <path id="Path_1802" data-name="Path 1802" d="M97.135,48.206v44.43h-4.58a2.143,2.143,0,0,1-2.142-2.144V50.348a2.143,2.143,0,0,1,2.142-2.142Z" transform="translate(15.899 8.477)" fill="#dadaef"/>
    <path id="Path_1803" data-name="Path 1803" d="M92.555,48.206H94.77a2.143,2.143,0,0,0-2.144,2.142V90.492a2.143,2.143,0,0,0,2.144,2.144H92.555a2.143,2.143,0,0,1-2.142-2.144V50.348a2.143,2.143,0,0,1,2.142-2.142" transform="translate(15.899 8.477)" fill="#bdbde0"/>
    <path id="Path_1804" data-name="Path 1804" d="M116.482,48.206v44.43h4.58a2.143,2.143,0,0,0,2.142-2.144V50.348a2.143,2.143,0,0,0-2.142-2.142Z" transform="translate(20.483 8.477)" fill="#dadaef"/>
    <path id="Path_1805" data-name="Path 1805" d="M211.67,48.206v44.43h-4.58a2.143,2.143,0,0,1-2.142-2.144V50.348a2.143,2.143,0,0,1,2.142-2.142Z" transform="translate(36.04 8.477)" fill="#dadaef"/>
    <path id="Path_1806" data-name="Path 1806" d="M207.09,48.206H209.3a2.143,2.143,0,0,0-2.144,2.142V90.492a2.143,2.143,0,0,0,2.144,2.144H207.09a2.142,2.142,0,0,1-2.142-2.144V50.348a2.142,2.142,0,0,1,2.142-2.142" transform="translate(36.04 8.477)" fill="#bdbde0"/>
    <path id="Path_1807" data-name="Path 1807" d="M141.293,46.8c0-17.571,9.255-27.61,26.2-27.61s26.2,10.039,26.2,27.61v57.1c0,17.571-9.256,27.61-26.2,27.61s-26.2-10.039-26.2-27.61ZM158.55,105c0,7.844,3.451,10.825,8.942,10.825s8.941-2.981,8.941-10.825V45.7c0-7.844-3.451-10.825-8.941-10.825S158.55,37.854,158.55,45.7Z" transform="translate(24.846 3.374)" fill="#fff"/>
    <rect id="Rectangle_2533" data-name="Rectangle 2533" width="110.745" height="5.955" transform="translate(136.965 75.92)" fill="#dadaef"/>
    <rect id="Rectangle_2534" data-name="Rectangle 2534" width="110.745" height="2.595" transform="translate(136.965 79.279)" fill="#bdbde0"/>
    <path id="Path_1808" data-name="Path 1808" d="M120.708,48.206h-2.214a2.143,2.143,0,0,1,2.144,2.142V90.492a2.143,2.143,0,0,1-2.144,2.144h2.214a2.143,2.143,0,0,0,2.142-2.144V50.348a2.143,2.143,0,0,0-2.142-2.142" transform="translate(20.837 8.477)" fill="#bdbde0"/>
  </g>
</svg>
