<svg xmlns="http://www.w3.org/2000/svg" width="76" height="68.561" viewBox="0 0 76 68.561">
  <g id="Group_4993" data-name="Group 4993" transform="translate(-653.203 -366)">
    <path id="filled" d="M41.755,75.25a2.375,2.375,0,0,1-1.449-.5C27.1,64.49,18,55.653,11.636,46.935,3.512,35.795,1.659,25.51,6.125,16.364,9.308,9.832,18.453,4.487,29.142,7.6a23.445,23.445,0,0,1,12.613,8.955A23.445,23.445,0,0,1,54.369,7.6C65.034,4.535,74.2,9.832,77.386,16.364,81.852,25.51,80,35.795,71.875,46.935,65.509,55.653,56.412,64.49,43.2,74.751A2.376,2.376,0,0,1,41.755,75.25Z" transform="translate(649.448 359.311)" fill="#ff6961"/>
  </g>
</svg>
