<svg xmlns="http://www.w3.org/2000/svg" xmlns:xlink="http://www.w3.org/1999/xlink" width="310.117" height="332.28" viewBox="0 0 310.117 332.28">
  <defs>
    <clipPath id="clip-path">
      <rect id="Rectangle_2527" data-name="Rectangle 2527" width="258.096" height="18.683" fill="#e5e5f5"/>
    </clipPath>
    <clipPath id="clip-path-2">
      <rect id="Rectangle_2528" data-name="Rectangle 2528" width="23.99" height="7.996" fill="none"/>
    </clipPath>
  </defs>
  <g id="Group_4298" data-name="Group 4298" transform="translate(0 -248)">
    <g id="Group_4294" data-name="Group 4294" transform="translate(47.061 561.597)" opacity="0.35">
      <g id="Group_4293" data-name="Group 4293">
        <g id="Group_4292" data-name="Group 4292" clip-path="url(#clip-path)">
          <path id="Path_1771" data-name="Path 1771" d="M330.007,321.131c0,5.159-60.894,11.149-131.056,11.149S71.91,328.1,71.91,322.939s56.878-9.342,127.04-9.342,131.056,2.375,131.056,7.534" transform="translate(-71.91 -313.597)" fill="#e5e5f5"/>
        </g>
      </g>
    </g>
    <g id="Group_4297" data-name="Group 4297" transform="translate(234.187 441.253)" opacity="0.09">
      <g id="Group_4296" data-name="Group 4296">
        <g id="Group_4295" data-name="Group 4295" clip-path="url(#clip-path-2)">
          <path id="Path_1772" data-name="Path 1772" d="M234.187,196.8l1.113,3.063s19.089,3.114,22.878,0c-.585-1.88-3.723-6.612-3.723-6.612Z" transform="translate(-234.187 -193.253)" fill="#1f1f3b"/>
        </g>
      </g>
    </g>
    <path id="Path_1773" data-name="Path 1773" d="M270.551,315.1c-14.7,13.612-78.038,16.654-103.161.938a31.464,31.464,0,0,1-3.365-2.41,24.1,24.1,0,0,1-2.8-2.711c-18.518-21.329-39.686-99.662-35.506-151.634l.1-.008a2.811,2.811,0,0,0-.1.738c0,4.988,12.537,9.459,32.3,12.456a374.236,374.236,0,0,0,43.3,3.639l.256.007c5.121.161,10.39.244,15.767.244,5.5,0,10.891-.086,16.127-.254,11.493-.363,22.249-1.111,31.837-2.164a203.379,203.379,0,0,0,27.184-4.574c2.3-.587,4.381-1.2,6.237-1.838,6.545-2.25,10.242-4.805,10.242-7.516a3.351,3.351,0,0,0-.509-1.728c-.025-.048-.055-.1-.085-.145.042.045.082.087.12.132a1.858,1.858,0,0,1,.474,1.011c7.3,67.189-22.3,140.881-38.427,155.817" transform="translate(0 248)" fill="#e5e5f5"/>
    <path id="Path_1774" data-name="Path 1774" d="M217.341,172.872c13.136,0,26.061-.461,37.71-1.322-.63-1.517-1.232-3.1-1.821-4.724-1.314-3.632-2.558-7.511-3.854-11.509-.808-2.485-1.638-5.013-2.521-7.558a.456.456,0,0,0-.017-.048q-.561-1.617-1.156-3.245c36.736,2.129,63.294,8.286,63.294,15.551,0,6.53-21.459,12.165-52.481,14.783-11.869,1-25.143,1.563-39.146,1.563q-5.406,0-10.654-.111h-.017c-5.748-.117-11.33-.331-16.7-.631q-2.986-.167-5.886-.369-3.024-.212-5.941-.457c-30.991-2.62-52.425-8.253-52.425-14.778,0-6.962,24.393-12.908,58.762-15.262-.215,1.09-.428,2.151-.634,3.2-.484,2.468-.923,4.845-1.249,7.31a118.92,118.92,0,0,1-2.721,12.123c-.346,1.364-.69,2.746-1.011,4.118q3.555.267,7.26.484c5.819.338,11.877.584,18.057.73Z" transform="translate(0 248)" fill="#a87e69"/>
    <path id="Path_1775" data-name="Path 1775" d="M217.351,143.328c-50.6,0-91.63,7.4-91.63,16.52s41.03,16.52,91.63,16.52,91.63-7.4,91.63-16.52-41.03-16.52-91.63-16.52" transform="translate(0 248)" fill="#7f7faa"/>
    <path id="Path_1776" data-name="Path 1776" d="M265.315,173.945c-5.991,4.873-19.448,15.543-23.292,16.316-4.993,1-2.209,18.035-3,18.472-4.833,2.682-18.222-4.995-22.064-7.486s-17.709,8.148-21.73,7.481c-1.787-.3-6.129-11.731-5.161-19.939.93-7.865-29.69-9.166-32.047-16.316a374.235,374.235,0,0,0,43.3,3.639l.255.007c5.121.161,10.39.244,15.767.244,5.5,0,10.891-.086,16.128-.254,11.493-.363,22.249-1.111,31.836-2.164" transform="translate(0 248)" fill="#e5e5f5"/>
    <path id="Path_1777" data-name="Path 1777" d="M233.729,176.11s-5.748,22.951-16.767,25.138c-3.754.745-6.393-4-15.378-25.128,5.121.161,10.39.243,15.767.243,5.5,0,10.891-.085,16.127-.253Z" transform="translate(0 248)" fill="#fff"/>
    <path id="Path_1778" data-name="Path 1778" d="M185.534,99.18c0,.078,0,.159-.01.239s-.013.147-.023.222-.022.163-.04.25c-.012.066-.027.138-.045.207a.272.272,0,0,1-.015.063c-.02.082-.043.168-.068.253s-.04.14-.065.214c-.04.129-.088.263-.14.4-.03.079-.063.16-.1.242a.017.017,0,0,1-.005.014c-.033.08-.065.16-.1.24-.1.233-.216.471-.346.722-.053.1-.108.217-.168.325a30.306,30.306,0,0,1-2.215,3.439c-.1.141-.206.281-.313.425q-.636.857-1.382,1.78c-.121.151-.246.3-.371.457-.148.182-.3.369-.457.556-.2.238-.4.476-.607.72-.331.386-.669.78-1.025,1.181-.133.153-.271.308-.412.466s-.3.34-.456.509c-.306.344-.622.691-.943,1.038q-.778.848-1.612,1.726-.463.481-.936.975c-.175.183-.356.37-.539.555s-.366.373-.549.561c-.371.377-.745.755-1.129,1.14-.19.189-.383.383-.577.573s-.388.386-.586.582q-.347.342-.7.687-.8.78-1.633,1.58-2.328,2.23-4.88,4.563c-.241.22-.481.44-.727.661q-1.6,1.452-3.27,2.929-1.384,1.223-2.814,2.46-.936.809-1.891,1.625-.91.775-1.833,1.555l-1.424,1.2c-.374.31-.75.625-1.126.935l-1.294,1.069a.6.6,0,0,0-.078.065c-.211.17-.422.343-.632.517h0l-.594.484q-.654.533-1.314,1.067c-3.386,2.735-6.872,5.461-10.4,8.127-3.017,2.279-6.072,4.519-9.121,6.683-.053.039-.106.075-.158.114-.331.232-.665.465-1,.7-.053.039-.108.073-.161.11-.271.186-.542.369-.815.552-.158.108-.316.213-.476.317-.1.069-.2.138-.306.2-.166.108-.331.218-.5.324-.321.208-.642.413-.965.62l-.143.089c-.191.121-.384.239-.577.359s-.414.256-.62.381l-.5.3-.339.2c-.158.1-.318.19-.476.283-.028.017-.058.036-.085.051q-.4.235-.8.466c-.15.084-.3.17-.446.256q-.282.162-.565.32c-.06.036-.117.068-.178.1-.24.135-.481.271-.724.4-.214.118-.427.236-.64.351-.123.069-.246.133-.368.2l-.64.342c-.349.187-.7.371-1.051.556-.093.045-.183.092-.273.14q-.212.106-.421.216l-.357.18-.173.089c-.1.049-.2.1-.3.152-.188.1-.374.189-.562.281-.042.022-.085.043-.13.063-.063.03-.123.062-.186.092l-.007,0c-.2.1-.391.192-.587.287a.489.489,0,0,1-.065.032c-.223.108-.447.217-.67.323-.06.028-.12.056-.18.086-.306.145-.61.291-.916.434q-.591.274-1.181.547l-.153.069c-.519.237-1.041.47-1.562.7q-1.189.528-2.385,1.028c-.514.216-1.026.429-1.54.64h0c-.214.089-.427.175-.642.261q-1.287.519-2.576,1.013c-.747.289-1.5.569-2.244.842l-.565.206-.687.248-.687.247-.963.338q-2.607.906-5.181,1.72l-.675.211c-.243.077-.486.154-.732.228-.206.064-.411.125-.614.189-.351.107-.7.212-1.051.317q-1.25.374-2.488.728-.617.177-1.231.347c-.406.114-.815.228-1.222.337s-.81.219-1.211.327c-.231.062-.461.122-.692.182-.213.059-.426.113-.639.168-.64.167-1.272.329-1.9.487-.208.053-.419.1-.627.155q-1.9.474-3.729.893l-.562.128c-.226.053-.452.1-.677.156l-.783.176c-.248.052-.494.107-.739.16-.181.04-.362.081-.542.117-.63.136-1.252.27-1.866.4-.188.041-.374.077-.557.115-.76.156-1.5.3-2.234.447q-.448.085-.885.173-1.509.285-2.914.539c-.151.027-.3.052-.452.08-.745.133-1.464.256-2.162.372-.416.069-.825.138-1.223.2-1.859.3-3.506.543-4.9.737l-.564.078-.3.039c-.215.03-.421.058-.622.083-.4.054-.77.1-1.111.141l-.356.043c-.293.038-.559.067-.8.094-.055,0-.108.013-.161.018-.837.1-1.284.138-1.284.138-4.062-20.5-4.108-29.462-8.433-38.974-.54-1.188-1.147-2.384-1.836-3.613-.667-1.192-1.415-2.413-2.255-3.687-.1-.155-.208-.316-.316-.476-7.315-10.995-24.115-32.96-30.74-56.917q-.234-.843-.449-1.691v0Q1.469,73.65.91,70.32q-.467-2.8-.7-5.614v0c-1.2-14.54,2.561-29.17,15.436-42q1.166-1.164,2.437-2.309a76.459,76.459,0,0,1,7-5.574l0,0q2.294-1.623,4.842-3.2c67.061-41.325,101.14,39.9,112.435,52.468q.628.7,1.284,1.389c10.435,11,25.732,20.364,34.715,26.726a40.967,40.967,0,0,1,6.275,5.106,7.153,7.153,0,0,1,.594.752,1.98,1.98,0,0,1,.3,1.121" transform="translate(0 248)" fill="#e5e5f5"/>
    <path id="Path_1779" data-name="Path 1779" d="M103.8,43.334A43.96,43.96,0,1,1,42.81,31.29,43.959,43.959,0,0,1,103.8,43.334" transform="translate(0 248)" fill="#fff"/>
    <path id="Path_1780" data-name="Path 1780" d="M73.7,81.283c-7.287,17.87-37.632,38.21-44.064,36.94s26.288,16.327,42.2-3.639S79.7,84.675,79.7,84.675l-3.965-5.3s-1.058-.47-2.028,1.908" transform="translate(0 248)" fill="#7f7faa"/>
    <path id="Path_1781" data-name="Path 1781" d="M78.079,78.351c19.3.053,49.646-20.284,50.916-26.715s5.11,30.521-19.407,37.651-30.65-4.1-30.65-4.1L75.544,79.5s-.033-1.158,2.535-1.151" transform="translate(0 248)" fill="#7f7faa"/>
    <path id="Path_1782" data-name="Path 1782" d="M64.239,49.16c2.414,3.948,1.241,4.965,2.892,2.931S82.383,40.942,82.477,35.546s-.027-4.62-1.944-5.19-16.294,18.8-16.294,18.8" transform="translate(0 248)" fill="#7f7faa"/>
    <path id="Path_1783" data-name="Path 1783" d="M50.883,58.112C53.617,61.845,55,61.147,52.495,61.9s-16.11,9.87-21.137,7.9S27.1,68.025,27.3,66.035s23.586-7.923,23.586-7.923" transform="translate(0 248)" fill="#7f7faa"/>
    <path id="Path_1784" data-name="Path 1784" d="M77.227,51.412c.785,1.171.794,2.54.021,3.059s-2.036-.011-2.821-1.182-.794-2.541-.021-3.059,2.036.011,2.821,1.182" transform="translate(0 248)" fill="#7f7faa"/>
    <path id="Path_1785" data-name="Path 1785" d="M52.2,68.186c.785,1.171.794,2.54.021,3.059s-2.036-.011-2.821-1.182S48.6,67.522,49.377,67s2.036.011,2.821,1.182" transform="translate(0 248)" fill="#7f7faa"/>
    <path id="Path_1786" data-name="Path 1786" d="M159.092,129.675q-1.384,1.223-2.814,2.46-.936.809-1.891,1.625-.909.775-1.833,1.555-.711.6-1.424,1.2c-.374.311-.75.625-1.126.936l-1.294,1.068a.994.994,0,0,0-.078.065c-.211.171-.421.344-.632.517l0,0c-.2.161-.4.321-.6.484q-.654.531-1.314,1.066c-3.385,2.736-6.871,5.462-10.4,8.128-3.017,2.279-6.072,4.519-9.121,6.683l-.158.113c-.331.233-.665.466-1,.7-.053.038-.108.073-.161.111-.271.185-.541.368-.815.551-.158.108-.316.213-.476.316q-.4.267-.8.527-.481.312-.965.619l-.143.091c-.191.12-.384.24-.577.358s-.414.256-.619.381l-.5.3-.338.2c-.158.1-.319.191-.477.284l-.085.05q-.4.237-.8.466c-.148.086-.3.173-.446.256-.188.108-.376.216-.564.321-.061.035-.118.068-.178.1-.241.135-.482.27-.725.4-.213.118-.426.236-.64.351l-.368.2c-.213.115-.427.228-.64.341-.348.188-.7.371-1.051.557-.092.045-.183.093-.273.14-.14.073-.281.143-.421.216l-.356.18c-.058.031-.116.058-.173.088-.1.053-.2.1-.3.153-.188.1-.373.188-.562.281-.042.023-.085.043-.13.063-.025.015-.05.027-.075.04s-.073.035-.111.053l-.007.005-.587.285a.439.439,0,0,1-.065.033l-.67.324c-.06.027-.12.057-.18.085-.306.145-.61.291-.916.434-.393.183-.787.366-1.181.546l-60.959-19.7-9.166-2.962s7.17-.418,17.193-1.148c21.685-1.585,56.724-4.635,61.361-8.088,11.731-8.737,7.9,1.5,26.395-64.964Z" transform="translate(0 248)" fill="#fff"/>
    <path id="Path_1787" data-name="Path 1787" d="M126.566,155.46l-.158.113c-.331.233-.665.466-1,.7-.053.038-.108.073-.161.11-.27.186-.541.369-.815.552-.158.108-.316.213-.476.316-.1.07-.2.138-.306.2-.166.108-.331.218-.5.324q-.481.312-.965.619l-.143.09c-.191.121-.384.241-.577.359s-.414.256-.619.381l-.5.3-.338.2c-.158.1-.319.191-.477.284-.027.017-.058.035-.085.05q-.4.237-.8.466l-.446.256c-.188.108-.376.216-.564.321-.06.035-.118.068-.178.1-.241.136-.482.271-.725.4-.213.118-.426.236-.64.351-.122.068-.245.133-.368.2-.213.115-.426.228-.64.341-.351.188-.7.371-1.05.557-.093.045-.183.092-.274.14-.14.07-.281.143-.421.216l-.356.18c-.058.03-.116.058-.173.088-.1.053-.2.1-.3.153-.188.1-.373.188-.561.281-.068.035-.138.068-.206.1l-.11.052-.008,0-.587.286a.439.439,0,0,1-.065.033l-.67.323-.18.086c-.306.145-.609.291-.915.434-.394.183-.788.366-1.182.546-.052.025-.1.048-.153.07-.519.236-1.04.472-1.562.7q-1.188.526-2.385,1.028c-.514.216-1.026.429-1.54.64h0c-.213.088-.426.175-.642.261q-1.287.519-2.576,1.013c-.747.288-1.5.569-2.244.842l-.564.206-.688.248c-.23.083-.458.166-.687.246l-.963.339q-2.607.906-5.181,1.72l-.674.211c-.244.077-.487.153-.733.228l-.614.188c-.351.108-.7.213-1.051.318q-1.248.374-2.488.728-.617.177-1.231.346c-.406.115-.815.228-1.221.338s-.81.218-1.211.326c-.231.063-.462.123-.693.183-.213.058-.426.113-.639.168-.64.166-1.272.329-1.9.487-.208.053-.419.1-.627.155q-1.9.474-3.729.893l-.562.128c-.225.053-.451.1-.677.156-.261.057-.524.115-.782.175s-.494.108-.74.161c-.181.04-.361.08-.542.117q-.944.2-1.866.4c-.185.037-.371.075-.556.115q-1.14.234-2.235.446l-.885.173q-1.509.286-2.914.54c-.151.027-.3.052-.452.08q-1.116.2-2.161.371-.625.105-1.224.2c-1.858.3-3.506.544-4.9.737-.193.028-.381.053-.564.078-.1.015-.2.028-.3.04l-.622.083c-.4.053-.77.1-1.111.141-.123.015-.244.03-.356.042-.294.038-.56.068-.8.1-.055.008-.11.013-.16.018-.838.1-1.284.138-1.284.138-4.063-20.5-4.108-29.462-8.434-38.974q7.866.422,14.956.933c40.032,2.869,62.124,7.641,73.7,11.2" transform="translate(0 248)" fill="#e5e5f5"/>
    <path id="Path_1788" data-name="Path 1788" d="M185.534,99.18c0,.078,0,.159-.01.239s-.013.147-.023.222-.022.163-.04.25c-.012.066-.027.138-.045.207a.272.272,0,0,1-.015.063c-.02.082-.043.168-.068.253s-.04.14-.065.214c-.04.129-.088.263-.14.4-.03.079-.063.16-.1.242a.017.017,0,0,1-.005.014c-.033.08-.065.16-.1.24-.1.233-.216.471-.346.722-.053.1-.108.217-.168.325a30.306,30.306,0,0,1-2.215,3.439c-.1.141-.206.281-.313.425q-.636.857-1.382,1.78c-.121.151-.246.3-.371.457-.148.182-.3.369-.457.556-.2.238-.4.476-.607.72-.331.386-.669.78-1.025,1.181-.133.153-.271.308-.412.466s-.3.34-.456.509c-.306.344-.619.691-.943,1.038q-.778.848-1.612,1.726-.463.481-.936.975c-.175.183-.356.37-.539.555s-.366.373-.549.561c-.371.377-.745.755-1.129,1.14-.19.189-.383.383-.577.573s-.388.386-.586.582q-.347.342-.7.687-.8.783-1.633,1.58-2.328,2.23-4.88,4.563c-.241.22-.481.44-.727.661q-1.6,1.452-3.27,2.929-1.384,1.223-2.814,2.46-.936.809-1.891,1.625-.91.775-1.833,1.555l-1.424,1.2c-.374.31-.75.625-1.126.935l-1.294,1.069a.6.6,0,0,0-.078.065c-.211.17-.422.343-.632.517h0l-.594.484q-.654.533-1.314,1.067c-3.386,2.735-6.872,5.461-10.4,8.127-.264-2.25-.489-4.865-.632-7.872a198.7,198.7,0,0,1,.812-27.619c.058-.626.118-1.264.181-1.906a382.5,382.5,0,0,1,6.808-42.252v0q.384-1.8.793-3.649c10.435,11,25.732,20.364,34.715,26.726a40.967,40.967,0,0,1,6.275,5.106,7.153,7.153,0,0,1,.594.752,1.98,1.98,0,0,1,.3,1.121" transform="translate(0 248)" fill="#e5e5f5"/>
    <path id="Path_1789" data-name="Path 1789" d="M126.566,155.46l-.158.113c-.331.233-.665.466-1,.7-.053.038-.108.073-.161.11-.27.186-.541.369-.815.552-.158.108-.316.213-.476.316-.1.07-.2.138-.306.2-.166.108-.331.218-.5.324q-.481.312-.965.619l-.143.09c-.191.121-.384.241-.577.359s-.414.256-.619.381l-.5.3-.338.2c-.158.1-.319.191-.477.284-.027.017-.058.035-.085.05q-.4.237-.8.466l-.446.256c-.188.108-.376.216-.564.321-.06.035-.118.068-.178.1-.241.136-.482.271-.725.4-.213.118-.426.236-.64.351-.122.068-.245.133-.368.2-.213.115-.426.228-.64.341-.351.188-.7.371-1.05.557-.093.045-.183.092-.274.14-.14.07-.281.143-.421.216l-.356.18c-.058.03-.116.058-.173.088-.1.053-.2.1-.3.153-.188.1-.373.188-.561.281-.068.035-.138.068-.206.1l-.11.052-.008,0-.587.286a.439.439,0,0,1-.065.033l-.67.323-.18.086c-.306.145-.609.291-.915.434-.394.183-.788.366-1.182.546-.052.025-.1.048-.153.07-.519.236-1.04.472-1.562.7q-1.188.526-2.385,1.028c-.514.216-1.026.429-1.54.64h0C84.1,162.768,47.854,151,47.074,146.289c-.151-.89.97-1.527,3.724-1.823.665-.07,1.354-.141,2.066-.206,40.032,2.869,62.124,7.641,73.7,11.2" transform="translate(0 248)" fill="#e5e5f5"/>
    <path id="Path_1790" data-name="Path 1790" d="M156.278,132.135c-3.253,2.814-6.668,5.67-10.189,8.514-3.386,2.736-6.872,5.462-10.4,8.128-1.508-12.895-1.779-37.79,7.169-79.65,12.838,20.955,13.587,52.089,13.422,63.008" transform="translate(0 248)" fill="#e5e5f5"/>
    <path id="Path_1791" data-name="Path 1791" d="M219.019,294.605a5.659,5.659,0,0,1-2.88,1.745c-2.439,0-8.347-3.083-9.374-13.872-.9-9.4,7.191-70.767,7.983-74.492s-1.562-1.928-3.547-5.267.842-7.556,5.966-7.191c3.6.256,4.767,1.359,5.266,5.136s-3.98,5.525-3.466,6.808c.116.293.54,3.989,1.129,9.592,2,19,5.894,59.893,6.19,64.259.284,4.149-4,10.3-7.267,13.282" transform="translate(0 248)" fill="#7f7faa"/>
    <path id="Path_1792" data-name="Path 1792" d="M219.019,294.605c-3.9-11.116-1.234-55.227,1.077-77.541,2,19,5.894,59.893,6.19,64.259.284,4.149-4,10.3-7.267,13.282" transform="translate(0 248)" fill="#bdbde0"/>
    <path id="Path_1793" data-name="Path 1793" d="M184.639,97.307c-9.334,3.4-24.077,9.585-30.731,13.036q-.542.277-1.008.534c-6,3.287-11.408,6.768-17.033,2.41-.215-.168-.431-.349-.649-.539-.3-.269.017-.74.83-1.367,2.327-1.8,8.687-4.88,15.962-8.12,9.567-4.259,20.717-8.795,26.354-11.06a40.857,40.857,0,0,1,6.275,5.106" transform="translate(0 248)" fill="#dadaef"/>
    <path id="Path_1794" data-name="Path 1794" d="M135.055,140.9c4.584-.527,8.928-1.128,12.943-1.806-.2.161-.4.321-.6.484-.436.354-.872.71-1.314,1.066-3.385,2.736-6.871,5.462-10.4,8.128-3.017,2.28-6.071,4.519-9.121,6.683l-.158.113c-.331.233-.664.467-1,.7-.053.038-.108.073-.16.111-.271.185-.542.368-.816.551-.158.108-.316.213-.476.316-.1.071-.2.138-.306.2-.165.108-.331.219-.5.324q-.48.312-.965.619l-.143.091c-.191.12-.384.24-.577.358s-.414.256-.619.381l-.5.3-.338.2c-.158.1-.319.19-.477.283-.027.017-.057.035-.085.05q-.4.237-.8.467l-.446.255c-.188.108-.376.216-.564.321-.06.035-.118.068-.178.1-.241.135-.482.27-.725.4-.213.118-.426.236-.639.351l-.369.2c-.213.115-.426.228-.64.341-.351.188-.7.371-1.05.557-.093.045-.183.093-.274.14-.14.071-.281.143-.421.216l-.356.181-.173.087c-.1.053-.2.1-.3.153-.188.1-.373.188-.561.281-.068.035-.138.068-.206.1l-.11.053-.008.005-.587.286a.559.559,0,0,1-.065.032l-.669.324c-.061.027-.121.057-.181.085-.306.145-.609.291-.915.434-.394.183-.788.366-1.182.546-.052.026-.1.048-.153.071-.519.235-1.04.471-1.562.7q-1.188.526-2.385,1.029c-.514.215-1.025.428-1.54.639h0c-.213.088-.426.176-.642.261q-1.287.519-2.576,1.013c-.747.288-1.5.569-2.244.843-.188.067-.376.138-.564.205l-.687.249c-.231.082-.459.165-.688.245l-.963.339q-2.605.906-5.181,1.72l-.674.211c-.244.078-.487.153-.733.228l-.614.188c-.351.108-.7.213-1.051.319q-1.248.372-2.487.727-.618.177-1.232.346c-.406.115-.815.228-1.221.339l-1.211.326-.692.183-.64.168c-.64.165-1.271.328-1.9.486-.208.053-.419.106-.627.156q-1.9.474-3.729.892l-.562.128c-.225.053-.451.1-.677.156q-.395.09-.782.175c-.249.053-.494.108-.74.161-.181.04-.361.08-.542.118q-.944.2-1.866.4-.282.06-.556.115-1.14.234-2.235.447c-.3.057-.594.115-.885.173q-1.509.285-2.914.539c-.15.028-.3.053-.451.08q-1.118.2-2.162.371c-.416.071-.825.138-1.224.2-1.858.3-3.506.545-4.9.738l-.564.077c-.1.016-.2.028-.3.041-.216.03-.422.057-.622.082-.4.053-.77.1-1.111.141-.123.015-.244.03-.356.042-.294.038-.56.068-.8.1-.055.007-.11.012-.16.017-.838.1-1.284.138-1.284.138-4.063-20.5-4.108-29.461-8.434-38.973-.539-1.189-1.146-2.385-1.836-3.614,5.716,1.048,12.148,1.866,19.029,2.465a429.5,429.5,0,0,0,79.954-1.274" transform="translate(0 248)" fill="#dadaef"/>
    <path id="Path_1795" data-name="Path 1795" d="M270.551,315.1c-14.7,13.612-78.038,16.654-103.161.938,83.59-19.089,114.291-75.648,125.109-146.671,2.3-.587,4.381-1.2,6.237-1.838,6.545-2.25,10.242-4.805,10.242-7.516a3.351,3.351,0,0,0-.509-1.728c-.025-.048-.055-.1-.085-.145.042.045.082.087.12.132a1.858,1.858,0,0,1,.474,1.011c7.3,67.189-22.3,140.881-38.427,155.817" transform="translate(0 248)" fill="#dadaef"/>
    <path id="Path_1796" data-name="Path 1796" d="M217.351,149.328c21.881,0,42.957,1.423,59.345,4.006,14.987,2.363,21.741,4.969,24.641,6.514-2.9,1.546-9.654,4.151-24.641,6.514-16.388,2.583-37.464,4.006-59.345,4.006s-42.957-1.423-59.345-4.006c-14.987-2.363-21.741-4.968-24.641-6.514,2.9-1.545,9.654-4.151,24.641-6.514,16.388-2.583,37.464-4.006,59.345-4.006m0-6c-50.6,0-91.63,7.4-91.63,16.52s41.03,16.52,91.63,16.52,91.63-7.4,91.63-16.52-41.03-16.52-91.63-16.52" transform="translate(0 248)" fill="#bdbde0"/>
  </g>
</svg>
