<svg xmlns="http://www.w3.org/2000/svg" xmlns:xlink="http://www.w3.org/1999/xlink" width="52" height="52" viewBox="0 0 52 52">
  <defs>
    <clipPath id="clip-path">
      <rect id="Rectangle_2504" data-name="Rectangle 2504" width="28" height="28" fill="#282846" stroke="#282844" stroke-width="0.25"/>
    </clipPath>
  </defs>
  <g id="Group_4127" data-name="Group 4127" transform="translate(-85.448)">
    <rect id="Rectangle_2503" data-name="Rectangle 2503" width="52" height="52" rx="10" transform="translate(85.448)" fill="#e5e5f5"/>
    <g id="Mask_Group_47" data-name="Mask Group 47" transform="translate(97.449 12)" clip-path="url(#clip-path)">
      <path id="__TEMP__SVG__" d="M30.787,11.129a1.344,1.344,0,0,0-.041-.3c-.01-.035-.03-.069-.042-.1a1.45,1.45,0,0,0-.1-.231,1.072,1.072,0,0,0-.08-.1,1.364,1.364,0,0,0-.143-.182c-.033-.031-.075-.056-.109-.085a1.307,1.307,0,0,0-.168-.132c-.006,0-.012,0-.02-.008l-.011-.008L17.506,2.99a1.4,1.4,0,0,0-1.358,0L3.519,9.974a.059.059,0,0,1-.016.014l-.014.006c-.049.028-.085.069-.132.1a1.5,1.5,0,0,0-.148.115,1.263,1.263,0,0,0-.11.143,1.243,1.243,0,0,0-.11.146,1.285,1.285,0,0,0-.082.2.916.916,0,0,0-.057.14,1.364,1.364,0,0,0-.041.294c0,.024-.01.045-.01.07V22.4a1.4,1.4,0,0,0,.72,1.223L16.087,30.6l0,0,0,0,.028.016a1.431,1.431,0,0,0,.189.076,1.15,1.15,0,0,0,.136.054,1.418,1.418,0,0,0,.708,0,1.378,1.378,0,0,0,.136-.054,1.313,1.313,0,0,0,.189-.076l.028-.016,0,0,0,0L30.08,23.621A1.4,1.4,0,0,0,30.8,22.4V11.2c0-.024-.008-.043-.01-.067Zm-14.028,5.49L7.08,11.206l3.866-2.139,9.567,5.466-3.754,2.086Zm.067-10.806L26.514,11.2l-3.141,1.746L13.812,7.482l3.013-1.668ZM18.2,27.018l0-7.949,4.2-2.349V21l2.8-1.4V15.154L28,13.587v7.987l-9.8,5.445Z" transform="translate(-2.799 -2.805)" fill="#282846"/>
    </g>
  </g>
</svg>
