<svg xmlns="http://www.w3.org/2000/svg" xmlns:xlink="http://www.w3.org/1999/xlink" width="18" height="18" viewBox="0 0 18 18"><defs><clipPath id="a"><rect width="18" height="18" transform="translate(1366.425)" fill="#7f7faa"/></clipPath></defs><g transform="translate(-1366.425)" clip-path="url(#a)"><g transform="translate(1367.306 0.882)"><path d="M9.7,1.763A7.936,7.936,0,1,1,1.763,9.7,7.945,7.945,0,0,1,9.7,1.763Zm0,14.108A6.172,6.172,0,1,0,3.527,9.7,6.179,6.179,0,0,0,9.7,15.871Z" transform="translate(-2.645 -2.645)" fill="#7f7fa7"/><path d="M18.517,19.4a.879.879,0,0,1-.623-.258L14.057,15.3A.882.882,0,1,1,15.3,14.057l3.836,3.836a.882.882,0,0,1-.623,1.505Z" transform="translate(-2.645 -2.645)" fill="#7f7fa7"/></g></g></svg>