<svg width="20" height="20" viewBox="0 0 20 20" fill="none" xmlns="http://www.w3.org/2000/svg">
<path d="M10 5.36663V8.14163M10.0167 1.66663C6.95001 1.66663 4.46667 4.14996 4.46667 7.21663V8.96663C4.46667 9.53329 4.23334 10.3833 3.94167 10.8666L2.88334 12.6333C2.23334 13.725 2.68334 14.9416 3.88334 15.3416C7.86774 16.6666 12.1739 16.6666 16.1583 15.3416C16.4212 15.2539 16.6611 15.1083 16.8602 14.9154C17.0592 14.7226 17.2124 14.4875 17.3084 14.2275C17.4044 13.9675 17.4408 13.6892 17.4148 13.4133C17.3888 13.1374 17.3012 12.8708 17.1583 12.6333L16.1 10.8666C15.8083 10.3833 15.575 9.52496 15.575 8.96663V7.21663C15.5667 4.16663 13.0667 1.66663 10.0167 1.66663Z" stroke="#9F9F9F" stroke-width="1.5" stroke-miterlimit="10" stroke-linecap="round"/>
<path d="M12.775 16.25C12.775 17.775 11.525 19.025 10 19.025C9.24167 19.025 8.54167 18.7083 8.04167 18.2083C7.54167 17.7083 7.22501 17.0083 7.22501 16.25" fill="#9F9F9F"/>
</svg>
