<svg width="73" height="24" viewBox="0 0 73 24" fill="none" xmlns="http://www.w3.org/2000/svg">
<path d="M0 12.0006C0 5.12916 5.29653 0 12.5027 0C19.6426 0 24.9391 5.09545 24.9391 12.0006C24.9391 18.9057 19.6438 24 12.5027 24C5.29653 24 0 18.872 0 12.0006ZM21.5859 12.0006C21.5859 6.80517 17.6981 2.98358 12.5027 2.98358C7.23987 2.98358 3.35203 6.80517 3.35203 12.0006C3.35203 17.196 7.23987 21.0129 12.5027 21.0129C17.6981 21.0129 21.5871 17.196 21.5871 12.0006H21.5859Z" fill="#FFF300"/>
<path d="M27.3858 0.268433H37.278C44.8189 0.268433 49.9469 5.0338 49.9469 12.0005C49.9469 18.9673 44.8154 23.7315 37.278 23.7315H27.3858V0.268433ZM37.0734 20.8153C42.8721 20.8153 46.5925 17.2622 46.5925 12.0005C46.5925 6.73887 42.8732 3.1846 37.0734 3.1846H30.7378V20.8153H37.0734Z" fill="#FFF300"/>
<path d="M72.5696 0.268433V23.7315H69.822L55.7432 6.23444V23.7315H52.3877V0.268433H55.1365L69.2176 17.7655V0.268433H72.5696Z" fill="#FFF300"/>
</svg>
