<svg xmlns="http://www.w3.org/2000/svg" width="18.182" height="20" viewBox="0 0 18.182 20">
  <g id="Group_5316" data-name="Group 5316" transform="translate(7674.091 4708)">
    <path id="Path_2008" data-name="Path 2008" d="M5.455,5.455a.909.909,0,0,1,.909-.909h9.091a.909.909,0,0,1,0,1.818H6.364A.909.909,0,0,1,5.455,5.455Z" transform="translate(-7675.909 -4708.909)" fill="#7f7faa"/>
    <path id="Path_2009" data-name="Path 2009" d="M5.455,9.091a.909.909,0,0,1,.909-.909h9.091a.909.909,0,0,1,0,1.818H6.364A.909.909,0,0,1,5.455,9.091Z" transform="translate(-7675.909 -4708.909)" fill="#7f7faa"/>
    <path id="Path_2010" data-name="Path 2010" d="M6.364,11.818a.909.909,0,0,0,0,1.818h9.091a.909.909,0,0,0,0-1.818Z" transform="translate(-7675.909 -4708.909)" fill="#7f7faa"/>
    <path id="Path_2011" data-name="Path 2011" d="M5.455,16.364a.909.909,0,0,1,.909-.909H10a.909.909,0,1,1,0,1.818H6.364A.909.909,0,0,1,5.455,16.364Z" transform="translate(-7675.909 -4708.909)" fill="#7f7faa"/>
    <path id="Path_2012" data-name="Path 2012" d="M1.818,3.636A2.727,2.727,0,0,1,4.545.909H17.273A2.727,2.727,0,0,1,20,3.636V18.182a2.727,2.727,0,0,1-2.727,2.727H4.545a2.727,2.727,0,0,1-2.727-2.727Zm2.727-.909H17.273a.909.909,0,0,1,.909.909V18.182a.909.909,0,0,1-.909.909H4.545a.909.909,0,0,1-.909-.909V3.636a.909.909,0,0,1,.909-.909Z" transform="translate(-7675.909 -4708.909)" fill="#7f7faa" fill-rule="evenodd"/>
  </g>
</svg>
