<svg xmlns="http://www.w3.org/2000/svg" width="20" height="20" viewBox="0 0 20 20">
  <path id="__TEMP__SVG__" d="M4.444,14.444h6.667a1.111,1.111,0,0,0,1.111-1.111V4.444a1.111,1.111,0,0,0-1.111-1.111H4.444A1.111,1.111,0,0,0,3.333,4.444v8.889A1.111,1.111,0,0,0,4.444,14.444ZM3.333,22.222a1.111,1.111,0,0,0,1.111,1.111h6.667a1.111,1.111,0,0,0,1.111-1.111V17.778a1.111,1.111,0,0,0-1.111-1.111H4.444a1.111,1.111,0,0,0-1.111,1.111Zm11.111,0a1.111,1.111,0,0,0,1.111,1.111h6.667a1.111,1.111,0,0,0,1.111-1.111V14.444a1.111,1.111,0,0,0-1.111-1.111H15.556a1.111,1.111,0,0,0-1.111,1.111Zm1.111-11.111h6.667A1.111,1.111,0,0,0,23.333,10V4.444a1.111,1.111,0,0,0-1.111-1.111H15.556a1.111,1.111,0,0,0-1.111,1.111V10A1.111,1.111,0,0,0,15.556,11.111Z" transform="translate(-3.333 -3.333)" fill="#7f7faa"/>
</svg>
