<svg xmlns="http://www.w3.org/2000/svg" xmlns:xlink="http://www.w3.org/1999/xlink" width="20" height="20" viewBox="0 0 20 20">
  <defs>
    <clipPath id="clip-path">
      <rect id="Rectangle_2504" data-name="Rectangle 2504" width="20" height="20" fill="#7f7faa"/>
    </clipPath>
  </defs>
  <g id="Mask_Group_57" data-name="Mask Group 57" clip-path="url(#clip-path)">
    <g id="__TEMP__SVG__" transform="translate(0.4 0)">
      <path id="Path_2025" data-name="Path 2025" d="M10.817,20.6a1.6,1.6,0,0,0,1.55-1.37H9.207a1.6,1.6,0,0,0,1.611,1.37Z" transform="translate(-1.833 -0.601)" fill="#7f7faa"/>
      <path id="Path_2026" data-name="Path 2026" d="M19.741,16.9l-.2-.18a8.636,8.636,0,0,1-1.508-1.761,7.59,7.59,0,0,1-.811-2.891V9.1a6.562,6.562,0,0,0-.1-1.076,4.507,4.507,0,0,1-3.6-4.423V3.227a6.352,6.352,0,0,0-2-.6V1.869a.8.8,0,1,0-1.6,0v.787A6.5,6.5,0,0,0,4.333,9.1v2.969a7.59,7.59,0,0,1-.811,2.891,8.654,8.654,0,0,1-1.484,1.761l-.2.18V18.6H19.741Z" transform="translate(-1.833 -0.601)" fill="#7f7faa"/>
      <path id="Path_2027" data-name="Path 2027" d="M21.033,3.606a3,3,0,1,1-3-3,3,3,0,0,1,3,3Z" transform="translate(-1.833 -0.601)" fill="#7f7faa"/>
    </g>
  </g>
</svg>
