<svg xmlns="http://www.w3.org/2000/svg" width="19.98" height="20" viewBox="0 0 19.98 20">
  <path id="__TEMP__SVG__" d="M21.713,10.48,19.48,9.813a7.766,7.766,0,0,0-.633-1.553L19.94,6.213a.407.407,0,0,0-.073-.48l-1.593-1.6a.407.407,0,0,0-.48-.073L15.76,5.147a7.747,7.747,0,0,0-1.573-.667L13.52,2.273A.407.407,0,0,0,13.127,2H10.873a.407.407,0,0,0-.387.287l-.667,2.2a7.753,7.753,0,0,0-1.587.667l-2-1.08a.407.407,0,0,0-.48.073l-1.62,1.58a.407.407,0,0,0-.073.48l1.08,2a7.753,7.753,0,0,0-.667,1.58l-2.207.667a.407.407,0,0,0-.287.387v2.253a.407.407,0,0,0,.287.387l2.22.667A7.747,7.747,0,0,0,5.153,15.7L4.06,17.793a.407.407,0,0,0,.073.48l1.593,1.593a.407.407,0,0,0,.48.073l2.06-1.1a7.767,7.767,0,0,0,1.533.627l.667,2.247a.407.407,0,0,0,.387.287h2.253a.407.407,0,0,0,.387-.287l.667-2.253a7.753,7.753,0,0,0,1.52-.627l2.073,1.107a.407.407,0,0,0,.48-.073l1.593-1.593a.407.407,0,0,0,.073-.48l-1.107-2.067a7.753,7.753,0,0,0,.633-1.527l2.247-.667a.407.407,0,0,0,.287-.387V10.873a.407.407,0,0,0-.247-.393ZM12,15.667A3.667,3.667,0,1,1,15.667,12,3.667,3.667,0,0,1,12,15.667Z" transform="translate(-1.98 -2)" fill="#7f7faa"/>
</svg>
