<svg xmlns="http://www.w3.org/2000/svg" width="18.461" height="20" viewBox="0 0 18.461 20">
  <path id="__TEMP__SVG__" d="M18.462,10.769a8.979,8.979,0,0,1-.733,3.582,9.121,9.121,0,0,1-4.916,4.916,9.113,9.113,0,0,1-7.163,0A9.121,9.121,0,0,1,.734,14.351,8.986,8.986,0,0,1,0,10.769,9.143,9.143,0,0,1,3.69,3.4a1.52,1.52,0,0,1,1.148-.3,1.418,1.418,0,0,1,1,.6,1.463,1.463,0,0,1,.294,1.136,1.5,1.5,0,0,1-.594,1.016A6.14,6.14,0,0,0,3.72,8.029a6.127,6.127,0,0,0-.157,5.126,6.1,6.1,0,0,0,3.282,3.281,6.087,6.087,0,0,0,4.771,0A6.1,6.1,0,0,0,14.9,13.155a6.129,6.129,0,0,0-.156-5.126,6.133,6.133,0,0,0-1.821-2.176,1.5,1.5,0,0,1-.595-1.016A1.464,1.464,0,0,1,12.62,3.7a1.426,1.426,0,0,1,1.009-.6,1.49,1.49,0,0,1,1.142.3,9.143,9.143,0,0,1,3.69,7.368ZM10.769,1.538V9.231a1.53,1.53,0,0,1-2.62,1.082,1.478,1.478,0,0,1-.457-1.082V1.538A1.478,1.478,0,0,1,8.149.457a1.509,1.509,0,0,1,2.163,0A1.478,1.478,0,0,1,10.769,1.538Z" fill="#ff6961"/>
</svg>
