<svg xmlns="http://www.w3.org/2000/svg" xmlns:xlink="http://www.w3.org/1999/xlink" width="13" height="13" viewBox="0 0 13 13"><defs><clipPath id="a"><rect width="13" height="13" transform="translate(172 1017)" fill="#2a52be"/></clipPath></defs><g transform="translate(-172 -1017)" clip-path="url(#a)"><g transform="translate(171.305 1016.222)"><path d="M13.59,7.086A7.3,7.3,0,0,0,7.2,3.044,7.279,7.279,0,0,0,.808,7.086L.7,7.276.8,7.47A7.3,7.3,0,0,0,7.2,11.512,7.262,7.262,0,0,0,13.59,7.47l.105-.194ZM7.2,10.684A6.43,6.43,0,0,1,1.617,7.276,6.43,6.43,0,0,1,7.2,3.868,6.456,6.456,0,0,1,12.77,7.276,6.453,6.453,0,0,1,7.2,10.684Z" fill="#2a52be"/><path d="M7.313,4.515a2.773,2.773,0,1,0,1.97.8,2.773,2.773,0,0,0-1.97-.8Zm0,4.738a1.969,1.969,0,1,1,1.405-.574,1.965,1.965,0,0,1-1.405.574Z" fill="#2a52be"/></g></g></svg>