<svg xmlns="http://www.w3.org/2000/svg" xmlns:xlink="http://www.w3.org/1999/xlink" width="13" height="13" viewBox="0 0 13 13"><defs><clipPath id="a"><rect width="13" height="13" transform="translate(172 1017)" fill="#ff6961"/></clipPath></defs><g transform="translate(-172 -1017)" clip-path="url(#a)"><g transform="translate(171.039 1016.217)"><path d="M10.17,8.236a2.737,2.737,0,0,0,.174-.969A2.77,2.77,0,0,0,7.574,4.5a2.741,2.741,0,0,0-.957.174l.65.67a1.93,1.93,0,0,1,.3-.024,1.966,1.966,0,0,1,1.97,1.95,1.934,1.934,0,0,1-.024.3Z" fill="#ff6961"/><path d="M13.844,7.077A7.3,7.3,0,0,0,7.457,3.04a6.791,6.791,0,0,0-2.116.343l.65.654a5.967,5.967,0,0,1,1.466-.19,6.446,6.446,0,0,1,5.571,3.4A7.166,7.166,0,0,1,11.264,9.31l.573.573a8.046,8.046,0,0,0,2.019-2.422l.1-.194Z" fill="#ff6961"/><path d="M1.966,2.334l1.8,1.8a7.881,7.881,0,0,0-2.7,2.943l-.1.19.1.194A7.3,7.3,0,0,0,7.453,11.5a6.834,6.834,0,0,0,2.974-.682l2.02,2.018.707-.606-10.5-10.5ZM5.9,6.27,8.587,8.955a1.942,1.942,0,0,1-1.009.291A1.966,1.966,0,0,1,5.612,7.267a1.942,1.942,0,0,1,.291-1Zm-.585-.585A2.766,2.766,0,0,0,9.173,9.54l.646.646a6.02,6.02,0,0,1-2.366.484,6.446,6.446,0,0,1-5.571-3.4A6.98,6.98,0,0,1,4.352,4.724Z" fill="#ff6961"/></g></g></svg>