<svg id="Group_5296" data-name="Group 5296" xmlns="http://www.w3.org/2000/svg" xmlns:xlink="http://www.w3.org/1999/xlink" width="375.209" height="366.991" viewBox="0 0 375.209 366.991">
  <defs>
    <clipPath id="clip-path">
      <rect id="Rectangle_2711" data-name="Rectangle 2711" width="375.209" height="366.991" fill="none"/>
    </clipPath>
    <clipPath id="clip-path-3">
      <rect id="Rectangle_2702" data-name="Rectangle 2702" width="35.22" height="65.601" fill="none"/>
    </clipPath>
    <clipPath id="clip-path-4">
      <rect id="Rectangle_2703" data-name="Rectangle 2703" width="49.395" height="9.668" fill="none"/>
    </clipPath>
    <clipPath id="clip-path-5">
      <rect id="Rectangle_2704" data-name="Rectangle 2704" width="56.369" height="29.083" fill="none"/>
    </clipPath>
    <clipPath id="clip-path-6">
      <rect id="Rectangle_2705" data-name="Rectangle 2705" width="57.268" height="27.654" fill="none"/>
    </clipPath>
    <clipPath id="clip-path-7">
      <rect id="Rectangle_2706" data-name="Rectangle 2706" width="16.614" height="12.428" fill="none"/>
    </clipPath>
    <clipPath id="clip-path-8">
      <path id="Path_2120" data-name="Path 2120" d="M512.534,261.184a9.713,9.713,0,0,0,8.786-4.079,1.525,1.525,0,0,0-1.093-.327c-2.494,0-7.659,2.659-7.693,4.406" transform="translate(-512.534 -256.778)" fill="none"/>
    </clipPath>
    <radialGradient id="radial-gradient" cx="0.178" cy="0.022" r="2.433" gradientTransform="matrix(0.523, 0, 0, -1, -14.915, 99.926)" gradientUnits="objectBoundingBox">
      <stop offset="0" stop-color="#7c0073"/>
      <stop offset="1" stop-color="#394b9a"/>
    </radialGradient>
    <clipPath id="clip-path-10">
      <rect id="Rectangle_2709" data-name="Rectangle 2709" width="20.697" height="30.865" fill="none"/>
    </clipPath>
  </defs>
  <g id="Group_5295" data-name="Group 5295" clip-path="url(#clip-path)">
    <g id="Group_5287" data-name="Group 5287">
      <g id="Group_5286" data-name="Group 5286" clip-path="url(#clip-path)">
        <path id="Path_2097" data-name="Path 2097" d="M36.2,633.233c-.925,7.055-1.754,15.472-2.079,17.947s-4.8,1.794-4.689.224,1.44-16.632,1.529-18.018,5.53-2.371,5.239-.152" transform="translate(-13.666 -293.423)" fill="#f99f87"/>
        <path id="Path_2098" data-name="Path 2098" d="M24.969,669.983c1.914-3.33.425-5.351,3.636-5.405,3.76-.064,3.137,1.3,3.283,3.948s1.526,3.533,1.392,5.816-9,1.033-9.506-.8.6-2.527,1.2-3.557" transform="translate(-10.979 -308.584)" fill="#4d4052"/>
        <path id="Path_2099" data-name="Path 2099" d="M120.853,635.527c1.33,7.222,2.911,15.81,3.378,18.342s-4.147,3.285-4.534,1.708-3.588-16.849-3.94-18.238,4.679-4.083,5.1-1.812" transform="translate(-53.741 -294.688)" fill="#f99f87"/>
        <path id="Path_2100" data-name="Path 2100" d="M124.829,672.224c-7.259.474-4.045-.85-4.357-4.935-.162-2.123.155-4.186,1.467-4.634.432-.147,2.789-.7,3.583.6.385.627.5,1.032,1.146,2.08.628,1.024.885,1.5,3.522,1.845,3.681.482,4.889,2.247,2.841,3.674s-3.475,1.066-8.2,1.374" transform="translate(-55.732 -307.58)" fill="#4d4052"/>
        <path id="Path_2101" data-name="Path 2101" d="M13.971,390.77c.424,5.518,4.162,134.747,4.162,139.841s14.644,5.518,15.493,1.273,11.859-98.341,12.5-100.649S63.764,529.02,65.2,532.362s14.644,1.273,14.644-1.592-5.17-138.886-5.17-140.8-60.7.8-60.7.8" transform="translate(-6.487 -180.761)" fill="#007580"/>
        <path id="Path_2102" data-name="Path 2102" d="M611.2,633.27c-1.034,5.616-2.264,17.681-2.626,19.65s3.225,2.555,3.526,1.328,2.79-13.1,3.064-14.181-3.638-8.563-3.963-6.8" transform="translate(-282.568 -293.923)" fill="#f99f87"/>
        <path id="Path_2103" data-name="Path 2103" d="M604.419,671.5c5.645.368,3.145-.661,3.388-3.837.126-1.651-.121-3.255-1.141-3.6-.336-.115-2.168-.543-2.785.462-.3.488-.392.8-.892,1.617-.488.8-.688,1.167-2.738,1.436-2.862.374-3.8,1.746-2.209,2.857s2.7.829,6.377,1.068" transform="translate(-277.332 -308.259)" fill="#4d4052"/>
        <path id="Path_2104" data-name="Path 2104" d="M679.8,634.4c1.715,5.447,3.755,17.31,4.357,19.22s4.045.748,3.737-.477-3.669-18.27-3.932-19.354-4.7-1.1-4.162.611" transform="translate(-315.634 -293.937)" fill="#f99f87"/>
        <path id="Path_2105" data-name="Path 2105" d="M687.02,670.9c5.16-2.317,2.47-2.056,1.2-4.976-.661-1.518-1.631-2.82-2.695-2.65-.351.056-2.17.536-2.245,1.713-.036.571.029.893-.031,1.846-.058.932-.062,1.354-1.748,2.55-2.354,1.671-2.542,3.323-.614,3.558s2.775-.533,6.135-2.042" transform="translate(-315.548 -307.973)" fill="#4d4052"/>
        <path id="Path_2106" data-name="Path 2106" d="M642.458,429.31c1.778,4.444-.19,35.361.551,50.472s10.288,68.562,10.806,70.784-5.975,3-6.568,1.961-14.172-35.959-19.11-49.786-13.888-60.459-14.617-71.9c-.129-2.031,27.16-5.975,28.938-1.531m-2.864,3.111c-.988,2.173-11.061,53.925-12.049,59.851S615.593,547.687,615,550.65s-7.21,1.284-7.407-.889-.427-43.955-.229-57.387-.187-56.744.427-62.916c.452-4.539,32.789.79,31.8,2.963" transform="translate(-281.984 -198.4)" fill="#282846"/>
        <g id="Group_5273" data-name="Group 5273" transform="translate(325.804 229.386)" style="mix-blend-mode: multiply;isolation: isolate">
          <g id="Group_5272" data-name="Group 5272">
            <g id="Group_5271" data-name="Group 5271" clip-path="url(#clip-path-3)">
              <path id="Path_2107" data-name="Path 2107" d="M643.034,431.413l-14.909-2.052-.031,0-15.922-1.132a.484.484,0,0,0-.079,0c-2.284.206-3.774.722-3.869,1.67a5.952,5.952,0,0,0,.993,2.216,8.414,8.414,0,0,0,6.163,4.4,122.9,122.9,0,0,0,22.16,1.236,6.119,6.119,0,0,0,5.616-4.312,4.622,4.622,0,0,0,.281-1.6.462.462,0,0,0-.4-.422m-15.027,62.251a.468.468,0,0,0,.813-.222c1.114-5.995,7.137-38.6,8.123-47.739,1.086-10.074,1.53-18.173.642-11.16-.855,6.747-9.067,55.086-9.687,58.736a.466.466,0,0,0,.109.386" transform="translate(-608.221 -428.225)" fill="#ccc"/>
            </g>
          </g>
        </g>
        <g id="Group_5276" data-name="Group 5276" transform="translate(14.937 209.77)" style="mix-blend-mode: multiply;isolation: isolate">
          <g id="Group_5275" data-name="Group 5275">
            <g id="Group_5274" data-name="Group 5274" clip-path="url(#clip-path-4)">
              <path id="Path_2108" data-name="Path 2108" d="M74.677,399.751a3.07,3.07,0,0,0,2.6-3.149c-.1-2.547-.155-4.056-.155-4.254,0-1.62-35.525-.16-46.314.321a3.058,3.058,0,0,0-2.92,3.185l0,.07a3.064,3.064,0,0,0,2.518,2.889c11.03,1.976,25.48,3.889,44.269.938" transform="translate(-27.884 -391.605)" fill="#ccc"/>
            </g>
          </g>
        </g>
        <path id="Path_2109" data-name="Path 2109" d="M63.193,182.485c9.419,2.188,27.164,38,29.141,39.383s12.563-29.262,13.094-30.748,13.53,3.1,12.894,5.333-12.442,50.565-14.353,52.369-22.285-1.379-37.354-20.8ZM5.915,247.124c-.05-16.768-2.188-61.6,12.855-67.2,6.34-2.36,13.231-4.095,20.271-3.948,11.734.245,22.864,4.838,27.573,8.22,7.534,5.412,2.918,17.828,1.645,50.937s2.386,53.287,2.227,57.107-9.338,5.772-31.3,5.772S2.837,296.219,2.359,292.24s3.609-27.395,3.556-45.116M35.31,257.417c-4.774.106-33.925-32.611-35.016-43.345-1.99-19.579,6.022-34.011,26.874-36.5,0,0-8.2,23.926-2.789,29.337s14.043,23.983,15.989,26.317,44.075-25.362,44.817-25.786,8.278,10.171,7,11.134-52.1,38.741-56.879,38.847" transform="translate(0 -81.707)" fill="#282846"/>
        <g id="Group_5279" data-name="Group 5279" transform="translate(22.77 122.592)" style="mix-blend-mode: multiply;isolation: isolate">
          <g id="Group_5278" data-name="Group 5278">
            <g id="Group_5277" data-name="Group 5277" clip-path="url(#clip-path-5)">
              <path id="Path_2110" data-name="Path 2110" d="M98.839,235.61a.256.256,0,0,0-.359-.085c-4.458,2.885-18.308,11.772-23.054,14.328-5.173,2.786-14.724,7.641-15.2,7.163s-4.377-7.64-6.367-11.54-7.242-12.385-8.675-13.992c-1.168-1.31-2.706-3.408-2.674-2.325a9.365,9.365,0,0,0,1.61,2.305c5.412,5.412,14.043,23.983,15.988,26.317,1.752,2.1,31.389-17.123,38.654-21.822a.256.256,0,0,0,.081-.346l0,0" transform="translate(-42.508 -228.858)" fill="#ccc"/>
            </g>
          </g>
        </g>
        <path id="Path_2111" data-name="Path 2111" d="M561.3,216.573c-1.58-.189-46.567-44.81-48.937-46.785s3.061-8.2,6.321-5.926,39,37.273,50,27.126c1.011-.933-5.8,25.775-7.383,25.586" transform="translate(-237.636 -75.858)" fill="#282846"/>
        <path id="Path_2112" data-name="Path 2112" d="M600.268,244.08c-1.759-22.321-3.1-19.728.181-24.469,4.62-6.667,18.793-13.672,24.945-3.2,5.383,9.165,7.088,37.589,11.632,58.527s13.993,45.731,15.771,53.632-43.234,5.776-50.141,3.65-4.543-3.358-3.358-12.444,4.661-30.752,3.74-38.464c-.79-6.617-1.01-14.914-2.769-37.234" transform="translate(-277.639 -98.003)" fill="#007580"/>
        <g id="Group_5282" data-name="Group 5282" transform="translate(9.329 151.019)" style="mix-blend-mode: multiply;isolation: isolate">
          <g id="Group_5281" data-name="Group 5281">
            <g id="Group_5280" data-name="Group 5280" clip-path="url(#clip-path-6)">
              <path id="Path_2113" data-name="Path 2113" d="M17.417,283.2c0,.018,0,.035,0,.054a1.294,1.294,0,0,0,.275.824c2.193,2.8,16.39,20.827,20.165,23.229,4.669,2.971,4.669,3.077,10.612,0,4.884-2.529,18.993-12.628,25.659-17.282a1.309,1.309,0,1,0-1.513-2.137c-13.625,9.714-26.769,18.671-29.216,18.725-3.055.068-17.945-17.363-23.684-24.224a1.3,1.3,0,0,0-2.3.811" transform="translate(-17.416 -281.926)" fill="#ccc"/>
            </g>
          </g>
        </g>
        <g id="Group_5285" data-name="Group 5285" transform="translate(72.96 139.065)" style="mix-blend-mode: multiply;isolation: isolate">
          <g id="Group_5284" data-name="Group 5284">
            <g id="Group_5283" data-name="Group 5283" clip-path="url(#clip-path-7)">
              <path id="Path_2114" data-name="Path 2114" d="M136.795,271.995c5.29-3.616,13.471-9.724,15.937-11.929a.258.258,0,0,0,.048-.326l0,0a.254.254,0,0,0-.371-.074c-3.048,2.259-7.869,5.79-16.1,11.716a.259.259,0,0,0-.035.391c.064.066.129.132.2.2a.255.255,0,0,0,.322.028" transform="translate(-136.203 -259.611)" fill="#ccc"/>
            </g>
          </g>
        </g>
        <path id="Path_2115" data-name="Path 2115" d="M597.759,157.8c-.435,10.658,1.278,19.658,2.5,21.708s11.894,1.385,14.379-2.308a13.644,13.644,0,0,0,2.646-5.985c.6-4.289-.253-10.091-1.806-14.961-2.532-7.941-17.551-2.46-17.715,1.545m20.6,27.705a54.9,54.9,0,0,1-4.367-14.545c-.35-3.652-10-1.8-8.816,1.455s2.189,12.543,1.839,15.707c-.062.565,3.281.726,6.2.069s5.411-2.134,5.145-2.686" transform="translate(-277.527 -70.671)" fill="#f99f87"/>
        <path id="Path_2116" data-name="Path 2116" d="M607.912,166.621c-.2-1.265,6.183,2.386,3.862-2.755-1.037-2.3-5.93-4.465-11.719-3.26s-9.836-2.054-7.994-7.24c2.38-6.7,19.414-8.766,26.16-2.224,9.676,9.382,4.983,23.179,1.43,27.415-7.824,9.324-11.558-10.774-11.738-11.936" transform="translate(-274.704 -68.331)" fill="#282846"/>
        <path id="Path_2117" data-name="Path 2117" d="M57.636,104.379c-1.21,6.132-1.44,13.3-.117,18.427a16.686,16.686,0,0,0,4.046,6.9c3.531,4.141,16.594,3.467,17.789.807s2.027-13.832.019-26.721c-.755-4.844-19.763-9.418-21.737.582m6.972,39.571c5.014.525,10.555-.093,10.325-.837-1.289-4.177-1.69-16.685-.431-21.16s-15.259-5.79-15.03-.879-1.736,14.379-4.046,19.915c-.321.769,4.167,2.437,9.181,2.962" transform="translate(-25.729 -45.702)" fill="#f99f87"/>
        <path id="Path_2118" data-name="Path 2118" d="M62.21,113.093c.062-1.564-.11-6.148,1.058-7.463s2.968,1.919,10.168,2.579,9.607-3.236,8.707-9.906-21.692-7.4-26.205-.626,3.007,30.176,1.747,23.534c-1.716-9.047.475-15.162,2.2-9.753,1.453,4.547,2.263,3.072,2.32,1.635" transform="translate(-25.297 -43.154)" fill="#07304c"/>
        <path id="Path_2119" data-name="Path 2119" d="M125.845,0a13.373,13.373,0,0,0-13.373,13.373V63.926h0A13.373,13.373,0,0,1,99.1,77.3h40.119V13.373A13.373,13.373,0,0,0,125.845,0" transform="translate(-46.015)" fill="#bdbde0"/>
      </g>
    </g>
    <g id="Group_5289" data-name="Group 5289" transform="translate(274.548 137.548)">
      <g id="Group_5288" data-name="Group 5288" clip-path="url(#clip-path-8)">
        <rect id="Rectangle_2708" data-name="Rectangle 2708" width="8.785" height="4.592" transform="translate(0 -0.001)" fill="url(#radial-gradient)"/>
      </g>
    </g>
    <g id="Group_5294" data-name="Group 5294">
      <g id="Group_5293" data-name="Group 5293" clip-path="url(#clip-path)">
        <g id="Group_5292" data-name="Group 5292" transform="translate(315.28 139.127)" style="mix-blend-mode: multiply;isolation: isolate">
          <g id="Group_5291" data-name="Group 5291">
            <g id="Group_5290" data-name="Group 5290" clip-path="url(#clip-path-10)">
              <path id="Path_2121" data-name="Path 2121" d="M588.6,290.5c4.2-6.269,14.163-17.045,17.718-25.638s3.778-4.741,1.333-.444a204.621,204.621,0,0,1-12.459,18.75c-5.926,7.7-6.783,7.616-6.592,7.332" transform="translate(-588.575 -259.727)" fill="#ccc"/>
            </g>
          </g>
        </g>
        <path id="Path_2122" data-name="Path 2122" d="M149.029,0" transform="translate(-69.199)" fill="#9db9c9"/>
        <path id="Path_2123" data-name="Path 2123" d="M356.343,13.373A13.373,13.373,0,0,0,342.97,0H149.03A13.373,13.373,0,0,1,162.4,13.373h0V250.5a13.373,13.373,0,0,0,13.373,13.373H356.343Z" transform="translate(-69.199)" fill="#fff"/>
        <path id="Path_2124" data-name="Path 2124" d="M364.331,32.57H197.273a1.771,1.771,0,1,1,0-3.543H364.331a1.771,1.771,0,1,1,0,3.543" transform="translate(-90.778 -13.478)" fill="#e5e5f5"/>
        <path id="Path_2125" data-name="Path 2125" d="M364.331,50.608H197.273a1.771,1.771,0,1,1,0-3.543H364.331a1.771,1.771,0,1,1,0,3.543" transform="translate(-90.778 -21.854)" fill="#e5e5f5"/>
        <path id="Path_2126" data-name="Path 2126" d="M339.02,416.956H197.272a1.771,1.771,0,0,1,0-3.543H339.02a1.771,1.771,0,1,1,0,3.543" transform="translate(-90.778 -191.961)" fill="#e5e5f5"/>
        <path id="Path_2127" data-name="Path 2127" d="M339.02,434.994H197.272a1.771,1.771,0,1,1,0-3.543H339.02a1.771,1.771,0,1,1,0,3.543" transform="translate(-90.778 -200.337)" fill="#e5e5f5"/>
        <path id="Path_2128" data-name="Path 2128" d="M364.331,453.032H197.273a1.771,1.771,0,1,1,0-3.543H364.331a1.771,1.771,0,1,1,0,3.543" transform="translate(-90.778 -208.712)" fill="#e5e5f5"/>
        <path id="Path_2129" data-name="Path 2129" d="M342.589,68.646H197.272a1.771,1.771,0,1,1,0-3.543H342.589a1.771,1.771,0,1,1,0,3.543" transform="translate(-90.778 -30.229)" fill="#e5e5f5"/>
        <path id="Path_2130" data-name="Path 2130" d="M342.589,86.685H197.272a1.771,1.771,0,1,1,0-3.543H342.589a1.771,1.771,0,1,1,0,3.543" transform="translate(-90.778 -38.606)" fill="#e5e5f5"/>
        <path id="Path_2131" data-name="Path 2131" d="M324.52,104.723H197.272a1.771,1.771,0,1,1,0-3.543H324.52a1.771,1.771,0,1,1,0,3.543" transform="translate(-90.778 -46.981)" fill="#e5e5f5"/>
        <path id="Path_2132" data-name="Path 2132" d="M324.52,122.761H197.272a1.771,1.771,0,1,1,0-3.543H324.52a1.771,1.771,0,1,1,0,3.543" transform="translate(-90.778 -55.357)" fill="#e5e5f5"/>
        <path id="Path_2133" data-name="Path 2133" d="M305.388,140.8H197.272a1.771,1.771,0,1,1,0-3.543H305.388a1.771,1.771,0,1,1,0,3.543" transform="translate(-90.778 -63.732)" fill="#e5e5f5"/>
        <path id="Path_2134" data-name="Path 2134" d="M305.388,158.838H197.272a1.771,1.771,0,0,1,0-3.543H305.388a1.771,1.771,0,1,1,0,3.543" transform="translate(-90.778 -72.109)" fill="#e5e5f5"/>
        <path id="Path_2135" data-name="Path 2135" d="M335.149,176.876H197.273a1.771,1.771,0,1,1,0-3.543H335.149a1.771,1.771,0,1,1,0,3.543" transform="translate(-90.778 -80.484)" fill="#e5e5f5"/>
        <path id="Path_2136" data-name="Path 2136" d="M335.149,194.914H197.273a1.771,1.771,0,1,1,0-3.543H335.149a1.771,1.771,0,1,1,0,3.543" transform="translate(-90.778 -88.86)" fill="#e5e5f5"/>
        <path id="Path_2137" data-name="Path 2137" d="M335.149,212.953H197.273a1.771,1.771,0,1,1,0-3.543H335.149a1.771,1.771,0,1,1,0,3.543" transform="translate(-90.778 -97.236)" fill="#e5e5f5"/>
        <path id="Path_2138" data-name="Path 2138" d="M364.331,230.991H197.273a1.771,1.771,0,1,1,0-3.543H364.331a1.771,1.771,0,1,1,0,3.543" transform="translate(-90.778 -105.612)" fill="#e5e5f5"/>
        <path id="Path_2139" data-name="Path 2139" d="M364.331,249.029H197.273a1.771,1.771,0,1,1,0-3.543H364.331a1.771,1.771,0,1,1,0,3.543" transform="translate(-90.778 -113.987)" fill="#e5e5f5"/>
        <path id="Path_2140" data-name="Path 2140" d="M364.331,267.067H197.273a1.771,1.771,0,1,1,0-3.543H364.331a1.771,1.771,0,1,1,0,3.543" transform="translate(-90.778 -122.363)" fill="#e5e5f5"/>
        <path id="Path_2141" data-name="Path 2141" d="M296.857,285.106H197.272a1.771,1.771,0,0,1,0-3.543h99.584a1.771,1.771,0,0,1,0,3.543" transform="translate(-90.778 -130.739)" fill="#e5e5f5"/>
        <path id="Path_2142" data-name="Path 2142" d="M296.857,303.144H197.272a1.771,1.771,0,0,1,0-3.543h99.584a1.771,1.771,0,0,1,0,3.543" transform="translate(-90.778 -139.115)" fill="#e5e5f5"/>
        <path id="Path_2143" data-name="Path 2143" d="M296.857,321.182H197.272a1.771,1.771,0,0,1,0-3.543h99.584a1.771,1.771,0,0,1,0,3.543" transform="translate(-90.778 -147.49)" fill="#e5e5f5"/>
        <path id="Path_2144" data-name="Path 2144" d="M296.857,339.22H197.272a1.771,1.771,0,1,1,0-3.543h99.584a1.771,1.771,0,0,1,0,3.543" transform="translate(-90.778 -155.866)" fill="#e5e5f5"/>
        <path id="Path_2145" data-name="Path 2145" d="M170.545,234.786a26.964,26.964,0,0,0,2.731-3.028c.87-.9,1.848-1.851,2.637-2.8.474-1.234.941-2.473,1.392-3.683a3.572,3.572,0,0,0-2.42-1.782c-2.641-.894-5.1,4.6-6.953,4.976-2.471.5-2.675,2.736-3.724,3.931a49.88,49.88,0,0,1,2.844,4.263,21.3,21.3,0,0,1,3.493-1.88" transform="translate(-76.247 -103.731)" fill="#f99f87"/>
        <path id="Path_2146" data-name="Path 2146" d="M533.734,249.066l-.009-.006c-1.613-1.12-.193-3.158-2.2-4.511-1.116-.751-1.24-5.021-3.215-5.15-3.915-.256-2.257,3.169-1.184,5.86a19.144,19.144,0,0,0,.972,2.728c.381.514,1.32,1.56,2.122,2.69.235.33.458.667.652,1a5.368,5.368,0,0,0,.7,1.061,9.327,9.327,0,0,0,3.892-2.128,11.846,11.846,0,0,0-1.726-1.542" transform="translate(-244.164 -111.154)" fill="#f99f87"/>
        <path id="Path_2147" data-name="Path 2147" d="M555.566,264.042c2.864,0,11.555-26.864,14.222-34.863s12.883-7.357,19.372-4.661c5.259,2.185,7.541,10.241,7.689,12.908s-12,20.888-22.425,33.036-17.028,15.189-20.386,14.695-22.1-37.331-23.184-39.4,7.725-6.2,8.812-4.327c.6,1.038,13.037,22.617,15.9,22.617" transform="translate(-246.45 -103.402)" fill="#282846"/>
        <path id="Path_2148" data-name="Path 2148" d="M248.89,521.349" transform="translate(-115.568 -242.079)" fill="#9db9c9"/>
        <path id="Path_2149" data-name="Path 2149" d="M225.707,348.309h0a13.373,13.373,0,0,0-13.373,13.373v50.553h0a13.373,13.373,0,0,1-13.373,13.373H392.9a13.373,13.373,0,0,0,13.373-13.373V348.309Z" transform="translate(-92.384 -161.731)" fill="#bdbde0"/>
        <path id="Path_2150" data-name="Path 2150" d="M442.83,348.309H248.89a13.373,13.373,0,0,1,13.373,13.373h0V390.6a12.591,12.591,0,0,0,12.591,12.591H443.612A12.59,12.59,0,0,0,456.2,390.6V361.682a13.373,13.373,0,0,0-13.373-13.373" transform="translate(-115.568 -161.731)" fill="#f7f7fd"/>
        <path id="Path_2151" data-name="Path 2151" d="M459.335,390.754H374.077a1.771,1.771,0,1,1,0-3.543h85.257a1.771,1.771,0,1,1,0,3.543" transform="translate(-172.874 -179.795)" fill="#bdbde0"/>
        <path id="Path_2152" data-name="Path 2152" d="M459.335,408.792H374.077a1.771,1.771,0,1,1,0-3.543h85.257a1.771,1.771,0,1,1,0,3.543" transform="translate(-172.874 -188.17)" fill="#bdbde0"/>
      </g>
    </g>
  </g>
</svg>
