<svg xmlns="http://www.w3.org/2000/svg" xmlns:xlink="http://www.w3.org/1999/xlink" width="20" height="20" viewBox="0 0 20 20">
  <defs>
    <clipPath id="clip-path">
      <rect id="Rectangle_2697" data-name="Rectangle 2697" width="20" height="20" transform="translate(0 0)" fill="#7f7faa"/>
    </clipPath>
  </defs>
  <g id="client_id" data-name="client id" transform="translate(0 0)" clip-path="url(#clip-path)">
    <g id="__TEMP__SVG__" transform="translate(1.212 0)">
      <path id="Path_2087" data-name="Path 2087" d="M10.909,13.333A2.564,2.564,0,1,0,8.345,10.77,2.564,2.564,0,0,0,10.909,13.333Zm0-4.158A1.594,1.594,0,1,1,9.315,10.77a1.594,1.594,0,0,1,1.594-1.594Z" transform="translate(-3.636 -0.606)" fill="#7f7faa"/>
      <path id="Path_2088" data-name="Path 2088" d="M13.333,2.424a1.212,1.212,0,0,0-1.212-1.212H9.7A1.212,1.212,0,0,0,8.485,2.424V6.667h4.848Zm-1.212,3.03H9.7V2.424h2.424Z" transform="translate(-3.636 -0.606)" fill="#7f7faa"/>
      <path id="Path_2089" data-name="Path 2089" d="M6.218,16.364a.685.685,0,0,0-.158.442v1.376h.97V16.891a5.048,5.048,0,0,1,3.879-1.564,5.048,5.048,0,0,1,3.879,1.57v1.285h.97V16.788a.679.679,0,0,0-.158-.442,6,6,0,0,0-4.691-1.988,6,6,0,0,0-4.691,2.006Z" transform="translate(-3.636 -0.606)" fill="#7f7faa"/>
      <path id="Path_2090" data-name="Path 2090" d="M16.97,8.012V19.394H4.848V4.848H7.273V3.636H4.848A1.212,1.212,0,0,0,3.636,4.848V19.394a1.212,1.212,0,0,0,1.212,1.212H16.97a1.212,1.212,0,0,0,1.212-1.212V8.182a4.539,4.539,0,0,1-1.212-.17Z" transform="translate(-3.636 -0.606)" fill="#7f7faa"/>
      <path id="Path_2091" data-name="Path 2091" d="M21.212,3.636a3.03,3.03,0,1,1-3.03-3.03,3.03,3.03,0,0,1,3.03,3.03Z" transform="translate(-3.636 -0.606)" fill="#7f7faa"/>
    </g>
  </g>
</svg>
