<svg xmlns="http://www.w3.org/2000/svg" xmlns:xlink="http://www.w3.org/1999/xlink" width="20" height="20" viewBox="0 0 20 20"><defs><clipPath id="a"><rect width="20" height="20" fill="#282846"/></clipPath></defs><g clip-path="url(#a)"><g transform="translate(0 3.125)"><path d="M20,10S16.25,3.125,10,3.125,0,10,0,10s3.75,6.875,10,6.875S20,10,20,10ZM1.466,10a16.418,16.418,0,0,0,2.075,2.554A9.315,9.315,0,0,0,10,15.625a9.322,9.322,0,0,0,6.46-3.071A16.417,16.417,0,0,0,18.535,10,16.416,16.416,0,0,0,16.46,7.446,9.324,9.324,0,0,0,10,4.375,9.322,9.322,0,0,0,3.54,7.446,16.416,16.416,0,0,0,1.465,10Z" transform="translate(0 -3.125)" fill="#282846" fill-rule="evenodd"/><path d="M10,6.875A3.125,3.125,0,1,0,13.125,10,3.125,3.125,0,0,0,10,6.875ZM5.625,10A4.375,4.375,0,1,1,10,14.375,4.375,4.375,0,0,1,5.625,10Z" transform="translate(0 -3.125)" fill="#282846" fill-rule="evenodd"/></g></g></svg>