<svg xmlns="http://www.w3.org/2000/svg" xmlns:xlink="http://www.w3.org/1999/xlink" width="20" height="20" viewBox="0 0 20 20">
  <defs>
    <clipPath id="clip-path">
      <rect id="Rectangle_2643" data-name="Rectangle 2643" width="20" height="20" fill="#7f7faa"/>
    </clipPath>
  </defs>
  <g id="world" clip-path="url(#clip-path)">
    <g id="__TEMP__SVG__">
      <path id="Path_2021" data-name="Path 2021" d="M16.588,11.25a12.113,12.113,0,0,0-.269-2.5h2.25a7.687,7.687,0,0,0-.419-1H16.056A12.325,12.325,0,0,0,14.25,4.081a7.687,7.687,0,0,0-1.594-.475,11.144,11.144,0,0,1,2.431,4.119H11.719V3.5h-.937V7.731H7.413A11.144,11.144,0,0,1,9.85,3.606a7.675,7.675,0,0,0-1.588.469A12.325,12.325,0,0,0,6.444,7.731H4.338A7.688,7.688,0,0,0,3.913,8.75H6.181a12.113,12.113,0,0,0-.269,2.5,12.294,12.294,0,0,0,.313,2.731H4.012A7.713,7.713,0,0,0,4.475,15H6.494a12.075,12.075,0,0,0,1.681,3.35,7.675,7.675,0,0,0,1.631.494A11.194,11.194,0,0,1,7.5,15h3.287v3.962h.938V15H15a11.188,11.188,0,0,1-2.312,3.844,7.675,7.675,0,0,0,1.638-.506A12.075,12.075,0,0,0,16.006,15h2a7.713,7.713,0,0,0,.463-1H16.25a12.294,12.294,0,0,0,.337-2.75Zm-5.806,2.731H7.194a11.056,11.056,0,0,1-.056-5.25h3.644Zm4.525,0H11.719V8.75h3.644a11.381,11.381,0,0,1,.263,2.5,11.325,11.325,0,0,1-.319,2.731Z" transform="translate(-1.25 -1.25)" fill="#7f7faa"/>
      <path id="Path_2022" data-name="Path 2022" d="M11.25,1.25a10,10,0,1,0,10,10A10,10,0,0,0,11.25,1.25Zm0,18.75A8.75,8.75,0,1,1,20,11.25,8.75,8.75,0,0,1,11.25,20Z" transform="translate(-1.25 -1.25)" fill="#7f7faa"/>
    </g>
  </g>
</svg>
