<svg xmlns="http://www.w3.org/2000/svg" xmlns:xlink="http://www.w3.org/1999/xlink" width="421.87" height="468.789" viewBox="0 0 421.87 468.789">
  <defs>
    <clipPath id="clip-path">
      <rect id="Rectangle_2559" data-name="Rectangle 2559" width="228.113" height="468.789" fill="none"/>
    </clipPath>
    <clipPath id="clip-path-3">
      <rect id="Rectangle_2546" data-name="Rectangle 2546" width="135.176" height="13.495" fill="none"/>
    </clipPath>
    <clipPath id="clip-path-4">
      <rect id="Rectangle_2547" data-name="Rectangle 2547" width="158.917" height="256.711" fill="none"/>
    </clipPath>
    <clipPath id="clip-path-5">
      <rect id="Rectangle_2548" data-name="Rectangle 2548" width="34.553" height="195.646" fill="none"/>
    </clipPath>
    <clipPath id="clip-path-6">
      <rect id="Rectangle_2549" data-name="Rectangle 2549" width="20.163" height="248.419" fill="none"/>
    </clipPath>
    <clipPath id="clip-path-7">
      <rect id="Rectangle_2550" data-name="Rectangle 2550" width="41.081" height="44.065" fill="none"/>
    </clipPath>
    <clipPath id="clip-path-8">
      <rect id="Rectangle_2551" data-name="Rectangle 2551" width="10.805" height="55.084" fill="none"/>
    </clipPath>
    <clipPath id="clip-path-9">
      <rect id="Rectangle_2552" data-name="Rectangle 2552" width="3.132" height="12.946" fill="none"/>
    </clipPath>
    <clipPath id="clip-path-10">
      <rect id="Rectangle_2553" data-name="Rectangle 2553" width="8.948" height="35.231" fill="none"/>
    </clipPath>
    <clipPath id="clip-path-11">
      <rect id="Rectangle_2554" data-name="Rectangle 2554" width="73.692" height="45.811" fill="none"/>
    </clipPath>
    <clipPath id="clip-path-12">
      <rect id="Rectangle_2555" data-name="Rectangle 2555" width="63.074" height="22.665" fill="none"/>
    </clipPath>
    <clipPath id="clip-path-13">
      <rect id="Rectangle_2556" data-name="Rectangle 2556" width="13.252" height="14.045" fill="none"/>
    </clipPath>
    <clipPath id="clip-path-14">
      <rect id="Rectangle_2557" data-name="Rectangle 2557" width="11.259" height="11.988" fill="none"/>
    </clipPath>
  </defs>
  <g id="Group_4814" data-name="Group 4814" transform="translate(-1346 -177)">
    <rect id="Rectangle_2545" data-name="Rectangle 2545" width="421.87" height="184.682" rx="20" transform="translate(1346 246.83)" fill="#f7f7fd"/>
    <g id="Group_4370" data-name="Group 4370" transform="translate(1539.757 177)">
      <g id="Group_4369" data-name="Group 4369" clip-path="url(#clip-path)">
        <g id="Group_4368" data-name="Group 4368">
          <g id="Group_4367" data-name="Group 4367" clip-path="url(#clip-path)">
            <g id="Group_4333" data-name="Group 4333" transform="translate(89.399 455.293)" opacity="0.5">
              <g id="Group_4332" data-name="Group 4332">
                <g id="Group_4331" data-name="Group 4331" clip-path="url(#clip-path-3)">
                  <path id="Path_1862" data-name="Path 1862" d="M232.474,526.935c0,3.727-30.26,6.747-67.588,6.747S97.3,530.662,97.3,526.935s30.26-6.748,67.588-6.748,67.588,3.021,67.588,6.748" transform="translate(-97.298 -520.187)" fill="#e5e5f5"/>
                </g>
              </g>
            </g>
            <g id="Group_4336" data-name="Group 4336" transform="translate(30.869 27.282)" opacity="0.5">
              <g id="Group_4335" data-name="Group 4335">
                <g id="Group_4334" data-name="Group 4334" clip-path="url(#clip-path-4)">
                  <path id="Path_1863" data-name="Path 1863" d="M191.907,44.752a39.186,39.186,0,0,0-7.843,7.679c-2.05,2.718-3.1,6.562-3.836,9.756-1.611,6.992-2.478,13.923-4.873,20.777-2.153,6.16-4.971,12.614-3.37,18.925a26.3,26.3,0,0,0,3.336,7.092c-1.5.228-2.415.376-2.415.376a34.847,34.847,0,0,1-4.742-.452L149.187,83.295s-1.609-11.749-1.158-18.456a3.077,3.077,0,0,0-.961-2.438,89.847,89.847,0,0,1-3.85-8.528s-.889-1.9-3.255-.689l-4.054,1.934a4.259,4.259,0,0,0-3.07-2.04V31.171H47V59.215a7.958,7.958,0,0,0-2.007,2.48,17.7,17.7,0,0,0-2-1.877,4.785,4.785,0,0,0-3.763,1.262c-.9.817.765,3.741,1.589,5.057a2.957,2.957,0,0,0-1.005.464,2.428,2.428,0,0,0-1.005,2.232l.475,4.612a1.569,1.569,0,0,0-1.208.52,13.79,13.79,0,0,0-1.865,2.956l-.153-.05A3.247,3.247,0,0,0,33.6,79.017a24.05,24.05,0,0,0,9.624,14.618L47,98.974v5.7h4.03l14.609,20.655a7.531,7.531,0,0,0-.7,3.536,6.829,6.829,0,0,0,1.186,3.473,7.919,7.919,0,0,0,3.392,2.728c.651.3,1.333.586,2.007.894.779,1.6,1.126,3.451,1.926,5.071a5.267,5.267,0,0,0,4,2.765,4.807,4.807,0,0,0,1.214-.032c2.745,3.147,10.783,12.075,14.493,13.173,0,0,20.351,3.845,60.252-8.882-1.585,18.363.245,38.1,2.093,51.586-8.487,17.409-14.026,40.1-14.026,40.1q.394.845.845,1.638c-.937,4.22-2.534-7.444-2.383,46.508l52.578-.05Zm-93.32,87.723-7.758-5.467a6.7,6.7,0,0,0-4.231-5.494,11.173,11.173,0,0,1-3.537-2.354c-.167-.672-.326-1.334-.522-1.947-.663-2.073-1.664-4.185-3.777-5.239a4.253,4.253,0,0,0-2.881-.347l-5.092-6.956h62.052V80.545l2.135.918a16.185,16.185,0,0,0,1.375,4.749,2.193,2.193,0,0,0,.263.423l3.465,4.389,11.456,23.935c-14,6.886-52.947,17.516-52.947,17.516" transform="translate(-33.597 -31.17)" fill="#e5e5f5"/>
                </g>
              </g>
            </g>
            <path id="Path_1864" data-name="Path 1864" d="M96.335,30.052a.9.9,0,0,1,.337-1.382l.182-.087V4.831H19.771V65.35L38.463,46.091,56.675,64.585,76.933,33.263,96.854,63.615V30.56a3.224,3.224,0,0,1-.519-.508M53.787,41.484a9.121,9.121,0,0,1-9.334-8.893,9.345,9.345,0,0,1,18.668,0,9.121,9.121,0,0,1-9.334,8.893" transform="translate(-1.605 -0.603)" fill="#fff"/>
            <path id="Path_1865" data-name="Path 1865" d="M56.675,68.638,38.463,50.144,19.771,69.4v5.481H96.854V67.667L76.934,37.315Z" transform="translate(-1.605 -4.655)" fill="#bdbde0"/>
            <path id="Path_1866" data-name="Path 1866" d="M14.827,32.588a7.965,7.965,0,0,0-2.008,2.48A26.209,26.209,0,0,1,14.827,37.5Z" transform="translate(-1.041 -4.065)" fill="#e5e5f5"/>
            <path id="Path_1867" data-name="Path 1867" d="M229.943,70.493c-2.575-4.451-6.7-8.067-8.581-12.822a24.334,24.334,0,0,1-1.407-8.615c-.061-3.758.243-7.523,0-11.275-.559-8.673-5.912-18.044-13.085-23.514C202.985,11.3,195.213,12.2,195.213,12.2S189.958,5.96,180.806,9.41c0,0-10.784,4.162-17.732,13.374-2.05,2.718-3.1,6.562-3.835,9.756-1.612,6.992-2.479,13.923-4.874,20.777-2.153,6.16-4.971,12.614-3.37,18.925a26.326,26.326,0,0,0,3.336,7.092c5.773-.878,20.259-2.948,25.111-2.387l.634-.526c-3.973-.876-7.576-2.963-9.491-6.419a20.308,20.308,0,0,1-2.02-6.072,111.6,111.6,0,0,1-1.395-15.353c-.156.235-.315.467-.481.695-1.941,2.664-4.725,4.977-5.875,8.1a13.221,13.221,0,0,0,.39,9.467,13.221,13.221,0,0,1-.39-9.467c1.149-3.126,3.933-5.439,5.875-8.1.166-.228.325-.46.481-.695a20.065,20.065,0,0,0,2.751-6.22,14.476,14.476,0,0,0,.3-1.609c.15-1.147.185-2.288.23-3.436.028-.715.061-1.433.13-2.155.257-2.7.937-6.056,2.727-8.284,5.583-6.949,11.707-1.673,11.717-1.664a14.193,14.193,0,0,0,1.672-.373,8.452,8.452,0,0,1,3.756.29c3.848,1.277,5.464,5.854,6.628,9.186a14.965,14.965,0,0,0,3.709,6.3,9.2,9.2,0,0,0,5.833,2.514,6.88,6.88,0,0,1,4.442-1.832,6.432,6.432,0,1,1,.553,12.836,7.278,7.278,0,0,1-.746-.014c-5.138,5.7-7.27,14.468-3.468,21.12a14.49,14.49,0,0,0,2.305,3.029,12.72,12.72,0,0,0,5.795,3.319,19.493,19.493,0,0,0,9.494-.07q.933-.222,1.84-.509-.906.289-1.84.509a34.783,34.783,0,0,1,7.472,4.377,22.239,22.239,0,0,0-2.527-15.4M185.964,23.155s1.385-6.67,7.325-9.37c-5.94,2.7-7.325,9.37-7.325,9.37" transform="translate(-12.22 -1.044)" fill="#282846"/>
            <path id="Path_1868" data-name="Path 1868" d="M173.261,93.29l3.4,5.845,4.827,8.311.114-.144c-.707-2.451-2.577-10.5,1.817-14.894l-.261-6.053c-.413-.064-.824-.145-1.232-.235l-.634.525Z" transform="translate(-14.066 -10.743)" fill="#027580"/>
            <path id="Path_1869" data-name="Path 1869" d="M111.5,27.617a4.264,4.264,0,0,0-3.07-2.041v3.505Z" transform="translate(-8.803 -3.191)" fill="#e5e5f5"/>
            <path id="Path_1870" data-name="Path 1870" d="M150,94.319c-.122.261-.249.512-.379.76-4.42,8.473-12.956,9.838-16.145,10.046-.782.052-1.244.033-1.244.033s.462.018,1.244-.033l-1.384-2.889a8.427,8.427,0,0,0-.777,1.687,4.705,4.705,0,0,0-.113,2.827,5.257,5.257,0,0,0,2.061,2.648,18.113,18.113,0,0,0,2.555,1.383,12.063,12.063,0,0,1,1.18.654,9.294,9.294,0,0,1,2.945,2.794A9.294,9.294,0,0,0,137,111.433a12.063,12.063,0,0,0-1.18-.654,25.572,25.572,0,0,1,.867,2.912,19.874,19.874,0,0,0,1.083,4.23,3.941,3.941,0,0,0,3.732,2.351,10.516,10.516,0,0,0,3.367-.712,24.648,24.648,0,0,0,7.917-4.606,19.687,19.687,0,0,0,5.718-7.241c.059-.149.108-.3.153-.455a3.352,3.352,0,0,0,.05-1.84c-.4-1.413-1.82-2.118-3.006-2.87-.935-.593-1.872-1.189-2.76-1.844a8.552,8.552,0,0,0,1.947,3.763,8.552,8.552,0,0,1-1.947-3.763c-.264-.936-.45-1.881-.616-2.723-.393-1.994-.415-4.384-2.3-5.71a3.96,3.96,0,0,0-2.917-.587l2.515,3.394c.13-.248.256-.5.379-.76M151.545,104c-3.387,5.642-10.383,8.149-10.383,8.149s6.522-1.257,10.17-4.673c-3.649,3.416-10.17,4.673-10.17,4.673s7-2.507,10.383-8.149" transform="translate(-10.638 -11.43)" fill="#027580"/>
            <path id="Path_1871" data-name="Path 1871" d="M191.632,64.549a2.279,2.279,0,0,0-.569-.2,1.894,1.894,0,0,0-1.688.468c-.659.673-.608,1.843-1.4,2.376a7.7,7.7,0,0,1-1.885.534,1.671,1.671,0,0,0-1.059,1.05,2.075,2.075,0,0,0-.113,1.088,2.2,2.2,0,0,0,.128.436,7.827,7.827,0,0,0,4.208-2.026,9.21,9.21,0,0,0,2.374-3.73" transform="translate(-15.011 -8.023)" fill="#fff"/>
            <path id="Path_1872" data-name="Path 1872" d="M167.7,104.338l8.5-4.18-3.4-5.845Z" transform="translate(-13.615 -11.766)" fill="#027580"/>
            <path id="Path_1873" data-name="Path 1873" d="M172.534,44.775c.64-.128,1.018-.766,1.6-1.055a2.769,2.769,0,0,1,1.979,0,2.254,2.254,0,0,0,.824.145,1.115,1.115,0,0,0,.878-.629,1.394,1.394,0,0,0,.022-1.07,2.332,2.332,0,0,0-.641-.9,3.56,3.56,0,0,0-1.217-.72,3.724,3.724,0,0,0-2.428.007,4.254,4.254,0,0,0-1.359.743c-.045,1.148-.08,2.29-.23,3.436a1.159,1.159,0,0,0,.573.038" transform="translate(-13.961 -5.034)" fill="#282846"/>
            <path id="Path_1874" data-name="Path 1874" d="M142.918,528.106l73.37.083-.258-3.559H145.8a14.832,14.832,0,0,0-2.879,3.476" transform="translate(-11.603 -65.448)" fill="#fff"/>
            <path id="Path_1875" data-name="Path 1875" d="M200.833,80.48a18.968,18.968,0,0,1-7.71,4.571,20.625,20.625,0,0,1-9.1.6l.261,6.053.141,3.281c13.9-4.3,16.4-14.506,16.4-14.506" transform="translate(-14.94 -10.04)" fill="#bdbde0"/>
            <path id="Path_1876" data-name="Path 1876" d="M191.8,67.959a3.33,3.33,0,0,0-1.924,2.225,3.14,3.14,0,0,0,.183,1.973,6.319,6.319,0,0,0,1.135-.579,5.333,5.333,0,0,0,2.2-2.606,3.7,3.7,0,0,0,.214-1.259,3.581,3.581,0,0,0-1.811.247" transform="translate(-15.409 -8.444)" fill="#7f7faa"/>
            <path id="Path_1877" data-name="Path 1877" d="M212.342,56.238a6.994,6.994,0,0,1-1.251-.191,6.994,6.994,0,0,0,1.251.191,6.8,6.8,0,0,0,.745.014,6.431,6.431,0,1,0-.552-12.836,6.876,6.876,0,0,0-4.442,1.832,6.559,6.559,0,0,0-.908,1.046,6.559,6.559,0,0,1,.908-1.046,9.2,9.2,0,0,1-5.833-2.515,14.95,14.95,0,0,1-3.709-6.3c-1.164-3.331-2.78-7.908-6.628-9.186a8.452,8.452,0,0,0-3.756-.289,14.179,14.179,0,0,1-1.672.372c-.01-.009-6.134-5.285-11.717,1.665-1.79,2.228-2.47,5.585-2.727,8.283-.07.723-.1,1.44-.13,2.155a4.275,4.275,0,0,1,1.36-.743,3.736,3.736,0,0,1,2.428-.007,3.574,3.574,0,0,1,1.217.72,2.342,2.342,0,0,1,.641.9,1.4,1.4,0,0,1-.022,1.07,1.111,1.111,0,0,1-.878.629,2.235,2.235,0,0,1-.824-.144,2.769,2.769,0,0,0-1.979,0c-.581.289-.958.926-1.6,1.054a1.162,1.162,0,0,1-.574-.038,14.034,14.034,0,0,1-.3,1.609,20.018,20.018,0,0,1-2.751,6.22,111.734,111.734,0,0,0,1.4,15.352,20.313,20.313,0,0,0,2.02,6.072c2.112,3.81,6.274,5.962,10.723,6.655a20.625,20.625,0,0,0,9.1-.6,18.963,18.963,0,0,0,7.71-4.571s-2.506,10.208-16.4,14.505l.212,4.914-.212-4.914-.141-3.281c-4.4,4.389-2.524,12.443-1.817,14.894l9.524-11.988,18.128-10.381c-3.8-6.653-1.67-15.416,3.468-21.121m.7-9.335a4.563,4.563,0,0,1,2.127-.805,4.563,4.563,0,0,0-2.127.805,5.477,5.477,0,0,1,2.5,3.269,5.477,5.477,0,0,0-2.5-3.269,7.17,7.17,0,0,0-2.506,4.442,7.17,7.17,0,0,1,2.506-4.442m-41.689,7.306c-1.275.05-2.33-.4-2.357-1.012s.987-1.143,2.262-1.193,2.33.4,2.357,1.013-.987,1.143-2.262,1.192m1.863-9.935a4.1,4.1,0,0,0-1.417,2.469,4.1,4.1,0,0,1,1.417-2.469,2.868,2.868,0,0,1,3.276.311,2.868,2.868,0,0,0-3.276-.311m6.734,12.976c.673-2.637,1.4-13.392,1.4-13.392s-.731,10.755-1.4,13.392l1.8.514Zm8.063-18.314A2.324,2.324,0,0,1,188.6,38a3.548,3.548,0,0,1,1.171-.788,3.728,3.728,0,0,1,2.425-.131,4.176,4.176,0,0,1,2.039,1.235,2.617,2.617,0,0,1,.629,1.141,1.568,1.568,0,0,1-.219,1.249,1.271,1.271,0,0,1-1.172.527c-.648-.092-1.065-.706-1.662-.962a2.766,2.766,0,0,0-1.975.116,2.25,2.25,0,0,1-.815.192A1.122,1.122,0,0,1,188.1,40a1.4,1.4,0,0,1-.089-1.067m4.451,4.139a2.859,2.859,0,0,0-3.239.565,2.859,2.859,0,0,1,3.239-.565,4.138,4.138,0,0,1,1.624,2.35,4.138,4.138,0,0,0-1.624-2.35m-.78,20.622a5.337,5.337,0,0,1-2.2,2.606,6.282,6.282,0,0,1-1.134.579,5,5,0,0,1-1.063.284,3.774,3.774,0,0,1-2.321-.365,2.712,2.712,0,0,1-1.233-1.351,2.168,2.168,0,0,1-.128-.436,2.072,2.072,0,0,1,.113-1.087,1.671,1.671,0,0,1,1.059-1.05,7.7,7.7,0,0,0,1.885-.535c.787-.532.737-1.7,1.4-2.375a1.894,1.894,0,0,1,1.688-.469,2.269,2.269,0,0,1,.569.2,2.7,2.7,0,0,1,.923.756,3.22,3.22,0,0,1,.662,1.987,3.7,3.7,0,0,1-.214,1.259m2.458-10.036c-1.275.05-2.33-.4-2.357-1.013s.987-1.143,2.262-1.193,2.33.4,2.357,1.013-.987,1.143-2.262,1.193" transform="translate(-13.691 -3.17)" fill="#e5e5f5"/>
            <path id="Path_1878" data-name="Path 1878" d="M9.611,39.587a49.169,49.169,0,0,1,4.273,4.562,4.312,4.312,0,0,0,2.091.347,1.415,1.415,0,0,0,1.211-1.975,27.963,27.963,0,0,0-2.892-4.943,26.625,26.625,0,0,0-2.008-2.429,17.745,17.745,0,0,0-2-1.877,4.786,4.786,0,0,0-3.763,1.261c-.9.817.764,3.741,1.588,5.058a3.237,3.237,0,0,1,1.5,0" transform="translate(-0.509 -4.146)" fill="#e5e5f5"/>
            <path id="Path_1879" data-name="Path 1879" d="M191.645,64.582a9.211,9.211,0,0,1-2.374,3.73,7.827,7.827,0,0,1-4.208,2.026A2.716,2.716,0,0,0,186.3,71.69a3.78,3.78,0,0,0,2.321.364,4.951,4.951,0,0,0,1.063-.284A3.134,3.134,0,0,1,189.5,69.8a3.33,3.33,0,0,1,1.924-2.225,3.581,3.581,0,0,1,1.811-.246,3.23,3.23,0,0,0-.662-1.988,2.709,2.709,0,0,0-.923-.756" transform="translate(-15.024 -8.057)" fill="#bdbde0"/>
            <path id="Path_1880" data-name="Path 1880" d="M213.133,87.792a14.491,14.491,0,0,1-2.305-3.029L192.7,95.145l6.109,12.363,20.119-16.4a12.722,12.722,0,0,1-5.795-3.32" transform="translate(-15.644 -10.574)" fill="#027580"/>
            <path id="Path_1881" data-name="Path 1881" d="M165,502.367h0a1.606,1.606,0,0,0,.173-2.3l-2.317-2.624c-.845.6-1.746,1.259-2.685,1.954l2.475,2.8a1.7,1.7,0,0,0,2.354.169" transform="translate(-13.003 -62.057)" fill="#fff"/>
            <path id="Path_1882" data-name="Path 1882" d="M156.654,508.967a1.6,1.6,0,0,0,.173-2.3l-2.33-2.638c-.855.673-1.717,1.365-2.58,2.071l2.383,2.7a1.7,1.7,0,0,0,2.354.169" transform="translate(-12.333 -62.878)" fill="#fff"/>
            <path id="Path_1883" data-name="Path 1883" d="M162.577,507.217c1.018-.477,2.03-.938,3.025-1.381q.689-.306,1.365-.6c1.051-.457,2.077-.893,3.064-1.3q.706-.293,1.384-.569c1.1-.449,2.141-.862,3.1-1.235,3.657-1.426,6.1-2.265,6.1-2.265l-3.752-21.251-1.629-9.228L158.02,470.4l9.4,19.066s-2.668,1.738-6.487,4.474l2.318,2.624a1.606,1.606,0,0,1-.173,2.3,1.7,1.7,0,0,1-2.354-.169l-2.475-2.8q-.589.433-1.194.888l2.391,2.706a1.605,1.605,0,0,1-.174,2.3,1.7,1.7,0,0,1-2.354-.169l-2.5-2.83q-.582.45-1.17.915l2.33,2.638a1.6,1.6,0,0,1-.173,2.3,1.7,1.7,0,0,1-2.354-.169l-2.383-2.7c-5.594,4.584-11.146,9.773-14.085,14.316l17.318-4.409c2.757-1.585,5.737-3.092,8.672-4.468" transform="translate(-11.089 -58.556)" fill="#027580"/>
            <path id="Path_1884" data-name="Path 1884" d="M136.417,522.123a14.3,14.3,0,0,0-1.927,4.081l9.621-2.437,1.384-.351a50.066,50.066,0,0,1,8.24-5.7Z" transform="translate(-10.919 -64.585)" fill="#fff"/>
            <path id="Path_1885" data-name="Path 1885" d="M160.851,505.7a1.6,1.6,0,0,0,.173-2.3l-2.391-2.706c-.856.642-1.738,1.313-2.635,2.008l2.5,2.83a1.7,1.7,0,0,0,2.354.169" transform="translate(-12.665 -62.462)" fill="#fff"/>
            <path id="Path_1886" data-name="Path 1886" d="M10.215,48.7l-2.532-3.69,2.532,3.69a4.383,4.383,0,0,1,.8.437s.91,1.087,2.064,2.556a5.025,5.025,0,0,0,4.279.626.877.877,0,0,0,.551-1.216,31.633,31.633,0,0,0-4.043-6.065A49.169,49.169,0,0,0,9.6,40.48a3.25,3.25,0,0,0-1.5,0,2.982,2.982,0,0,0-1.005.464,2.428,2.428,0,0,0-1,2.233l.475,4.611a1.7,1.7,0,0,1,.221.018,15.578,15.578,0,0,1,3.43.895" transform="translate(-0.493 -5.039)" fill="#e5e5f5"/>
            <path id="Path_1887" data-name="Path 1887" d="M224.265,95.649a34.8,34.8,0,0,0-7.471-4.377,19.508,19.508,0,0,1-9.5.071l-20.119,16.4-6.109-12.363-9.524,11.988-.113.143-2.107,2.652,2.107-2.652-4.827-8.31-8.5,4.18,5.108-10.025,8.028-6.646c-4.853-.561-19.339,1.509-25.111,2.387-1.5.228-2.416.376-2.416.376a34.822,34.822,0,0,1-4.74-.452l1.512,2.042a3.952,3.952,0,0,1,2.916.586c1.884,1.326,1.906,3.716,2.3,5.711.165.841.352,1.787.616,2.722.889.655,1.824,1.252,2.76,1.844,1.186.753,2.6,1.457,3.005,2.871a3.357,3.357,0,0,1-.049,1.839l6.654,6.676c2.839-1.046,14.263-4.639,41.017-6.309-26.754,1.67-38.178,5.263-41.017,6.309,0,0,1.166,6.9-1.157,12.693,2.323-5.79,1.157-12.692,1.157-12.693l-6.654-6.676c-.044.154-.094.306-.153.455a19.692,19.692,0,0,1-5.719,7.241,24.637,24.637,0,0,1-7.916,4.606,10.543,10.543,0,0,1-3.367.712c1.42,3.221,7.128,15.324,13.718,17.69,0,0,28.577,10.638,63.5,2.032-34.92,8.605-63.5-2.032-63.5-2.032-6.59-2.366-12.3-14.469-13.718-17.69a3.941,3.941,0,0,1-3.732-2.351,19.929,19.929,0,0,1-1.084-4.23,25.634,25.634,0,0,0-.867-2.912,18.065,18.065,0,0,1-2.554-1.383,5.257,5.257,0,0,1-2.061-2.648,4.709,4.709,0,0,1,.112-2.826,8.417,8.417,0,0,1,.778-1.687l-3.13-6.539c-14,6.886-52.947,17.516-52.947,17.516s2.485,5.37,1.226,13.621c1.26-8.251-1.226-13.621-1.226-13.621l-7.757-5.467a13.39,13.39,0,0,1-1.961,8.531,22.43,22.43,0,0,1-6.336,6.459,9.474,9.474,0,0,1-3.871,1.764c2.744,3.146,10.782,12.074,14.492,13.172,0,0,20.352,3.845,60.251-8.882a114.142,114.142,0,0,1,2.352-15.563,114.142,114.142,0,0,0-2.352,15.563c-1.585,18.363.246,38.1,2.094,51.586,1.372,10.007,2.753,16.571,2.753,16.571s-1.381-6.564-2.753-16.571c-8.488,17.409-14.027,40.1-14.027,40.1q.4.845.847,1.638c9.719,17.172,37.968,16.212,37.968,16.212.017-.378.041-.756.062-1.134q.332-6.22.929-12.424a224.162,224.162,0,0,1,3.527-23.719c.305-1.474.679-2.944,1.081-4.413C145.849,207.283,139.9,210.65,139.9,210.65s5.948-3.367,16.792-14.643a109.236,109.236,0,0,0,3.144-12.647,36.719,36.719,0,0,0-.877-14.856c-1.24-4.606-3.279-8.6-3.224-13.48a22.2,22.2,0,0,1,4.812-13.759,22.2,22.2,0,0,0-4.812,13.759c-.055,4.881,1.984,8.874,3.224,13.48a36.719,36.719,0,0,1,.877,14.856,109.236,109.236,0,0,1-3.144,12.647,288.206,288.206,0,0,0,24.9-30.258,288.206,288.206,0,0,1-24.9,30.258c-.4,1.469-.775,2.939-1.081,4.413a224.162,224.162,0,0,0-3.527,23.719q-.606,6.2-.929,12.424c8.184,1.435,16.861,1.761,24.95-.2a30.442,30.442,0,0,0,11.434-5.239,36.036,36.036,0,0,1,7.345-4.635c3.636-1.6,7.757-2.032,10.673.4a7.934,7.934,0,0,1,1.493,1.667,7.934,7.934,0,0,0-1.493-1.667c.214,1.127.434,2.535.616,4.23,4.345-1.579,3.24-9.108,2.533-12.582-1.558-7.683-3.54-15.286-4.869-23.011-.809-4.7-1.522-9.413-2.171-14.135-.616-4.461-1.174-8.93-1.7-13.4.53,4.472,1.089,8.941,1.7,13.4,5.958-13.831,12.274-27.386,18.973-40.939a190.2,190.2,0,0,0,9.164-21.03c2.036-5.781,3.718-11.058.616-16.779a22.853,22.853,0,0,0-6.154-7M201.413,105.5s6.807-7.623,23.832-5.894c-17.026-1.729-23.832,5.894-23.832,5.894" transform="translate(-4.016 -10.805)" fill="#027580"/>
            <path id="Path_1888" data-name="Path 1888" d="M200.294,245.716a36.123,36.123,0,0,0-7.345,4.635,30.431,30.431,0,0,1-11.433,5.239c-8.09,1.957-16.767,1.631-24.951.2-.02.378-.044.756-.062,1.134,0,0-28.248.959-37.968-16.212-1.168,5.257-3.423,27.383-1.952,120.51l39.775,80.655,17.208-1.019L157.63,350.6l-8.8-75.126,8.8,75.126,15.936,90.259,1.629,9.228,36.33,6.986-8.371-115.546,4.938-50.073c4.38-20.234,4.3-33.551,3.492-41.1-.183-1.7-.4-3.1-.615-4.23-2.917-2.434-7.038-2-10.675-.4" transform="translate(-9.426 -30.029)" fill="#282846"/>
            <path id="Path_1889" data-name="Path 1889" d="M181.378,501.178s-2.44.839-6.1,2.265l1.653,3.283a1.614,1.614,0,0,1-.761,2.184,1.687,1.687,0,0,1-2.235-.744l-1.756-3.489q-.678.277-1.384.57l1.7,3.372a1.614,1.614,0,0,1-.761,2.183,1.687,1.687,0,0,1-2.235-.743l-1.767-3.509q-.675.294-1.365.6l1.65,3.277a1.615,1.615,0,0,1-.761,2.184,1.688,1.688,0,0,1-2.235-.744l-1.68-3.336c-2.935,1.375-5.914,2.883-8.672,4.468a50.047,50.047,0,0,0-8.241,5.7c-.13.116-.256.234-.381.35h70.233l-2.328-32.14-36.329-6.986Zm21.631,1.849a5.047,5.047,0,1,1-5.165,5.046,5.106,5.106,0,0,1,5.165-5.046" transform="translate(-11.857 -59.871)" fill="#027580"/>
            <path id="Path_1890" data-name="Path 1890" d="M166.553,515.749a1.687,1.687,0,0,0,2.235.743,1.614,1.614,0,0,0,.761-2.183l-1.65-3.277c-1,.443-2.007.9-3.025,1.38Z" transform="translate(-13.385 -63.752)" fill="#fff"/>
            <path id="Path_1891" data-name="Path 1891" d="M58.459,116.367a13.382,13.382,0,0,0,1.961-8.53,6.7,6.7,0,0,0-4.231-5.494,11.163,11.163,0,0,1-3.537-2.354,9.906,9.906,0,0,0,2.012,4.575,9.906,9.906,0,0,1-2.012-4.575c-.167-.672-.327-1.335-.523-1.947-.662-2.074-1.663-4.184-3.776-5.24a4.258,4.258,0,0,0-2.881-.347l2.2,3q.13-.477.255-.973-.125.5-.255.973c-2.786,10.232-7.207,13.871-9.343,15.077a5.715,5.715,0,0,1-1.237.552,5.715,5.715,0,0,0,1.237-.552l-3.1-4.382a7.522,7.522,0,0,0-.7,3.536,6.84,6.84,0,0,0,1.185,3.474,7.928,7.928,0,0,0,3.393,2.728c.651.3,1.333.585,2.007.894A10.119,10.119,0,0,1,44.8,119.3a10.119,10.119,0,0,0-3.694-2.512c.779,1.6,1.126,3.451,1.926,5.072a5.266,5.266,0,0,0,4,2.764,4.807,4.807,0,0,0,1.214-.031,9.473,9.473,0,0,0,3.872-1.764,22.431,22.431,0,0,0,6.335-6.46m-13.179.353s6.377-4.627,8.1-10.467a23.282,23.282,0,0,1-4.206,9.672,23.282,23.282,0,0,0,4.206-9.672c-1.719,5.84-8.1,10.467-8.1,10.467" transform="translate(-2.802 -11.52)" fill="#027580"/>
            <path id="Path_1892" data-name="Path 1892" d="M144.82,83.4l-1.512-2.041L124.329,55.751S122.721,44,123.172,37.294a3.081,3.081,0,0,0-.962-2.438,89.8,89.8,0,0,1-3.85-8.527s-.888-1.9-3.254-.689l-4.055,1.934-3.069,1.464-4.381,2.09-.181.087a.9.9,0,0,0-.338,1.382,3.3,3.3,0,0,0,.519.508c.82.643,2.258,1.155,4.738.705v0a20.326,20.326,0,0,0,4.619-1.53c.549-.247,1.125-.522,1.733-.834l.932,3.8,3.914.263-3.914-.263-2.152-.145-6.943-.467a2.174,2.174,0,0,0-2.312,1.7,10.086,10.086,0,0,0,.39,4.606,1.871,1.871,0,0,1,.345-.12l9.354-2.107-9.354,2.107a1.871,1.871,0,0,0-.345.12,1.639,1.639,0,0,0-.989,1.38,8.447,8.447,0,0,0,.695,3.96,1.879,1.879,0,0,1,.864-.821l5.575-2.623-5.575,2.623a1.879,1.879,0,0,0-.864.821,1.749,1.749,0,0,0-.211.836l.018,3.163a1.663,1.663,0,0,0,1.029,1.507L107.982,53l2.134.918a10.914,10.914,0,0,1,.068-3.241,5.078,5.078,0,0,0-1.845-1.546c-.19-.1-.39-.2-.609-.288.219.092.419.188.609.288a7.327,7.327,0,0,0,2.79-1.081l.015-.029-.015.029a4.441,4.441,0,0,0,.688-.584,4.441,4.441,0,0,1-.688.584,8.717,8.717,0,0,0-.945,2.627,10.914,10.914,0,0,0-.068,3.241,16.216,16.216,0,0,0,1.375,4.748,2.215,2.215,0,0,0,.264.423l3.464,4.39,11.456,23.934,3.129,6.539,1.383,2.89c3.19-.208,11.726-1.574,16.146-10.046Z" transform="translate(-8.353 -3.148)" fill="#e5e5f5"/>
            <path id="Path_1893" data-name="Path 1893" d="M96.879,47.194l-.018-3.162a1.764,1.764,0,0,1,.21-.837,8.455,8.455,0,0,1-.694-3.96,1.641,1.641,0,0,1,.989-1.38,10.073,10.073,0,0,1-.39-4.606,2.173,2.173,0,0,1,2.312-1.7l1.811.122v-.944c-2.48.45-3.918-.062-4.737-.705V70.3H19.278V4.3H96.361V28.049l4.38-2.09V.546H14.9V33.5a27.851,27.851,0,0,1,2.891,4.943,1.415,1.415,0,0,1-1.21,1.975,4.312,4.312,0,0,1-2.091-.347,31.591,31.591,0,0,1,4.043,6.065.878.878,0,0,1-.551,1.217,5.029,5.029,0,0,1-4.279-.627,47.873,47.873,0,0,1,4.4,6.322.685.685,0,0,1-.372.945,4.056,4.056,0,0,1-2.83-.024V74.047h85.843V49.921L97.908,48.7a1.662,1.662,0,0,1-1.028-1.508" transform="translate(-1.112 -0.068)" fill="#7f7faa"/>
            <path id="Path_1894" data-name="Path 1894" d="M113.954,36.106q-.215-1.573-.513-2.82a20.273,20.273,0,0,1-4.619,1.529v.945Z" transform="translate(-8.835 -4.152)" fill="#e5e5f5"/>
            <path id="Path_1895" data-name="Path 1895" d="M171.418,513.668a1.688,1.688,0,0,0,2.235.744,1.615,1.615,0,0,0,.761-2.184l-1.7-3.372c-.987.41-2.013.846-3.064,1.3Z" transform="translate(-13.773 -63.48)" fill="#fff"/>
            <path id="Path_1896" data-name="Path 1896" d="M46.442,94.482l-2.2-3-5.092-6.956H19.39L34,105.177l3.1,4.381c2.137-1.206,6.558-4.845,9.343-15.076" transform="translate(-1.574 -10.544)" fill="#e5e5f5"/>
            <path id="Path_1897" data-name="Path 1897" d="M12.966,60.123l.515.614a.645.645,0,0,1-.254,1.017c-1.162.486-3.627.859-7.024-2.137a6.425,6.425,0,0,1-1.8.137,6.425,6.425,0,0,0,1.8-.137c-.389-.343-.789-.728-1.2-1.164.413.436.813.821,1.2,1.164,3.4,3,5.862,2.623,7.024,2.137a.645.645,0,0,0,.254-1.017l-.515-.614L8.8,55.156a2.952,2.952,0,0,0-1.348-.9L3.032,52.81l-.153-.05A3.247,3.247,0,0,0,.421,54.907a24.05,24.05,0,0,0,9.624,14.618l3.775,5.339V60.482a6.518,6.518,0,0,1-.854-.359" transform="translate(-0.034 -6.582)" fill="#e5e5f5"/>
            <path id="Path_1898" data-name="Path 1898" d="M9.033,54.667,13.2,59.635a6.527,6.527,0,0,0,.854.359,4.054,4.054,0,0,0,2.829.024.684.684,0,0,0,.372-.945,47.858,47.858,0,0,0-4.4-6.322c-1.155-1.468-2.064-2.556-2.064-2.556a4.383,4.383,0,0,0-.8-.437,15.579,15.579,0,0,0-3.43-.895,1.716,1.716,0,0,0-.221-.018,1.576,1.576,0,0,0-1.209.521,13.827,13.827,0,0,0-1.865,2.956l4.422,1.442a2.954,2.954,0,0,1,1.348.9" transform="translate(-0.265 -6.093)" fill="#e5e5f5"/>
            <path id="Path_1899" data-name="Path 1899" d="M176.248,511.518a1.687,1.687,0,0,0,2.235.743,1.614,1.614,0,0,0,.761-2.183l-1.653-3.284c-.957.374-2,.786-3.1,1.235Z" transform="translate(-14.166 -63.223)" fill="#fff"/>
            <path id="Path_1900" data-name="Path 1900" d="M175.04,47.3c-.8.032-1.4,1.312-1.334,2.861s.772,2.779,1.576,2.747,1.4-1.312,1.334-2.861-.772-2.779-1.576-2.747" transform="translate(-14.102 -5.901)" fill="#282846"/>
            <path id="Path_1901" data-name="Path 1901" d="M192.856,46.013c-.8.032-1.4,1.312-1.334,2.861s.772,2.779,1.576,2.747,1.4-1.312,1.334-2.861-.772-2.779-1.576-2.747" transform="translate(-15.548 -5.74)" fill="#282846"/>
            <path id="Path_1902" data-name="Path 1902" d="M196.092,55.169c-1.275.05-2.289.584-2.263,1.193s1.082,1.062,2.358,1.013,2.288-.585,2.262-1.193-1.081-1.063-2.357-1.013" transform="translate(-15.736 -6.882)" fill="#bdbde0"/>
            <path id="Path_1903" data-name="Path 1903" d="M171.29,55.794c-1.275.05-2.289.584-2.263,1.193s1.081,1.062,2.357,1.013,2.289-.585,2.263-1.193-1.081-1.063-2.357-1.013" transform="translate(-13.722 -6.96)" fill="#bdbde0"/>
            <path id="Path_1904" data-name="Path 1904" d="M190.723,42.226a2.25,2.25,0,0,0,.814-.192,2.769,2.769,0,0,1,1.975-.116c.6.256,1.014.87,1.662.962a1.267,1.267,0,0,0,1.171-.527,1.569,1.569,0,0,0,.22-1.249,2.636,2.636,0,0,0-.629-1.141,4.18,4.18,0,0,0-2.039-1.235,3.728,3.728,0,0,0-2.425.131,3.529,3.529,0,0,0-1.171.788,2.314,2.314,0,0,0-.583.933,1.393,1.393,0,0,0,.089,1.067,1.12,1.12,0,0,0,.915.579" transform="translate(-15.397 -4.814)" fill="#282846"/>
            <path id="Path_1905" data-name="Path 1905" d="M207.586,516.412a5.047,5.047,0,1,0-5.165-5.046,5.106,5.106,0,0,0,5.165,5.046" transform="translate(-16.434 -63.164)" fill="#fff"/>
            <path id="Path_1906" data-name="Path 1906" d="M55.968,26.389a9.121,9.121,0,0,0-9.334,8.892,9.345,9.345,0,0,0,18.668,0,9.121,9.121,0,0,0-9.334-8.892" transform="translate(-3.786 -3.292)" fill="#bdbde0"/>
            <g id="Group_4339" data-name="Group 4339" transform="translate(134.575 245.442)" opacity="0.15">
              <g id="Group_4338" data-name="Group 4338">
                <g id="Group_4337" data-name="Group 4337" clip-path="url(#clip-path-5)">
                  <path id="Path_1907" data-name="Path 1907" d="M151.291,280.425l-4.825,78.519,34.552,117.127L160.989,357.063Z" transform="translate(-146.466 -280.425)"/>
                </g>
              </g>
            </g>
            <g id="Group_4342" data-name="Group 4342" transform="translate(184.522 214.396)" opacity="0.1">
              <g id="Group_4341" data-name="Group 4341">
                <g id="Group_4340" data-name="Group 4340" clip-path="url(#clip-path-6)">
                  <path id="Path_1908" data-name="Path 1908" d="M207.688,246.031l-6.861,96.719,9.7,150.549,10.464.074L210.033,342.054l4.938-50.073s6.4-25.236,2.877-45.333c0,0-2.867-3.357-10.159-.618" transform="translate(-200.826 -244.954)"/>
                </g>
              </g>
            </g>
            <g id="Group_4345" data-name="Group 4345" transform="translate(135.884 155.78)" opacity="0.15">
              <g id="Group_4344" data-name="Group 4344">
                <g id="Group_4343" data-name="Group 4343" clip-path="url(#clip-path-7)">
                  <path id="Path_1909" data-name="Path 1909" d="M147.891,222.049s25.789-19.588,41.081-44.065c0,0-18.815,43.4-41.081,44.065" transform="translate(-147.891 -177.984)"/>
                </g>
              </g>
            </g>
            <g id="Group_4348" data-name="Group 4348" transform="translate(194.604 165.237)" opacity="0.15">
              <g id="Group_4347" data-name="Group 4347">
                <g id="Group_4346" data-name="Group 4346" clip-path="url(#clip-path-8)">
                  <path id="Path_1910" data-name="Path 1910" d="M214.352,188.788s2.356,42.192-2.553,49.306a7.983,7.983,0,0,1,6.991,1.685l.527,4.093s2.337-.559,2.94-3.8c0,0,1.531-3.612-1.842-15.606,0,0-6.407-28.985-6.063-35.681" transform="translate(-211.799 -188.788)"/>
                </g>
              </g>
            </g>
            <g id="Group_4351" data-name="Group 4351" transform="translate(195.946 157.189)" opacity="0.15">
              <g id="Group_4350" data-name="Group 4350">
                <g id="Group_4349" data-name="Group 4349" clip-path="url(#clip-path-9)">
                  <path id="Path_1911" data-name="Path 1911" d="M213.26,179.594s2.171,8.171,3.132,10.109l-1.231,2.837Z" transform="translate(-213.26 -179.594)"/>
                </g>
              </g>
            </g>
            <g id="Group_4354" data-name="Group 4354" transform="translate(120.115 169.25)" opacity="0.15">
              <g id="Group_4353" data-name="Group 4353">
                <g id="Group_4352" data-name="Group 4352" clip-path="url(#clip-path-10)">
                  <path id="Path_1912" data-name="Path 1912" d="M133.031,194s3.916,24.341,6.646,34.606c0,0-7.84-17.81-8.948-30.666l2.027-4.564Z" transform="translate(-130.728 -193.373)"/>
                </g>
              </g>
            </g>
            <g id="Group_4357" data-name="Group 4357" transform="translate(149.818 115.197)" opacity="0.15">
              <g id="Group_4356" data-name="Group 4356">
                <g id="Group_4355" data-name="Group 4355" clip-path="url(#clip-path-11)">
                  <path id="Path_1913" data-name="Path 1913" d="M163.056,145.1s30.684,11.68,50.042,11.475l2,20.854,21.655-45.811S213.48,155.8,163.056,145.1" transform="translate(-163.056 -131.616)"/>
                </g>
              </g>
            </g>
            <g id="Group_4360" data-name="Group 4360" transform="translate(58.97 104.136)" opacity="0.15">
              <g id="Group_4359" data-name="Group 4359">
                <g id="Group_4358" data-name="Group 4358" clip-path="url(#clip-path-12)">
                  <path id="Path_1914" data-name="Path 1914" d="M64.181,140.675s48.441-.23,63.074-21.7l-2.275,13.36s-25.619,8.356-44.8,9.086a100.142,100.142,0,0,1-10.431.108s-4.056-.246-4.6-.448c0,0-.813-.325-.973-.41" transform="translate(-64.181 -118.979)"/>
                </g>
              </g>
            </g>
            <g id="Group_4363" data-name="Group 4363" transform="translate(154.085 82.547)" opacity="0.15">
              <g id="Group_4362" data-name="Group 4362">
                <g id="Group_4361" data-name="Group 4361" clip-path="url(#clip-path-13)">
                  <path id="Path_1915" data-name="Path 1915" d="M167.7,104.69l5.109-10.378,8.143,14.045-7.411-6.732Z" transform="translate(-167.7 -94.312)"/>
                </g>
              </g>
            </g>
            <g id="Group_4366" data-name="Group 4366" transform="translate(167.708 84.571)" opacity="0.15">
              <g id="Group_4365" data-name="Group 4365">
                <g id="Group_4364" data-name="Group 4364" clip-path="url(#clip-path-14)">
                  <path id="Path_1916" data-name="Path 1916" d="M182.527,108.613l11.259-7.719-1.913-4.269Z" transform="translate(-182.527 -96.625)"/>
                </g>
              </g>
            </g>
            <path id="Path_1917" data-name="Path 1917" d="M175.357,46.242a2.468,2.468,0,0,0-1.828.172,2.6,2.6,0,0,0-1.171,1.318,3.838,3.838,0,0,0-.279,1.6c.289-.465.521-.933.809-1.336a2.87,2.87,0,0,1,1.009-.946,2.43,2.43,0,0,1,1.346-.248,5.879,5.879,0,0,1,1.53.372,2.785,2.785,0,0,0-1.415-.93" transform="translate(-13.97 -5.756)" fill="#282846"/>
            <path id="Path_1918" data-name="Path 1918" d="M195.491,46.284a2.629,2.629,0,0,0-1.28-1.223,2.47,2.47,0,0,0-1.837-.029,2.75,2.75,0,0,0-1.33,1.037,5.838,5.838,0,0,1,1.493-.489,2.434,2.434,0,0,1,1.363.142,2.9,2.9,0,0,1,1.087.864c.321.379.593.827.921,1.268a3.865,3.865,0,0,0-.416-1.57" transform="translate(-15.51 -5.598)" fill="#282846"/>
            <path id="Path_1919" data-name="Path 1919" d="M193.639,67.717a6.824,6.824,0,0,1-.563,1.341,7.03,7.03,0,0,1-.806,1.14,10.674,10.674,0,0,1-1.011,1.01c-.366.324-.753.628-1.172.953a3.842,3.842,0,0,0,1.525-.495,4.619,4.619,0,0,0,1.246-1.009,3.816,3.816,0,0,0,.773-1.393,2.636,2.636,0,0,0,.008-1.547" transform="translate(-15.432 -8.448)" fill="#7f7faa"/>
            <path id="Path_1920" data-name="Path 1920" d="M161.228,62.382a10.9,10.9,0,0,0-.8,5.235A11.888,11.888,0,0,0,162,72.571a19.768,19.768,0,0,1-.585-4.985,12.764,12.764,0,0,1,.98-4.744,20.285,20.285,0,0,1,2.694-4.2,23.8,23.8,0,0,0,2.876-4.338c-1.171,1.3-2.433,2.469-3.649,3.737a15.179,15.179,0,0,0-3.093,4.338" transform="translate(-13.021 -6.775)" fill="#2f2f4f"/>
            <path id="Path_1921" data-name="Path 1921" d="M205.97,44.229a9.991,9.991,0,0,1-2.845-2.489,14.057,14.057,0,0,1-1.879-3.235q-.371-.864-.682-1.755c-.209-.594-.413-1.2-.636-1.8a23.54,23.54,0,0,0-1.608-3.524,13.32,13.32,0,0,0-1.111-1.63,9.47,9.47,0,0,0-.671-.741c-.122-.116-.238-.236-.364-.347l-.394-.319a3.51,3.51,0,0,0-.413-.3c-.143-.091-.28-.192-.429-.275a6.491,6.491,0,0,0-.931-.431,6.743,6.743,0,0,0-1.991-.445,9.1,9.1,0,0,0-2.02.079l-.248.041a2.351,2.351,0,0,0-.25.067l-.474.147-.473.146a1.8,1.8,0,0,1-.481.1,1.823,1.823,0,0,0,.5-.048l.49-.095.485-.1a2.25,2.25,0,0,1,.234-.042l.245-.018a9.321,9.321,0,0,1,1.953.074,6.387,6.387,0,0,1,1.839.529,6.872,6.872,0,0,1,.834.439c.133.081.255.181.384.27a3.018,3.018,0,0,1,.368.289l.35.31c.112.109.215.226.323.338.222.219.406.473.606.711a12.588,12.588,0,0,1,1.01,1.575,23.838,23.838,0,0,1,1.523,3.44c.448,1.175.828,2.4,1.371,3.582a13.61,13.61,0,0,0,2.077,3.319,9.848,9.848,0,0,0,3.129,2.449,8.887,8.887,0,0,0,3.88.9,9.614,9.614,0,0,1-3.7-1.207" transform="translate(-15.269 -3.358)" fill="#2f2f4f"/>
            <path id="Path_1922" data-name="Path 1922" d="M179.887,25.095a7.594,7.594,0,0,0-2.337.791,9.1,9.1,0,0,0-1.979,1.4c-.155.129-.289.274-.432.413s-.285.279-.411.431l-.391.445c-.127.154-.248.318-.373.477a12.823,12.823,0,0,0-1.892,4.276,22.117,22.117,0,0,0-.658,4.507c-.093,1.514-.062,3-.155,4.447a15.6,15.6,0,0,1-.293,2.15,19.857,19.857,0,0,1-.564,2.126,23.486,23.486,0,0,1-1.761,4.1,17.691,17.691,0,0,0,2.343-3.9,19.6,19.6,0,0,0,.787-2.14,14.266,14.266,0,0,0,.47-2.244c.1-.754.165-1.505.21-2.25s.106-1.471.16-2.2a21.689,21.689,0,0,1,.253-2.175c.115-.718.255-1.43.439-2.129a15.331,15.331,0,0,1,.672-2.047,10.1,10.1,0,0,1,.99-1.879,10.918,10.918,0,0,1,3.089-2.99,7.053,7.053,0,0,1,2-.827,6.924,6.924,0,0,1,2.2-.143,9.47,9.47,0,0,1,4.242,1.558,8.538,8.538,0,0,0-4.149-2.144,7.6,7.6,0,0,0-2.457-.046" transform="translate(-13.691 -3.121)" fill="#2f2f4f"/>
            <path id="Path_1923" data-name="Path 1923" d="M190.753,20.538c.118-.22.262-.425.391-.638s.267-.42.409-.625.277-.414.436-.607a15.75,15.75,0,0,1,2-2.235c.187-.169.377-.335.562-.509l.6-.467c.1-.08.2-.163.3-.241s.217-.138.323-.212c.215-.144.43-.291.644-.448-.25.084-.5.177-.748.273-.125.046-.248.1-.372.148s-.235.122-.354.183l-.7.387c-.22.15-.433.307-.651.461a10.658,10.658,0,0,0-2.224,2.242c-.163.207-.3.426-.444.646a7.735,7.735,0,0,0-.407.667,12.775,12.775,0,0,0-.674,1.4,10.153,10.153,0,0,0-.752,2.966,29.29,29.29,0,0,1,1.291-2.735Z" transform="translate(-15.352 -1.816)" fill="#2f2f4f"/>
            <path id="Path_1924" data-name="Path 1924" d="M230.236,87.816c-.465.108-.936.188-1.409.253a22.911,22.911,0,0,1-2.836.244,17.892,17.892,0,0,1-5.551-.666,14.266,14.266,0,0,1-2.536-1.041,11.773,11.773,0,0,1-2.216-1.536,13.7,13.7,0,0,1-1.833-1.954,12.008,12.008,0,0,1-1.4-2.263,14.5,14.5,0,0,1-1.492-5.053,18.121,18.121,0,0,1,.209-5.31,23,23,0,0,1,4.5-9.858,20.044,20.044,0,0,0-5.47,9.672,17.609,17.609,0,0,0-.434,5.6,15.247,15.247,0,0,0,1.543,5.469,13.075,13.075,0,0,0,1.545,2.441,13.93,13.93,0,0,0,2.029,2.1,13.143,13.143,0,0,0,5.28,2.629,16.226,16.226,0,0,0,2.928.431,19.3,19.3,0,0,0,2.936-.079A21.032,21.032,0,0,0,228.9,88.4c.942-.22,1.842-.568,2.745-.875Z" transform="translate(-17.026 -7.564)" fill="#2f2f4f"/>
            <path id="Path_1925" data-name="Path 1925" d="M136.678,401.441,126.8,381.249l-9.884-20.108-.368-30.073L116.429,316l-.018-7.537c-.006-2.512-.016-5.024,0-7.537l0-7.536.045-7.537c.007-2.512.053-5.024.084-7.536s.079-5.023.134-7.535c.1-5.022.247-10.045.477-15.064l.2-3.763c.088-1.253.159-2.508.26-3.759s.2-2.5.35-3.753l.1-.936.13-.934c.076-.624.2-1.241.313-1.86-.123.617-.259,1.232-.345,1.856l-.147.932-.12.936c-.169,1.246-.288,2.5-.412,3.75s-.206,2.506-.31,3.758l-.246,3.763c-.288,5.02-.519,10.042-.657,15.066-.074,2.513-.149,5.025-.194,7.538s-.116,5.025-.143,7.538l-.106,7.538-.061,7.539c-.019,2.514-.017,5.026-.017,7.539l0,7.538.075,15.076.141,15.076.232,15.074v.074l.033.067,9.97,20.152,10.007,20.136,10.034,20.123,10.089,20.1-9.8-20.229Z" transform="translate(-9.397 -30.029)" fill="#2f2f4f"/>
            <path id="Path_1926" data-name="Path 1926" d="M222.171,229.636l-.392-2c-1.066-5.329-2.337-10.611-3.4-15.925-.547-2.654-1.007-5.32-1.452-7.995s-.865-5.351-1.293-8.029-.782-5.364-1.166-8.048c-.4-2.681-.784-5.366-1.211-8.046.543,5.394,1.1,10.789,1.8,16.169.715,5.379,1.515,10.747,2.577,16.084,1.081,5.329,2.373,10.607,3.572,15.9l.443,1.986c.148.663.284,1.321.4,1.986a27.944,27.944,0,0,1,.435,4.01,12.259,12.259,0,0,1-.435,3.984,5.468,5.468,0,0,1-.925,1.789,4.026,4.026,0,0,1-1.655,1.222,4.118,4.118,0,0,0,1.744-1.154,5.586,5.586,0,0,0,1.026-1.8,12.5,12.5,0,0,0,.615-4.046,27.639,27.639,0,0,0-.332-4.077c-.1-.674-.222-1.348-.354-2.013" transform="translate(-17.314 -22.405)" fill="#03686d"/>
            <path id="Path_1927" data-name="Path 1927" d="M211.432,230.833a7.857,7.857,0,0,0-1.494-1.122,7.975,7.975,0,0,0-1.762-.712,8.887,8.887,0,0,0-1.9-.281c-.321-.029-.641,0-.962,0-.318.031-.64.039-.956.092l-.475.068-.47.092c-.315.055-.621.144-.932.219a19.166,19.166,0,0,0-3.532,1.392,41.345,41.345,0,0,0-6.259,4.094,27.476,27.476,0,0,1-3.083,1.982,29.78,29.78,0,0,1-3.34,1.567,33.516,33.516,0,0,1-3.514,1.188c-.6.171-1.2.32-1.807.454l-.91.206-.917.178c-1.222.242-2.46.414-3.7.567-1.242.127-2.487.242-3.738.3a78.182,78.182,0,0,1-14.637-.793c.212-3.736.472-7.469.811-11.2q.564-6.139,1.416-12.248t2.079-12.158c.285-1.466.641-2.917,1.027-4.365l.872-.883c1.791-1.85,3.528-3.745,5.242-5.658,1.7-1.928,3.367-3.875,4.994-5.855q1.213-1.489,2.408-2.992l1.19-1.505,1.166-1.523c3.107-4.061,6.073-8.219,8.861-12.483-3.221,3.978-6.4,7.972-9.649,11.915-1.629,1.968-3.254,3.937-4.915,5.877s-3.319,3.883-5.021,5.788q-2.208,2.512-4.5,4.957c.49-1.737.991-3.475,1.437-5.23a51.3,51.3,0,0,0,1.222-6.087,36.781,36.781,0,0,0-.483-12.354q-.321-1.52-.764-3.013c-.3-.993-.627-1.975-.957-2.954a46.036,46.036,0,0,1-1.731-5.918,19.5,19.5,0,0,1-.358-3.042,21.108,21.108,0,0,1,.124-3.065,24.857,24.857,0,0,1,.524-3.031,23.977,23.977,0,0,1,.929-2.943,19.835,19.835,0,0,1,3.1-5.381,19.887,19.887,0,0,0-3.21,5.34,23.985,23.985,0,0,0-.978,2.948,24.917,24.917,0,0,0-.573,3.046,21.208,21.208,0,0,0-.171,3.093,19.678,19.678,0,0,0,.317,3.087,44.737,44.737,0,0,0,1.659,5.981c.323.981.641,1.961.927,2.948s.526,1.984.729,2.988a36.308,36.308,0,0,1,.368,12.2,50.859,50.859,0,0,1-1.265,6.015c-.568,2.135-1.207,4.261-1.8,6.4-.774.828-1.562,1.644-2.345,2.465-.9.908-1.788,1.831-2.7,2.73-1.822,1.8-3.672,3.577-5.592,5.283-.95.865-1.936,1.691-2.926,2.515q-.747.613-1.514,1.2c-.512.393-1.028.782-1.57,1.14a33.409,33.409,0,0,0,3.3-2.083c.531-.375,1.06-.753,1.575-1.146l.777-.587.765-.6c2.03-1.612,3.988-3.308,5.881-5.063,1.281-1.168,2.519-2.377,3.741-3.6-.282,1.1-.544,2.2-.767,3.319q-1.249,6.064-2.122,12.19-1.732,12.077-2.312,24.266a66,66,0,0,1-10.916-.866c-1.86-.3-3.7-.679-5.526-1.146a51.287,51.287,0,0,1-5.357-1.7c-.877-.324-1.73-.7-2.586-1.077l-1.256-.61c-.422-.2-.82-.438-1.23-.655-.2-.113-.41-.219-.609-.337l-.593-.362c-.392-.245-.8-.473-1.171-.745s-.764-.52-1.137-.79l-1.089-.849a27.7,27.7,0,0,1-3.873-3.871,26.136,26.136,0,0,1-2.833-4.519c.84-3.4,1.773-6.778,2.758-10.143.994-3.394,2.067-6.768,3.18-10.129s2.328-6.692,3.6-10l.989-2.471c.321-.827.692-1.635,1.031-2.454.575-1.4,1.22-2.779,1.851-4.16q.434,2.768.927,5.526c.636,3.461,1.31,6.916,2.148,10.338q-.842-5.207-1.533-10.425c-.476-3.478-.889-6.962-1.278-10.447-.371-3.487-.73-6.975-1.008-10.468q-.447-5.237-.7-10.485c-.1-1.749-.161-3.5-.224-5.248-.044-1.75-.092-3.5-.1-5.25-.034-1.751-.014-3.5-.005-5.251l.058-2.625c.008-.875.047-1.75.081-2.624a140.96,140.96,0,0,1,2.214-20.9,92.285,92.285,0,0,0-2.111,10.348c-.256,1.742-.47,3.49-.656,5.241-.164,1.751-.328,3.505-.431,5.262-.133,1.756-.193,3.514-.262,5.272-.039,1.759-.087,3.518-.084,5.278-.006,3.519.088,7.037.259,10.55.189,3.513.43,7.023.765,10.525s.732,7,1.221,10.481q.332,2.439.714,4.872c-1.443,2.976-2.8,5.99-4.041,9.049-1.327,3.294-2.592,6.612-3.756,9.963s-2.258,6.724-3.29,10.114-2,6.8-2.879,10.231l-.022.085.039.081a26.653,26.653,0,0,0,2.9,4.726,27.951,27.951,0,0,0,3.931,3.992l1.111.872c.38.277.772.54,1.158.81s.793.512,1.193.763l.6.371c.2.121.413.23.62.345.417.222.822.467,1.251.67l1.277.625c.867.383,1.734.769,2.624,1.1a52.037,52.037,0,0,0,5.427,1.741c1.842.478,3.707.866,5.587,1.175a66.31,66.31,0,0,0,11.4.9l.338,0,.018-.332c.019-.36.042-.719.062-1.077,2.34.471,4.71.813,7.093,1.062a60.647,60.647,0,0,0,7.568.274,49.355,49.355,0,0,0,7.549-.756,37.7,37.7,0,0,0,7.3-2.031,28.1,28.1,0,0,0,6.574-3.679,43.407,43.407,0,0,1,6.1-4.136,19.316,19.316,0,0,1,3.394-1.434,12.236,12.236,0,0,1,3.64-.571,8.565,8.565,0,0,1,1.836.192,7.732,7.732,0,0,1,1.734.614,7.829,7.829,0,0,1,1.513,1.034,8.154,8.154,0,0,1,1.224,1.356,8.162,8.162,0,0,0-1.144-1.434" transform="translate(-9.54 -14.509)" fill="#03686d"/>
            <path id="Path_1928" data-name="Path 1928" d="M178.317,110.733c.851-.154,1.7-.311,2.555-.451s1.7-.292,2.561-.416c1.707-.277,3.423-.515,5.136-.754s3.432-.46,5.154-.655c.86-.1,1.718-.219,2.58-.309l2.584-.287,10.351-1.091q-1.3.032-2.6.084c-.867.035-1.737.061-2.6.1-1.734.109-3.47.192-5.2.342-.489.037-.977.081-1.466.123q2.325-1.859,4.629-3.742c1.671-1.372,3.345-2.741,5-4.129q1.249-1.035,2.485-2.083t2.471-2.1c.823-.7,1.637-1.41,2.451-2.12s1.63-1.418,2.433-2.141c-.874.644-1.735,1.3-2.6,1.959s-1.726,1.312-2.578,1.979-1.709,1.33-2.559,2-1.7,1.339-2.545,2.016c-1.7,1.345-3.375,2.709-5.056,4.07q-2.339,1.912-4.668,3.835c-.454-.893-.9-1.788-1.366-2.678-.53-1.021-1.05-2.045-1.59-3.062s-1.07-2.037-1.619-3.049c-.482-.9-.964-1.793-1.457-2.684l.063-.08,4.464-2.57c1.5-.88,3.006-1.754,4.5-2.645l2.242-1.336,2.233-1.351,2.221-1.37q1.112-.681,2.213-1.383-1.167.6-2.32,1.212L204.1,87.2l-2.3,1.245-2.29,1.259c-1.527.84-3.044,1.7-4.564,2.546l-4.538,2.585-.063.036-.043.055c-.971,1.238-1.954,2.466-2.916,3.71s-1.932,2.481-2.885,3.732-1.9,2.5-2.847,3.759q-.374.507-.75,1.011c-.532-1.2-1.122-2.378-1.736-3.54-.311-.606-.647-1.2-.972-1.8l-1.009-1.779-1.046-1.76c-.361-.579-.71-1.167-1.083-1.74-.665-1.045-1.352-2.079-2.088-3.087.019-.038.038-.075.056-.113.685-.585,1.376-1.164,2.055-1.757.7-.607,1.4-1.207,2.1-1.821q2.089-1.828,4.127-3.713-2.248,1.654-4.435,3.376c-.735.567-1.457,1.148-2.186,1.722s-1.446,1.161-2.169,1.741l-.05.04-.035.065c-.44.829-.87,1.662-1.3,2.5s-.864,1.665-1.283,2.5l-1.265,2.511-1.242,2.522-.422.856.863-.445,2.1-1.087c.7-.361,1.4-.733,2.1-1.1s1.39-.747,2.086-1.119q.881-.48,1.754-.972l.7,1.232,1.047,1.759c.36.58.709,1.167,1.083,1.741.709,1.115,1.443,2.219,2.234,3.291-.681.917-1.363,1.834-2.026,2.762,1.044-1.184,2.052-2.4,3.078-3.593s2.025-2.415,3.024-3.632,1.995-2.437,2.987-3.659c.95-1.165,1.883-2.344,2.824-3.516.4.924.82,1.844,1.236,2.764.469,1.048.95,2.091,1.435,3.132s.977,2.079,1.465,3.119c.466.993.947,1.98,1.421,2.97-2.63.241-5.253.544-7.871.884-1.719.253-3.44.5-5.152.8-.856.141-1.71.305-2.563.468-.426.083-.854.157-1.279.248l-1.273.274c-1.7.361-3.384.78-5.054,1.244a46.452,46.452,0,0,0-4.919,1.655q2.481-.763,5.015-1.312,2.529-.57,5.081-1.035M173.96,99.908c-.722.324-1.448.641-2.166.972s-1.442.652-2.157.988l-1.277.6.882-1.673,1.289-2.5c.433-.831.848-1.672,1.272-2.508q.569-1.125,1.127-2.255c.5,1.11,1.045,2.2,1.613,3.27.311.606.649,1.2.972,1.8l.293.515q-.926.4-1.848.8" transform="translate(-13.552 -10.574)" fill="#03686d"/>
            <path id="Path_1929" data-name="Path 1929" d="M235.511,100.993l-1.6-.074-.8-.031c-.133,0-.266-.011-.4-.011l-.4.011c-.534.014-1.068.031-1.6.054-.535.006-1.065.073-1.6.129s-1.064.11-1.592.194l-1.578.29-.394.077c-.13.029-.258.067-.388.1l-.775.2-.775.2c-.256.075-.507.166-.76.253-.5.182-1.015.332-1.5.553l-.735.312-.366.159-.355.18c-.469.249-.956.464-1.4.752l-.678.41c-.221.144-.436.3-.651.446a12.412,12.412,0,0,0-2.333,2.077,16.374,16.374,0,0,1,2.541-1.785c.226-.128.446-.263.673-.387l.695-.352c.455-.247.94-.44,1.411-.656a32.217,32.217,0,0,1,5.954-1.842l1.538-.3c.515-.09,1.037-.136,1.556-.211,1.034-.179,2.086-.2,3.132-.3l.393-.032c.131-.007.263-.006.394-.01l.789-.018,1.581-.046c1.055.013,2.111.049,3.175.042q-1.571-.228-3.161-.4" transform="translate(-17.442 -12.585)" fill="#03686d"/>
            <path id="Path_1930" data-name="Path 1930" d="M186.022,142.682q-5.465-.224-10.891-.933c-1.809-.216-3.608-.5-5.4-.8s-3.579-.664-5.357-1.044-3.544-.811-5.292-1.292q-1.312-.361-2.606-.766c-.427-.136-.868-.27-1.268-.425a8.414,8.414,0,0,1-1.168-.54,13.2,13.2,0,0,1-2.132-1.495,23.335,23.335,0,0,1-1.887-1.831,36.3,36.3,0,0,1-3.265-4.147c-1.005-1.449-1.927-2.952-2.8-4.481q-.659-1.146-1.274-2.317-.543-1.019-1.052-2.056a7.507,7.507,0,0,0,1.492-.175,19.664,19.664,0,0,0,2.733-.843,24.133,24.133,0,0,0,4.986-2.655,29.437,29.437,0,0,0,4.242-3.628,21.484,21.484,0,0,0,1.8-2.122,14.432,14.432,0,0,0,1.44-2.365c.1-.21.2-.417.282-.632l.13-.319c.035-.1.065-.2.1-.3a19.871,19.871,0,0,0,1.254,1.585c.511.6,1.048,1.167,1.6,1.723s1.126,1.1,1.725,1.614a19.591,19.591,0,0,0,1.877,1.475,18.658,18.658,0,0,0-1.449-1.863c-.511-.6-1.048-1.168-1.6-1.725s-1.126-1.1-1.724-1.614a20.2,20.2,0,0,0-1.649-1.312,3.847,3.847,0,0,0,.174-1.331,2.952,2.952,0,0,0-.419-1.375,3.875,3.875,0,0,0-.963-1.063,27.443,27.443,0,0,0-2.382-1.475c-.666-.4-1.33-.8-1.982-1.226-.013-.05-.027-.1-.04-.149-.155-.649-.3-1.3-.414-1.966l-.186-.994c-.06-.326-.109-.657-.16-.992a17.293,17.293,0,0,0-.424-2.027,5.418,5.418,0,0,0-.986-1.915,3.856,3.856,0,0,0-1.833-1.224,4,4,0,0,0-2.164,0,4.489,4.489,0,0,1,2.032.332,3.037,3.037,0,0,1,.832.521l.184.161c.06.054.111.116.168.174a3.443,3.443,0,0,1,.3.372,5.333,5.333,0,0,1,.767,1.756,18.632,18.632,0,0,1,.368,1.958c.057.334.113.671.181,1.011s.133.666.212,1a20.194,20.194,0,0,0,.549,1.986,10.626,10.626,0,0,0,.841,1.9,5.7,5.7,0,0,0,1.34,1.609A9.237,9.237,0,0,1,153.3,101c.6.463,1.223.9,1.853,1.327a27.157,27.157,0,0,1,2.248,1.583,2.879,2.879,0,0,1,1.129,2.186,5.328,5.328,0,0,1-.754,2.435,18.133,18.133,0,0,1-3.229,4.264,29.416,29.416,0,0,1-4.162,3.509,23.858,23.858,0,0,1-4.813,2.608,18.833,18.833,0,0,1-2.609.858,5.573,5.573,0,0,1-2.631.061,3.475,3.475,0,0,1-1.16-.544,4,4,0,0,1-.892-.923,6.973,6.973,0,0,1-.986-2.417c-.215-.862-.368-1.755-.625-2.621a22.144,22.144,0,0,0-.7-2.107c.271.13.538.265.792.412a11.078,11.078,0,0,1,3.152,2.586,6.376,6.376,0,0,0-1.2-1.7,10.867,10.867,0,0,0-1.624-1.36c-1.2-.821-2.552-1.282-3.618-2.056a4.834,4.834,0,0,1-2.143-3.058,6.876,6.876,0,0,1,.734-3.821,7.112,7.112,0,0,0-1.009,1.806,4.865,4.865,0,0,0-.312,2.08,4.168,4.168,0,0,0,.735,2.031,6.373,6.373,0,0,0,1.54,1.543,19.289,19.289,0,0,0,2.9,1.509c.215.719.4,1.446.56,2.176.2.872.294,1.758.457,2.649a7.27,7.27,0,0,0,.931,2.6,4.3,4.3,0,0,0,.971,1.077,4.052,4.052,0,0,0,1.332.676,4.9,4.9,0,0,0,1.428.19q.929,2.3,2.041,4.525,1.181,2.372,2.59,4.643a36.294,36.294,0,0,0,3.159,4.344,16.931,16.931,0,0,0,4.145,3.622,9.408,9.408,0,0,0,1.285.635c.445.186.875.326,1.312.479.872.295,1.751.564,2.632.823q2.648.773,5.336,1.391c3.585.819,7.215,1.453,10.866,1.926,3.654.454,7.328.762,11.011.88s7.37.067,11.043-.179a105.807,105.807,0,0,0,21.673-3.663,134.141,134.141,0,0,1-21.727,2.723c-3.648.133-7.3.147-10.941-.023" transform="translate(-10.613 -11.418)" fill="#03686d"/>
            <path id="Path_1931" data-name="Path 1931" d="M137.927,105.065a20.16,20.16,0,0,0,2.688-.859l.651-.27c.216-.094.423-.2.634-.307l.631-.313.607-.354.6-.364.572-.4.572-.406c.179-.147.357-.3.533-.449l.529-.454c.174-.152.328-.326.492-.488a10.406,10.406,0,0,0,.934-1.019l.431-.537a5.247,5.247,0,0,0,.411-.548l.74-1.147c.22-.4.416-.8.618-1.206.095-.2.207-.4.286-.609l.248-.625c-.236.385-.458.774-.719,1.141s-.487.751-.749,1.112l-.824,1.056c-.13.18-.293.337-.44.5l-.451.495a19.448,19.448,0,0,1-4.184,3.335l-.579.347-.6.308c-.2.1-.4.211-.605.3l-.623.272a24.761,24.761,0,0,1-2.561.944,26.428,26.428,0,0,1-5.429,1.021,17.987,17.987,0,0,0,5.591-.477" transform="translate(-10.744 -11.814)" fill="#03686d"/>
            <path id="Path_1932" data-name="Path 1932" d="M148.835,110.371c.212-.188.429-.372.639-.564s.4-.4.6-.6a6.969,6.969,0,0,0,.57-.627c.177-.219.359-.433.532-.655s.317-.464.472-.695l.227-.351c.068-.123.133-.245.2-.369.128-.248.253-.495.368-.744-.188.21-.367.423-.543.635l-.262.319-.285.3c-.188.2-.368.409-.558.606s-.391.385-.587.577a26.427,26.427,0,0,1-2.509,2.13c-.879.661-1.788,1.292-2.732,1.883s-1.911,1.152-2.908,1.7a14.342,14.342,0,0,0,2.842-.465c.234-.054.464-.123.694-.193s.458-.142.685-.219c.456-.151.9-.336,1.343-.514a15.687,15.687,0,0,0,2.518-1.374,9.592,9.592,0,0,0,2.088-1.909c-.8.516-1.589,1-2.406,1.432s-1.661.82-2.513,1.192c-.427.185-.855.368-1.29.536-.24.1-.483.2-.728.291a18.746,18.746,0,0,0,2.88-1.791c.222-.178.449-.348.667-.531" transform="translate(-11.533 -13.195)" fill="#03686d"/>
            <path id="Path_1933" data-name="Path 1933" d="M168.158,121.919c-.01.265-.022.53-.04.794s-.028.53-.058.792c-.072,1.057-.2,2.107-.357,3.156s-.4,2.084-.627,3.147a12.827,12.827,0,0,0,1.208-3.035,17.612,17.612,0,0,0,.534-3.215c.024-.27.03-.542.04-.812s.026-.542.017-.813c-.007-.542-.022-1.083-.071-1.623a15.57,15.57,0,0,0-.572-3.195c0,1.081,0,2.148-.019,3.212-.021.532-.022,1.063-.056,1.592" transform="translate(-13.564 -14.61)" fill="#03686d"/>
            <path id="Path_1934" data-name="Path 1934" d="M41.759,108.608a19.237,19.237,0,0,0,3.107-4.175,26.936,26.936,0,0,0,2.067-4.7,31.224,31.224,0,0,0,1.219-4.94c-.572,1.6-1.145,3.189-1.779,4.75q-.251.582-.489,1.165l-.53,1.145c-.169.385-.373.754-.558,1.132s-.4.741-.6,1.108-.416.73-.638,1.087-.459.7-.691,1.056l-.175.263-.188.254-.377.507c-.128.168-.268.326-.4.491s-.263.331-.408.485a15.216,15.216,0,0,1-1.822,1.776,8.972,8.972,0,0,1-2.18,1.386,7.526,7.526,0,0,0,2.406-1.1,12.783,12.783,0,0,0,2.036-1.681" transform="translate(-3.03 -11.825)" fill="#03686d"/>
            <path id="Path_1935" data-name="Path 1935" d="M60.3,106.268a6.627,6.627,0,0,0-.634-1.309,6.747,6.747,0,0,0-.911-1.152,7.183,7.183,0,0,0-1.152-.925,8.4,8.4,0,0,0-1.328-.657,10.806,10.806,0,0,1-1.306-.6,12.13,12.13,0,0,1-1.926-1.309c-.113-.507-.233-1.017-.357-1.531-.085-.336-.165-.672-.267-1s-.221-.662-.345-.991a10.768,10.768,0,0,0-.97-1.9,6.832,6.832,0,0,0-1.479-1.606,5.344,5.344,0,0,0-1.993-.967,4.072,4.072,0,0,0-2.179.118,4.587,4.587,0,0,1,2.072.222,4.178,4.178,0,0,1,.907.452,5.99,5.99,0,0,1,.8.6,8.609,8.609,0,0,1,2.127,3.332c.125.312.243.627.348.947s.183.652.282.975l.289.976c.093.327.187.661.293.991a11.717,11.717,0,0,0,.778,1.945,5.561,5.561,0,0,0,1.292,1.667,9.651,9.651,0,0,1-1.5-3.753c-.027-.132-.059-.266-.088-.4a10.764,10.764,0,0,0,1.805,1.4,11.086,11.086,0,0,0,1.3.681,7.877,7.877,0,0,1,1.228.7,6.934,6.934,0,0,1,1.045.915,6.21,6.21,0,0,1,.8,1.106,7.231,7.231,0,0,1,.855,2.557,12.027,12.027,0,0,1-.568,5.372,14.281,14.281,0,0,1-1.089,2.515,17.228,17.228,0,0,1-1.56,2.29,23.042,23.042,0,0,1-4.026,3.915A19.092,19.092,0,0,1,50.5,123.43a7.015,7.015,0,0,1-2.611.9,4.547,4.547,0,0,1-2.651-.55,5,5,0,0,1-1.975-1.856c-.843-1.484-1.228-3.208-1.99-4.771a11.041,11.041,0,0,1,3.505,2.129,6.624,6.624,0,0,0-1.663-1.645,14.5,14.5,0,0,0-2.055-1.189c-.7-.351-1.426-.671-2.109-1.014a8.7,8.7,0,0,1-1.853-1.242,6.644,6.644,0,0,1-1.388-1.677,7.055,7.055,0,0,1-.813-2.008,8.061,8.061,0,0,1,.3-4.368,6.8,6.8,0,0,0-.887,4.469,6.954,6.954,0,0,0,2.268,4.115,9.01,9.01,0,0,0,2.041,1.319c.37.173.728.312,1.091.467s.727.3,1.092.446l.423.178c.293.75.515,1.521.747,2.291a16.917,16.917,0,0,0,.959,2.663,5.361,5.361,0,0,0,2.052,2.1,5.041,5.041,0,0,0,2.959.7,7.355,7.355,0,0,0,2.885-.911,19.657,19.657,0,0,0,2.459-1.6,23.478,23.478,0,0,0,4.183-4.015,18.019,18.019,0,0,0,1.611-2.4,14.2,14.2,0,0,0,1.12-2.646,12.209,12.209,0,0,0,.463-5.657,7.951,7.951,0,0,0-.373-1.394" transform="translate(-2.78 -11.505)" fill="#03686d"/>
            <path id="Path_1936" data-name="Path 1936" d="M51.908,114.356c-.193.391-.366.795-.567,1.185-.378.794-.817,1.556-1.22,2.364a11.436,11.436,0,0,0,1.738-2.094,6.78,6.78,0,0,0,.363-.574l.336-.588c.2-.4.41-.8.581-1.219a15.079,15.079,0,0,0,.847-2.548,11.06,11.06,0,0,0,.34-2.649,26.579,26.579,0,0,1-1.592,2.9c-.145.231-.313.452-.462.682l-.229.341-.25.329c-.168.218-.318.448-.492.663l-.517.645q-1.054,1.277-2.2,2.5c-.766.81-1.552,1.609-2.358,2.408a16.672,16.672,0,0,0,2.779-2.011,20.9,20.9,0,0,0,2.374-2.451,17.342,17.342,0,0,0,1.514-2.2q-.225.559-.462,1.115c-.164.4-.356.8-.528,1.2" transform="translate(-3.753 -13.502)" fill="#03686d"/>
            <path id="Path_1937" data-name="Path 1937" d="M72.809,121.26c-.044-.288-.1-.574-.164-.859l-.089-.429-.113-.424a12.809,12.809,0,0,0-1.289-3.258,34.353,34.353,0,0,1,.707,3.37c.048.282.087.564.127.845s.083.564.108.847c.075.564.122,1.131.17,1.7.025.284.039.567.059.851l.027.426.013.426.036.854c0,.284,0,.57.008.855l.007.429-.006.429-.006.859c0,.575-.04,1.148-.026,1.731.153-.56.289-1.127.4-1.7.083-.573.194-1.147.225-1.728A21.367,21.367,0,0,0,73.024,123c-.062-.579-.116-1.161-.215-1.736" transform="translate(-5.777 -14.507)" fill="#03686d"/>
            <path id="Path_1938" data-name="Path 1938" d="M180.745,495.816l-1.006-5.3c-.34-1.766-.683-3.533-1.039-5.3s-.7-3.53-1.074-5.291c.253,1.78.53,3.557.8,5.335s.551,3.554.838,5.329l.868,5.324.85,5.045c-3.071,1.06-6.086,2.234-9.09,3.445q-1.156.475-2.3.969l-2.3.986-1.141.508-1.132.526c-.754.353-1.512.7-2.262,1.057q-2.251,1.078-4.451,2.25c-1.467.78-2.915,1.594-4.332,2.456s-2.8,1.767-4.139,2.74a32.562,32.562,0,0,0-3.787,3.157,49.964,49.964,0,0,1,8.159-5.537q2.158-1.214,4.376-2.331c1.478-.745,2.971-1.461,4.475-2.161.75-.35,1.511-.682,2.266-1.023s1.513-.677,2.274-1.008l2.292-.972q1.145-.49,2.3-.955c1.545-.609,3.08-1.246,4.634-1.837s3.112-1.175,4.672-1.735l.278-.1-.051-.272Z" transform="translate(-11.857 -59.871)" fill="#03686d"/>
            <path id="Path_1939" data-name="Path 1939" d="M145.453,524.045c-.945.13-1.882.295-2.812.479s-1.858.381-2.78.593c-.462.1-.922.216-1.381.328s-.921.221-1.376.345l-1.373.361-.839.235c.049-.18.1-.359.162-.536.118-.348.242-.7.385-1.043s.288-.69.45-1.03.321-.684.486-1.026q-.369.442-.7.915c-.215.318-.429.638-.616.973a10.73,10.73,0,0,0-.523,1.03,9.164,9.164,0,0,0-.4,1.091l-.145.495.544-.123,1.385-.313,1.379-.337c.46-.109.917-.233,1.375-.352s.915-.238,1.37-.368q1.367-.378,2.722-.8c.9-.281,1.8-.581,2.69-.916" transform="translate(-10.878 -65.214)" fill="#f7f7fe"/>
            <path id="Path_1940" data-name="Path 1940" d="M216.351,528.184l-.335-3.554.176,3.483c-6.086-.119-12.173-.172-18.261-.239l-9.172-.062-9.171-.026-9.172,0-9.171.034c-6.061.058-12.123.086-18.184.191a12.1,12.1,0,0,1,1.184-1.716,19.607,19.607,0,0,1,1.535-1.667,14.633,14.633,0,0,0-2.961,3.434l-.074.127.157,0c6.114.122,12.228.163,18.342.235l9.171.055,9.172.024,9.172-.006,9.171-.041c6.115-.052,12.229-.093,18.343-.2l.085,0Z" transform="translate(-11.589 -65.448)" fill="#f7f7fe"/>
            <path id="Path_1941" data-name="Path 1941" d="M187.479,82.3a20.9,20.9,0,0,1-6.634-.677,15.254,15.254,0,0,1-5.834-2.929,11.276,11.276,0,0,1-2.157-2.368,13.946,13.946,0,0,1-1.431-2.851,32.782,32.782,0,0,1-1.5-6.261c-.337-2.131-.567-4.281-.754-6.436-.206-2.155-.335-4.317-.533-6.475a113.18,113.18,0,0,0,.7,12.988,31.224,31.224,0,0,0,1.4,6.41,14.011,14.011,0,0,0,1.482,3,11.993,11.993,0,0,0,2.282,2.531,15.861,15.861,0,0,0,6.142,3.046,20.919,20.919,0,0,0,2.1.418c-.085,1.087-.115,2.171-.119,3.254-.009.6.009,1.189.014,1.784l.057,1.782.1,1.78c.046.593.079,1.186.14,1.779.108,1.185.241,2.369.449,3.551.106-1.194.137-2.384.142-3.574.009-.6-.008-1.189-.013-1.784l-.056-1.782-.1-1.78c-.047-.593-.079-1.186-.141-1.779-.1-1.075-.219-2.148-.4-3.22a20.72,20.72,0,0,0,4.691.15,18.665,18.665,0,0,0,12.062-5.651A19.554,19.554,0,0,1,187.479,82.3" transform="translate(-13.691 -6.775)" fill="#282846"/>
            <path id="Path_1942" data-name="Path 1942" d="M181.79,60.258c.311.051.624.1.939.136-.285-.134-.573-.257-.863-.378-.216-.094-.435-.179-.653-.264A21.565,21.565,0,0,0,181.9,56.6c.171-1.117.292-2.236.385-3.357s.142-2.245.157-3.371a33.109,33.109,0,0,0-.115-3.385c-.265,1.108-.446,2.22-.619,3.331s-.3,2.226-.421,3.34-.218,2.229-.308,3.343-.152,2.234-.287,3.324l-.029.235.191.033c.311.054.618.116.931.163" transform="translate(-14.668 -5.799)" fill="#282846"/>
            <path id="Path_1943" data-name="Path 1943" d="M223.294,51.751a6.284,6.284,0,0,0-.425-1.807,6.96,6.96,0,0,0-.941-1.622,7.331,7.331,0,0,0-1.37-1.311,7.115,7.115,0,0,0-3.572-1.307,7.035,7.035,0,0,0-3.711.684,6.473,6.473,0,0,0-2.683,2.434,7,7,0,0,1,2.841-2.114,6.9,6.9,0,0,1,3.489-.444,6.463,6.463,0,0,1,5.237,3.938,6,6,0,0,1-1.149,6.262,6.685,6.685,0,0,1-2.916,1.877,6.888,6.888,0,0,1-.868.228c-.147.032-.3.042-.447.065a3.405,3.405,0,0,1-.452.044,7.6,7.6,0,0,1-1.828-.1,6.667,6.667,0,0,0,.9.215,9.118,9.118,0,0,0,.931.088,3,3,0,0,0,.47,0c.157-.011.315-.009.471-.03a7.272,7.272,0,0,0,.93-.165,6.6,6.6,0,0,0,5-5.084,6.165,6.165,0,0,0,.1-1.846" transform="translate(-17.097 -5.698)" fill="#282846"/>
            <path id="Path_1944" data-name="Path 1944" d="M215.968,51.118a6.247,6.247,0,0,1,.973-1.011c.159.2.315.388.464.574.211.261.409.521.6.783s.388.53.583.808a9.848,9.848,0,0,0,.655.847,2.663,2.663,0,0,0-.116-1.088,3.338,3.338,0,0,0-1.318-1.765,2.82,2.82,0,0,0-.67-.322c.024-.018.047-.039.072-.056a6.6,6.6,0,0,1,1.655-.844,3.637,3.637,0,0,0-1.968.361,4.511,4.511,0,0,0-1.547,1.283,5.507,5.507,0,0,0-.888,1.727,4.908,4.908,0,0,0-.23,1.877c.256-.581.5-1.138.786-1.67a10.236,10.236,0,0,1,.944-1.5" transform="translate(-17.392 -6.116)" fill="#282846"/>
            <path id="Path_1945" data-name="Path 1945" d="M136.006,71.1l-5.688-7.8-5.676-7.709c-.195-1.5-.363-3.006-.516-4.511-.154-1.533-.294-3.067-.4-4.6s-.2-3.071-.239-4.606-.06-3.07.032-4.593l0,.026a2.754,2.754,0,0,0-.032-.771,3.344,3.344,0,0,0-.2-.715,3.593,3.593,0,0,0-.353-.656,4.051,4.051,0,0,0-.43-.53c-.7-1.375-1.381-2.765-2.033-4.162q-.5-1.057-.957-2.125c-.305-.712-.6-1.428-.845-2.149l-.007-.023-.006-.011a2.291,2.291,0,0,0-.311-.459,2.464,2.464,0,0,0-.4-.37,2.3,2.3,0,0,0-1.036-.421,2.924,2.924,0,0,0-1.1.079c-.165.058-.343.1-.5.172s-.319.142-.459.211l-3.459,1.678-.45.219a2.909,2.909,0,0,0-.345-.589,3.308,3.308,0,0,0-.7-.69,2.926,2.926,0,0,0-.911-.442,2.132,2.132,0,0,0-1.009-.055,9.4,9.4,0,0,1,.857.4,7.228,7.228,0,0,1,.758.481c.242.175.478.361.715.558.161.133.321.272.49.409l-6.322,3.076-.865.421a4.082,4.082,0,0,0-.457.239,1.169,1.169,0,0,0-.379.433,1.079,1.079,0,0,0,.071,1.085,2.617,2.617,0,0,0,.344.385,2.917,2.917,0,0,0,.391.319,4.387,4.387,0,0,0,1.865.729,7.591,7.591,0,0,0,1.986.026,15.427,15.427,0,0,0,3.776-.98c.3-.121.6-.235.9-.362l.831-.368a3.689,3.689,0,0,0-.025.633,5.513,5.513,0,0,0,.08.709,5.6,5.6,0,0,0,.172.694c.04.121.085.241.137.361-.549-.049-1.1-.1-1.646-.145l-2.632-.2-1.318-.081-.659-.04-.33-.02-.164-.01-.191,0a2.5,2.5,0,0,0-2.322,1.583,2.852,2.852,0,0,0-.142.675,5.529,5.529,0,0,0-.041.65,9.027,9.027,0,0,0,.088,1.283,11.374,11.374,0,0,0,.541,2.129c-.037.017-.072.033-.108.053a2.021,2.021,0,0,0-.836.8,1.715,1.715,0,0,0-.233.817v.249a7.472,7.472,0,0,0,.8,3.389,2.1,2.1,0,0,0-.384,1.2l0,1.14.016,1.139.008.57,0,.285a1.965,1.965,0,0,0,.032.336,1.986,1.986,0,0,0,.7,1.161,2.15,2.15,0,0,0,.594.34l.555.215c1.42.555,2.852,1.086,4.311,1.561a14.46,14.46,0,0,0,.465,2.537,16.894,16.894,0,0,0,.695,2.036,5.574,5.574,0,0,0,.234.508,3.664,3.664,0,0,0,.329.469l.655.853L114.91,63.6q1.947,4.175,3.938,8.33l2,4.167q1,2.085,2.018,4.161,2.025,4.158,4.1,8.3L128,90.619l1.05,2.062c.7,1.375,1.4,2.751,2.117,4.118-.613-1.414-1.246-2.817-1.876-4.223l-.945-2.108-.96-2.1q-1.921-4.2-3.889-8.385-.977-2.094-1.974-4.18l-1.989-4.173q-2-4.167-4.033-8.324l-.017-.034-.02-.024-2.7-3.352-.677-.836a3.288,3.288,0,0,1-.3-.4c-.077-.13-.149-.3-.223-.454a16.253,16.253,0,0,1-.749-1.958,13.977,13.977,0,0,1-.677-4.115,9.02,9.02,0,0,1,.7-3.546,2.967,2.967,0,0,0,.391-.307,2.055,2.055,0,0,0,.571-.852c-.339.131-.627.263-.914.389l-.845.376c-.281.126-.562.256-.849.4-.195.1-.392.2-.591.321a2.347,2.347,0,0,0-.888-.108,2.965,2.965,0,0,0,.557.586c.191.165.384.314.58.456s.4.274.606.406a6.348,6.348,0,0,0,.636.349,9.7,9.7,0,0,0-.2,1.525,11.9,11.9,0,0,0,.032,1.659c-1.334-.725-2.694-1.393-4.065-2.038l-.536-.253a1.529,1.529,0,0,1-.414-.262,1.316,1.316,0,0,1-.431-.8,1.692,1.692,0,0,1-.013-.232v-.854l0-1.14-.015-1.139a1.487,1.487,0,0,1,.279-.871,1.52,1.52,0,0,1,.328-.342,1.458,1.458,0,0,1,.2-.131l.255-.128c.355-.174.706-.354,1.057-.536,1.406-.72,2.8-1.464,4.158-2.272-1.5.537-2.966,1.14-4.42,1.765-.365.154-.729.311-1.088.473l-.281.127a2.165,2.165,0,0,0-.3.176,2.216,2.216,0,0,0-.477.452,9.958,9.958,0,0,1-.28-3.276l.022-.228a1.221,1.221,0,0,1,.041-.191,1.267,1.267,0,0,1,.157-.354,1.358,1.358,0,0,1,.59-.506,1.845,1.845,0,0,1,.189-.076,1.345,1.345,0,0,1,.2-.052l.49-.106.979-.213,1.951-.46c.646-.166,1.3-.32,1.94-.5,1.291-.346,2.575-.716,3.842-1.155-1.34.148-2.662.365-3.978.607-.66.114-1.313.254-1.969.382l-1.96.42-.976.228-.488.114a2.242,2.242,0,0,0-.284.081c-.036.013-.069.027-.1.041a15.9,15.9,0,0,1-.227-2.132,8.978,8.978,0,0,1,.038-1.23c.024-.2.047-.4.085-.6a2.389,2.389,0,0,1,.154-.547,1.9,1.9,0,0,1,1.769-1.1l2.607.189,2.637.158c.878.039,1.757.091,2.637.117,1.76.065,3.522.105,5.289.074-1.32-.2-2.643-.365-3.968-.506l-.812-3.573-.017-.079-.08.037-1.741.812-.888.368c-.3.119-.6.224-.9.337a15.166,15.166,0,0,1-3.725.872,7.285,7.285,0,0,1-1.884-.068,3.97,3.97,0,0,1-1.685-.684,2.727,2.727,0,0,1-.621-.608.677.677,0,0,1-.034-.684.731.731,0,0,1,.241-.267,4.29,4.29,0,0,1,.4-.2l.872-.408,6.977-3.264,3.49-1.638c.147-.071.277-.124.416-.188s.277-.093.415-.143a2.23,2.23,0,0,1,.828-.06,1.615,1.615,0,0,1,.727.3,1.764,1.764,0,0,1,.506.582c.247.746.542,1.462.843,2.176s.626,1.436.954,2.147c.655,1.422,1.336,2.829,2.041,4.231l.02.04.04.045a3.49,3.49,0,0,1,.388.48,2.827,2.827,0,0,1,.285.536,2.708,2.708,0,0,1,.162.576,2.474,2.474,0,0,1,.032.295,1.929,1.929,0,0,1-.006.27l0,.02v.006c-.1,1.557-.1,3.109-.06,4.658s.145,3.093.26,4.636.264,3.082.426,4.619.345,3.071.553,4.608l.011.081.05.066,5.775,7.746,5.815,7.719c1.939,2.573,3.873,5.148,5.83,7.708s3.9,5.132,5.868,7.684c-1.866-2.621-3.754-5.229-5.636-7.84S137.9,73.7,136.006,71.1M109.883,49.853a2.339,2.339,0,0,0-.578-.588c-.055-.039-.112-.077-.17-.113.078-.005.156-.012.233-.022a3.617,3.617,0,0,0,1-.286,3.374,3.374,0,0,0,.408-.221,8.166,8.166,0,0,0-.639,1.786,1.659,1.659,0,0,0-.249-.556M115.54,34.96q-.634-.067-1.269-.13c-.253-.026-.505-.048-.758-.072a3.074,3.074,0,0,0,.031-.438,3.994,3.994,0,0,0-.066-.719,4.277,4.277,0,0,0-.189-.7,2.963,2.963,0,0,0-.3-.59l1.637-.814Z" transform="translate(-8.333 -3.104)" fill="#282846"/>
            <path id="Path_1946" data-name="Path 1946" d="M30.756,99.979l-2.2-3.14L26.328,93.72c-.755-1.032-1.5-2.071-2.267-3.1-1.522-2.056-3.066-4.1-4.672-6.1,1.345,2.17,2.753,4.3,4.182,6.416.708,1.062,1.44,2.109,2.161,3.163l2.2,3.14,2.23,3.119c.755,1.032,1.5,2.072,2.267,3.1,1.522,2.057,3.066,4.1,4.673,6.1-1.345-2.171-2.752-4.3-4.182-6.417-.708-1.062-1.441-2.108-2.161-3.163" transform="translate(-1.574 -10.544)" fill="#282846"/>
            <path id="Path_1947" data-name="Path 1947" d="M17.57,49.845c-.17-.369-.356-.73-.547-1.09-.384-.717-.808-1.413-1.261-2.089-.526-.8-1.1-1.568-1.7-2.319a4.071,4.071,0,0,0,1.383.19,1.676,1.676,0,0,0,1.054-.424,1.575,1.575,0,0,0,.512-1.007,1.658,1.658,0,0,0-.051-.578c-.062-.2-.13-.34-.2-.5-.137-.314-.278-.625-.428-.934-.3-.618-.616-1.226-.967-1.819s-.719-1.176-1.117-1.743-.821-1.115-1.264-1.65c-.29-.354-.6-.694-.914-1.028a4.547,4.547,0,0,0,.364-.324,6.715,6.715,0,0,0,.515-.586,7.46,7.46,0,0,0,.441-.628,5.256,5.256,0,0,0,.388-.73,1.941,1.941,0,0,0-.825.341,2.8,2.8,0,0,0-.614.586,2.89,2.89,0,0,0-.412.719,2.507,2.507,0,0,0-.109.359c-.082-.084-.16-.171-.243-.254A16.372,16.372,0,0,0,10,32.924l-.078-.06-.095-.011a4.776,4.776,0,0,0-2.595.436,5.385,5.385,0,0,0-1.089.69,2.153,2.153,0,0,0-.484.5,1.268,1.268,0,0,0-.149.695A3.93,3.93,0,0,0,5.8,36.388a9.619,9.619,0,0,0,.513,1.095,16.9,16.9,0,0,0,1.1,1.762,3.307,3.307,0,0,0-.912.444,2.713,2.713,0,0,0-.888,1.027A2.6,2.6,0,0,0,5.357,42c.013.226.049.417.074.618l.084.6.176,1.2c.107.72.223,1.441.344,2.16a1.176,1.176,0,0,0-.124.006,1.79,1.79,0,0,0-1.191.617,8.608,8.608,0,0,0-.687.982,13.268,13.268,0,0,0-.895,1.775L2.966,49.9l-.121-.04-.108.036c-.148.049-.3.093-.443.147s-.292.113-.43.19a4.17,4.17,0,0,0-.792.51,3.545,3.545,0,0,0-.637.695,3.245,3.245,0,0,0-.241.405,2.516,2.516,0,0,0-.176.468L0,52.388l.017.07.271,1.09a10.572,10.572,0,0,0,.3,1.082L.945,55.7l.09.267.108.26.218.52.221.518.111.259.129.251.514,1.006c.17.336.38.651.569.978l.289.486c.1.159.212.313.318.47a23.8,23.8,0,0,0,2.871,3.519,21.387,21.387,0,0,0,3.493,2.907l1.94,2.6q.974,1.315,1.972,2.616-.893-1.368-1.8-2.723l-1.816-2.715-.016-.024-.037-.025A21.626,21.626,0,0,1,6.78,63.883a24.115,24.115,0,0,1-2.717-3.5c-.1-.154-.2-.305-.3-.462l-.275-.478c-.177-.32-.378-.63-.537-.96l-.483-.986-.121-.246-.1-.254-.206-.507-.209-.506-.1-.253-.085-.259L1.3,54.432a10.2,10.2,0,0,1-.286-1.052L.775,52.4a2.243,2.243,0,0,1,.1-.245,2.41,2.41,0,0,1,.189-.313,2.923,2.923,0,0,1,.506-.55,3.436,3.436,0,0,1,.643-.418c.112-.066.24-.106.358-.161.089-.033.181-.062.272-.092l2.811.909L7.125,52l.183.059c.053.018.107.036.159.056a2.678,2.678,0,0,1,.306.143,2.615,2.615,0,0,1,.541.392,2.951,2.951,0,0,1,.232.25l.244.287.488.572.977,1.146,1.964,2.283L13.2,58.33a.68.68,0,0,1,.085.111.46.46,0,0,1,.046.107.41.41,0,0,1-.146.425.5.5,0,0,1-.115.064l-.167.068a4.311,4.311,0,0,1-1.435.26,5.715,5.715,0,0,1-1.476-.19,7.759,7.759,0,0,1-1.409-.53,11.244,11.244,0,0,1-1.3-.772,13.933,13.933,0,0,1-1.2-.923L4.967,55.935l1.05,1.089c.014.014.029.026.043.039A2.343,2.343,0,0,0,5.695,57a2.622,2.622,0,0,0-.438,0,2.427,2.427,0,0,0-.435.069,1.764,1.764,0,0,0-.451.176,1.133,1.133,0,0,0,.454.2,1.645,1.645,0,0,0,.931-.07,1.137,1.137,0,0,0,.379-.238,12.777,12.777,0,0,0,1.038.886,11.307,11.307,0,0,0,1.285.852,8,8,0,0,0,1.437.623,5.162,5.162,0,0,0,3.175.033l.192-.07a.984.984,0,0,0,.221-.116.915.915,0,0,0,.311-.4.9.9,0,0,0,.041-.495.928.928,0,0,0-.088-.237,1.128,1.128,0,0,0-.135-.192l-.077-.1a5.093,5.093,0,0,0,1.317.4,4.1,4.1,0,0,0,1.062.025,3.324,3.324,0,0,0,.53-.1c.088-.025.172-.05.261-.082a.946.946,0,0,0,.28-.166.893.893,0,0,0,.306-.555.884.884,0,0,0-.012-.322.966.966,0,0,0-.051-.156c-.021-.053-.037-.08-.056-.121-.142-.3-.3-.6-.468-.887q-.495-.869-1.056-1.692c-.7-1.042-1.439-2.049-2.2-3.042a4.9,4.9,0,0,0,2.741.46,4.808,4.808,0,0,0,.639-.122,1.425,1.425,0,0,0,.341-.125,1.138,1.138,0,0,0,.3-.235,1.091,1.091,0,0,0,.283-.682,1.109,1.109,0,0,0-.049-.375c-.047-.131-.09-.208-.132-.3M6.581,37.369a10.855,10.855,0,0,1-.4-1.1,3.5,3.5,0,0,1-.177-1.095.878.878,0,0,1,.118-.442,1.909,1.909,0,0,1,.38-.337,4.839,4.839,0,0,1,1-.564,4.135,4.135,0,0,1,2.124-.317A23.3,23.3,0,0,1,12.4,36.331q.655.775,1.25,1.6c.4.545.783,1.1,1.143,1.67s.707,1.148,1.03,1.739c.164.295.318.593.471.894.074.148.162.309.209.431a1.227,1.227,0,0,1,.071.419,1.285,1.285,0,0,1-1.152,1.214,4.239,4.239,0,0,1-1.454-.063q-.586-.731-1.2-1.442A44.681,44.681,0,0,0,9.34,39.27l-.071-.064-.09-.018a3.7,3.7,0,0,0-1.393-.031,3.072,3.072,0,0,0-.323.075c-.317-.614-.617-1.234-.883-1.863m8.514,17.254c.381.534.763,1.067,1.115,1.613.175.273.347.549.5.829.018.032.045.076.056.1a.55.55,0,0,1,.032.075.474.474,0,0,1,.02.161.463.463,0,0,1-.135.3.485.485,0,0,1-.143.1c-.068.032-.144.06-.219.088a3.645,3.645,0,0,1-1.441.194,5.577,5.577,0,0,1-1.452-.291l-.766-.941-1.9-2.33L9.8,53.361l-.479-.58-.239-.29a3.62,3.62,0,0,0-.277-.306,3.282,3.282,0,0,0-.679-.509,3.391,3.391,0,0,0-.387-.187c-.066-.027-.134-.052-.2-.075l-.183-.061L5.9,50.868l-2.709-.891a19.507,19.507,0,0,1,1.091-1.641,10.031,10.031,0,0,1,.747-.883,1.349,1.349,0,0,1,.922-.4,1.278,1.278,0,0,1,.253.019c.08.007.192.033.286.051q.294.056.585.123c.389.087.774.185,1.152.3a11.586,11.586,0,0,1,1.108.375,4.649,4.649,0,0,1,.944.495l2.435,3.062q.612.779,1.206,1.566c.4.524.8,1.049,1.18,1.581m2.021-3.691a.727.727,0,0,1-.171.156.988.988,0,0,1-.236.1,4.624,4.624,0,0,1-.579.15,4.569,4.569,0,0,1-1.2.082,5.268,5.268,0,0,1-1.608-.362l-.006-.008c-.4-.53-.827-1.039-1.245-1.554L10.8,47.954l-.028-.035-.036-.025a5.2,5.2,0,0,0-1.155-.571l-.027-.009c-.093-.209-.195-.412-.3-.611-.18-.326-.374-.644-.585-.951s-.438-.6-.68-.894a6.572,6.572,0,0,0-.8-.819,6.4,6.4,0,0,0,.468,1.026,11.113,11.113,0,0,0,.586.951c.21.307.438.6.68.893.078.093.158.184.24.274-.255-.082-.513-.158-.772-.22-.4-.1-.8-.177-1.208-.245-.2-.034-.4-.067-.607-.095-.106-.013-.192-.032-.314-.039-.067,0-.135-.007-.2-.007q-.041-1.092-.1-2.183l-.072-1.21-.04-.6c-.012-.2-.034-.41-.03-.587a2.215,2.215,0,0,1,1.033-1.842A2.794,2.794,0,0,1,8.93,39.8c1.13,1.1,2.231,2.254,3.264,3.448a47.131,47.131,0,0,1,3,3.77c.463.653.9,1.323,1.312,2,.2.341.4.686.585,1.038a.931.931,0,0,1,.166.453.649.649,0,0,1-.14.417" transform="translate(0 -4.065)" fill="#282846"/>
            <path id="Path_1948" data-name="Path 1948" d="M45.748,90.553,44.854,89.3c-.605-.831-1.239-1.644-1.891-2.444s-1.329-1.585-2.065-2.329c.477.916,1.017,1.792,1.579,2.652s1.145,1.707,1.755,2.536l.928,1.233c.321.4.631.814.964,1.21.653.8,1.328,1.584,2.065,2.329-.479-.916-1.018-1.791-1.58-2.651-.275-.434-.572-.853-.859-1.28" transform="translate(-3.32 -10.544)" fill="#282846"/>
            <path id="Path_1949" data-name="Path 1949" d="M14.844,25.193q.047,4.12.127,8.239.076-4.12.127-8.239l.107-8.239L15.339.835c7.031.06,14.062.074,21.092.1L57.892.957,79.353.909C86.4.895,93.453.825,100.5.779l.048,6.052.077,6.353.083,6.353.1,6.353.1-6.353L101,13.185l.077-6.353.051-6.353,0-.3-.316,0C93.66.133,86.507.062,79.353.047L57.892,0,36.432.019C29.278.047,22.125.062,14.971.124l-.375,0,0,.35.138,16.477Z" transform="translate(-1.185)" fill="#7f7faa"/>
            <path id="Path_1950" data-name="Path 1950" d="M101.147,81.084l-.053-6.031c-.013-2.01-.049-4.021-.076-6.032l-.087-6.031-.108-6.031-.107,6.031-.088,6.031c-.028,2.011-.063,4.022-.075,6.032l-.051,5.72-10.408-.084-10.73-.05-10.731-.026L57.9,80.6q-10.731.013-21.461.053-5.365.014-10.731.067l-10.445.083-.048-4.743-.073-5.02-.073-5.02-.092-5.02-.093,5.02-.073,5.02-.072,5.02-.051,5.02,0,.271.29,0,10.73.086q5.365.047,10.731.067,10.729.055,21.461.053l10.73-.009,10.731-.025,10.73-.05,10.731-.087.327,0Z" transform="translate(-1.193 -7.106)" fill="#7f7faa"/>
            <path id="Path_1951" data-name="Path 1951" d="M181.225,495.734a7.12,7.12,0,0,0-1.624-.936,7.43,7.43,0,0,0-3.773-.517,6.394,6.394,0,0,0-3.5,1.572,4.705,4.705,0,0,0-1.138,1.56,3.77,3.77,0,0,0-.32,1.9,4.036,4.036,0,0,0,.661,1.819,3.493,3.493,0,0,0,1.537,1.286,3.835,3.835,0,0,0,1,.242,4.377,4.377,0,0,0,1.016-.037,5.855,5.855,0,0,0,1.839-.65,15.113,15.113,0,0,0,2.964-2.242c.892-.838,1.726-1.721,2.53-2.627-.923.8-1.826,1.613-2.776,2.369-.471.38-.954.747-1.452,1.091a11.156,11.156,0,0,1-1.539.92,5.757,5.757,0,0,1-1.664.524,3.726,3.726,0,0,1-.843.009,3.082,3.082,0,0,1-.792-.213,3.12,3.12,0,0,1-1.742-2.557,3.555,3.555,0,0,1,1.208-2.919,5.938,5.938,0,0,1,3.1-1.505,7.354,7.354,0,0,1,3.55.294,7.27,7.27,0,0,1,1.635.771,4.462,4.462,0,0,1,1.318,1.216,4.643,4.643,0,0,0-.515-.747,4.345,4.345,0,0,0-.682-.626" transform="translate(-13.871 -61.655)" fill="#fff"/>
            <path id="Path_1952" data-name="Path 1952" d="M192.582,495.42a5.473,5.473,0,0,0-3.236-1.483,5.175,5.175,0,0,0-3.425.817,12.373,12.373,0,0,0-2.476,2.313,15.516,15.516,0,0,1,2.668-2.017,5.039,5.039,0,0,1,5.958.833,3.63,3.63,0,0,1,1.088,2.724,2.8,2.8,0,0,1-.13.715,2.575,2.575,0,0,1-.329.646,3.064,3.064,0,0,1-1.149.955,4.272,4.272,0,0,1-3.1.228,7.822,7.822,0,0,1-2.858-1.583,8.711,8.711,0,0,1-1.183-1.153,7.167,7.167,0,0,1-.491-.663l-.477-.685a15.561,15.561,0,0,0,.8,1.462,8.215,8.215,0,0,0,1.1,1.293,9.986,9.986,0,0,0,1.34,1.084,6.581,6.581,0,0,0,1.592.773,5.144,5.144,0,0,0,1.8.271,4.564,4.564,0,0,0,1.8-.428,3.661,3.661,0,0,0,1.43-1.162,3.25,3.25,0,0,0,.428-.82,3.481,3.481,0,0,0,.174-.893,4.269,4.269,0,0,0-1.321-3.226" transform="translate(-14.893 -61.616)" fill="#fff"/>
            <path id="Path_1953" data-name="Path 1953" d="M164.842,484.507a7.258,7.258,0,0,0-1.779-.631,7.453,7.453,0,0,0-3.808.164,6.259,6.259,0,0,0-3.13,2.166,4.6,4.6,0,0,0-.811,1.736,3.749,3.749,0,0,0,.059,1.927,4.118,4.118,0,0,0,1.005,1.669,3.584,3.584,0,0,0,1.761.99,3.817,3.817,0,0,0,1.035.059,4.37,4.37,0,0,0,.991-.217,5.763,5.763,0,0,0,1.68-.965,14.766,14.766,0,0,0,2.472-2.73c.712-.981,1.358-2,1.97-3.031-.751.948-1.477,1.91-2.262,2.821-.39.458-.791.9-1.213,1.33a10.9,10.9,0,0,1-1.331,1.177,5.679,5.679,0,0,1-1.533.811,3.692,3.692,0,0,1-.827.158,3.1,3.1,0,0,1-.819-.068,3.2,3.2,0,0,1-2.213-2.2,3.5,3.5,0,0,1,.616-3.082,5.8,5.8,0,0,1,2.744-2.03,7.624,7.624,0,0,1,5.305.124,4.573,4.573,0,0,1,1.533.959,4.8,4.8,0,0,0-.653-.642,4.414,4.414,0,0,0-.792-.494" transform="translate(-12.601 -60.343)" fill="#fff"/>
            <path id="Path_1954" data-name="Path 1954" d="M175.92,482.086a5.565,5.565,0,0,0-3.469-.881,5.311,5.311,0,0,0-1.748.431,5.23,5.23,0,0,0-1.458.981,12.028,12.028,0,0,0-1.978,2.713,15.124,15.124,0,0,1,2.225-2.456,4.876,4.876,0,0,1,2.991-1.116,5.071,5.071,0,0,1,3.027.874,3.709,3.709,0,0,1,1.6,2.483,2.823,2.823,0,0,1,.013.726,2.574,2.574,0,0,1-.2.693,2.98,2.98,0,0,1-.941,1.142,4.237,4.237,0,0,1-3,.775,7.993,7.993,0,0,1-3.118-1.047,8.894,8.894,0,0,1-1.387-.923,7.293,7.293,0,0,1-.613-.564l-.6-.588a16,16,0,0,0,1.072,1.294,8.423,8.423,0,0,0,1.335,1.074,10.288,10.288,0,0,0,1.529.826,6.743,6.743,0,0,0,1.716.476,5.174,5.174,0,0,0,1.819-.054,4.5,4.5,0,0,0,1.68-.74,3.563,3.563,0,0,0,1.177-1.4,3.192,3.192,0,0,0,.26-.881,3.456,3.456,0,0,0,0-.908,4.359,4.359,0,0,0-1.93-2.934" transform="translate(-13.58 -60.029)" fill="#fff"/>
          </g>
        </g>
      </g>
    </g>
    <g id="Group_4371" data-name="Group 4371" transform="translate(1373.564 -53.025)">
      <text id="Only_JPEG_JPG_PNG_PADF_are_allowed." data-name="Only JPEG, JPG, PNG &amp; PADF are allowed." transform="translate(0 423.504)" fill="#7f7faa" font-size="16" font-family="HelveticaNeue, Helvetica Neue" letter-spacing="0em"><tspan x="0" y="15">Only JPEG, JPG, PNG &amp; PADF are </tspan><tspan x="0" y="39">allowed.</tspan></text>
      <text id="Maximum_size:_5_MB" data-name="Maximum size: 5 MB" transform="translate(0 390.504)" fill="#7f7faa" font-size="16" font-family="HelveticaNeue, Helvetica Neue" letter-spacing="0em"><tspan x="0" y="15">Maximum size: 5 MB</tspan></text>
      <text id="Minimum_dimension:_256_x_256_pixels" data-name="Minimum dimension: 256 x 256 pixels" transform="translate(0 365.504)" fill="#7f7faa" font-size="16" font-family="HelveticaNeue, Helvetica Neue" letter-spacing="0em"><tspan x="0" y="15">Minimum dimension: 256 x 256 pixels</tspan></text>
      <text id="Upload_Logo" data-name="Upload Logo" transform="translate(0 340.504)" fill="#282846" font-size="21" font-family="HelveticaNeue-Medium, Helvetica Neue" font-weight="500" letter-spacing="0em"><tspan x="0" y="0">Upload Logo</tspan></text>
    </g>
  </g>
</svg>
